G75*
G70*
%OFA0B0*%
%FSLAX24Y24*%
%IPPOS*%
%LPD*%
%AMOC8*
5,1,8,0,0,1.08239X$1,22.5*
%
%ADD10C,0.0000*%
%ADD11R,0.0808X0.0513*%
%ADD12R,0.0828X0.0867*%
%ADD13C,0.0375*%
%ADD14C,0.0493*%
%ADD15C,0.0749*%
%ADD16R,0.0356X0.0474*%
%ADD17R,0.0474X0.0500*%
%ADD18R,0.0671X0.0513*%
%ADD19R,0.0395X0.0474*%
%ADD20R,0.0474X0.0631*%
%ADD21R,0.0500X0.0474*%
%ADD22R,0.0513X0.0671*%
%ADD23R,0.0316X0.0237*%
%ADD24R,0.0474X0.0356*%
%ADD25R,0.0237X0.0671*%
%ADD26R,0.0474X0.0395*%
%ADD27R,0.0631X0.0474*%
%ADD28R,0.0236X0.0394*%
%ADD29R,0.0394X0.0236*%
%ADD30C,0.0395*%
%ADD31R,0.0750X0.0630*%
%ADD32R,0.0710X0.0540*%
%ADD33R,0.0720X0.0060*%
%ADD34C,0.0356*%
%ADD35C,0.0474*%
D10*
X000841Y000938D02*
X000841Y010780D01*
X010684Y010780D01*
X010684Y000938D01*
X000841Y000938D01*
X006995Y002377D02*
X006997Y002405D01*
X007003Y002433D01*
X007012Y002459D01*
X007025Y002485D01*
X007041Y002508D01*
X007061Y002528D01*
X007083Y002546D01*
X007107Y002561D01*
X007133Y002572D01*
X007160Y002580D01*
X007188Y002584D01*
X007216Y002584D01*
X007244Y002580D01*
X007271Y002572D01*
X007297Y002561D01*
X007321Y002546D01*
X007343Y002528D01*
X007363Y002508D01*
X007379Y002485D01*
X007392Y002459D01*
X007401Y002433D01*
X007407Y002405D01*
X007409Y002377D01*
X007407Y002349D01*
X007401Y002321D01*
X007392Y002295D01*
X007379Y002269D01*
X007363Y002246D01*
X007343Y002226D01*
X007321Y002208D01*
X007297Y002193D01*
X007271Y002182D01*
X007244Y002174D01*
X007216Y002170D01*
X007188Y002170D01*
X007160Y002174D01*
X007133Y002182D01*
X007107Y002193D01*
X007083Y002208D01*
X007061Y002226D01*
X007041Y002246D01*
X007025Y002269D01*
X007012Y002295D01*
X007003Y002321D01*
X006997Y002349D01*
X006995Y002377D01*
X008112Y003435D02*
X008114Y003459D01*
X008120Y003482D01*
X008129Y003504D01*
X008142Y003524D01*
X008157Y003542D01*
X008176Y003557D01*
X008197Y003569D01*
X008219Y003577D01*
X008242Y003582D01*
X008266Y003583D01*
X008290Y003580D01*
X008312Y003573D01*
X008334Y003563D01*
X008354Y003550D01*
X008371Y003533D01*
X008385Y003514D01*
X008396Y003493D01*
X008404Y003470D01*
X008408Y003447D01*
X008408Y003423D01*
X008404Y003400D01*
X008396Y003377D01*
X008385Y003356D01*
X008371Y003337D01*
X008354Y003320D01*
X008334Y003307D01*
X008312Y003297D01*
X008290Y003290D01*
X008266Y003287D01*
X008242Y003288D01*
X008219Y003293D01*
X008197Y003301D01*
X008176Y003313D01*
X008157Y003328D01*
X008142Y003346D01*
X008129Y003366D01*
X008120Y003388D01*
X008114Y003411D01*
X008112Y003435D01*
D11*
G36*
X007299Y003756D02*
X006729Y004326D01*
X007091Y004688D01*
X007661Y004118D01*
X007299Y003756D01*
G37*
G36*
X006909Y003366D02*
X006339Y003936D01*
X006701Y004298D01*
X007271Y003728D01*
X006909Y003366D01*
G37*
G36*
X006520Y002976D02*
X005950Y003546D01*
X006312Y003908D01*
X006882Y003338D01*
X006520Y002976D01*
G37*
G36*
X008371Y001125D02*
X007801Y001695D01*
X008163Y002057D01*
X008733Y001487D01*
X008371Y001125D01*
G37*
G36*
X008761Y001515D02*
X008191Y002085D01*
X008553Y002447D01*
X009123Y001877D01*
X008761Y001515D01*
G37*
G36*
X009150Y001904D02*
X008580Y002474D01*
X008942Y002836D01*
X009512Y002266D01*
X009150Y001904D01*
G37*
D12*
G36*
X008868Y003458D02*
X008283Y004043D01*
X008894Y004654D01*
X009479Y004069D01*
X008868Y003458D01*
G37*
G36*
X006568Y001159D02*
X005983Y001744D01*
X006594Y002355D01*
X007179Y001770D01*
X006568Y001159D01*
G37*
D13*
X008260Y003435D03*
D14*
X007202Y002377D03*
D15*
X005339Y001410D03*
X005339Y003694D03*
X001304Y003694D03*
X001304Y001410D03*
D16*
X001830Y007958D03*
X002204Y007958D03*
X002578Y007958D03*
X002578Y008863D03*
X001830Y008863D03*
D17*
X001589Y009422D03*
X001589Y010091D03*
X006235Y007335D03*
X006235Y006666D03*
X004188Y004658D03*
X004188Y003989D03*
X001274Y002729D03*
X001274Y002060D03*
D18*
X004463Y002099D03*
X004463Y001272D03*
X004385Y006627D03*
X004385Y007454D03*
X002337Y009540D03*
X002337Y010367D03*
D19*
X003129Y008824D03*
X003877Y008824D03*
X003503Y007918D03*
D20*
X003204Y007276D03*
X003578Y006410D03*
X002830Y006410D03*
D21*
X002633Y005623D03*
X003302Y005623D03*
X005034Y007355D03*
X005704Y007355D03*
D22*
X002239Y007040D03*
X001412Y007040D03*
X004168Y002788D03*
X004995Y002788D03*
D23*
X003637Y004107D03*
X003637Y004363D03*
X003637Y004619D03*
X002770Y004619D03*
X002770Y004363D03*
X002770Y004107D03*
D24*
X005081Y004524D03*
X005081Y005272D03*
X005987Y005272D03*
X005987Y004898D03*
X005987Y004524D03*
D25*
X006973Y007188D03*
X007229Y007188D03*
X007485Y007188D03*
X007741Y007188D03*
X007997Y007188D03*
X008253Y007188D03*
X008509Y007188D03*
X008765Y007188D03*
X009020Y007188D03*
X009276Y007188D03*
X009276Y010042D03*
X009020Y010042D03*
X008765Y010042D03*
X008509Y010042D03*
X008253Y010042D03*
X007997Y010042D03*
X007741Y010042D03*
X007485Y010042D03*
X007229Y010042D03*
X006973Y010042D03*
D26*
X005869Y009544D03*
X004963Y009170D03*
X004963Y009918D03*
X003609Y003296D03*
X003609Y002548D03*
X003609Y002076D03*
X003609Y001328D03*
X002704Y001702D03*
X002704Y002922D03*
D27*
X005802Y007926D03*
X005802Y008674D03*
X004936Y008300D03*
D28*
X004385Y009521D03*
X004070Y009521D03*
X003755Y009521D03*
X003440Y009521D03*
X003440Y010150D03*
X003755Y010150D03*
X004070Y010150D03*
X004385Y010150D03*
X007889Y005662D03*
X008204Y005662D03*
X008519Y005662D03*
X008833Y005662D03*
X008833Y005032D03*
X008519Y005032D03*
X008204Y005032D03*
X007889Y005032D03*
D29*
X009385Y005269D03*
X009385Y005584D03*
X009385Y005898D03*
X009385Y006213D03*
X010015Y006213D03*
X010015Y005898D03*
X010015Y005584D03*
X010015Y005269D03*
D30*
X001491Y005337D02*
X001176Y005337D01*
X001176Y005830D02*
X001491Y005830D01*
D31*
X002062Y003151D03*
X002062Y001526D03*
D32*
X002141Y004457D03*
X002141Y005057D03*
D33*
X002141Y004757D03*
D34*
X001589Y004481D03*
X002219Y003851D03*
X003164Y003654D03*
X003125Y004363D03*
X002770Y004993D03*
X003085Y005072D03*
X003912Y005072D03*
X004267Y005190D03*
X004621Y004993D03*
X004621Y004580D03*
X004625Y003832D03*
X004345Y003497D03*
X005054Y002237D03*
X005330Y002001D03*
X006668Y002552D03*
X007574Y002985D03*
X007574Y003339D03*
X007770Y002552D03*
X007731Y002119D03*
X008715Y002985D03*
X009660Y003772D03*
X009660Y004127D03*
X009857Y004914D03*
X008794Y006332D03*
X008400Y006332D03*
X007101Y006647D03*
X006668Y007276D03*
X006904Y007828D03*
X006353Y008458D03*
X007495Y008536D03*
X007849Y008536D03*
X007731Y007946D03*
X009621Y007395D03*
X010054Y007985D03*
X010093Y008339D03*
X006471Y004875D03*
X005999Y004048D03*
X005526Y005072D03*
X005251Y006135D03*
X004936Y006332D03*
X005566Y006804D03*
X004109Y008418D03*
X003637Y007434D03*
X002770Y007080D03*
X002101Y005820D03*
X001274Y006332D03*
X001471Y007631D03*
X001786Y008418D03*
X001156Y008812D03*
X002928Y010426D03*
X003007Y009993D03*
X005802Y010072D03*
X006196Y010072D03*
X010015Y002946D03*
X010054Y001528D03*
X002967Y002473D03*
X002416Y002316D03*
D35*
X009660Y010269D03*
X010133Y009993D03*
X010330Y010426D03*
M02*
