G75*
G70*
%OFA0B0*%
%FSLAX24Y24*%
%IPPOS*%
%LPD*%
%AMOC8*
5,1,8,0,0,1.08239X$1,22.5*
%
%ADD10C,0.0000*%
%ADD11C,0.0070*%
%ADD12C,0.0080*%
%ADD13C,0.0060*%
%ADD14C,0.0020*%
%ADD15C,0.0050*%
%ADD16C,0.0079*%
%ADD17R,0.0384X0.2047*%
%ADD18C,0.0040*%
%ADD19R,0.0500X0.0140*%
D10*
X000841Y000938D02*
X000841Y010780D01*
X010684Y010780D01*
X010684Y000938D01*
X000841Y000938D01*
X006995Y002377D02*
X006997Y002405D01*
X007003Y002433D01*
X007012Y002459D01*
X007025Y002485D01*
X007041Y002508D01*
X007061Y002528D01*
X007083Y002546D01*
X007107Y002561D01*
X007133Y002572D01*
X007160Y002580D01*
X007188Y002584D01*
X007216Y002584D01*
X007244Y002580D01*
X007271Y002572D01*
X007297Y002561D01*
X007321Y002546D01*
X007343Y002528D01*
X007363Y002508D01*
X007379Y002485D01*
X007392Y002459D01*
X007401Y002433D01*
X007407Y002405D01*
X007409Y002377D01*
X007407Y002349D01*
X007401Y002321D01*
X007392Y002295D01*
X007379Y002269D01*
X007363Y002246D01*
X007343Y002226D01*
X007321Y002208D01*
X007297Y002193D01*
X007271Y002182D01*
X007244Y002174D01*
X007216Y002170D01*
X007188Y002170D01*
X007160Y002174D01*
X007133Y002182D01*
X007107Y002193D01*
X007083Y002208D01*
X007061Y002226D01*
X007041Y002246D01*
X007025Y002269D01*
X007012Y002295D01*
X007003Y002321D01*
X006997Y002349D01*
X006995Y002377D01*
X008112Y003435D02*
X008114Y003459D01*
X008120Y003482D01*
X008129Y003504D01*
X008142Y003524D01*
X008157Y003542D01*
X008176Y003557D01*
X008197Y003569D01*
X008219Y003577D01*
X008242Y003582D01*
X008266Y003583D01*
X008290Y003580D01*
X008312Y003573D01*
X008334Y003563D01*
X008354Y003550D01*
X008371Y003533D01*
X008385Y003514D01*
X008396Y003493D01*
X008404Y003470D01*
X008408Y003447D01*
X008408Y003423D01*
X008404Y003400D01*
X008396Y003377D01*
X008385Y003356D01*
X008371Y003337D01*
X008354Y003320D01*
X008334Y003307D01*
X008312Y003297D01*
X008290Y003290D01*
X008266Y003287D01*
X008242Y003288D01*
X008219Y003293D01*
X008197Y003301D01*
X008176Y003313D01*
X008157Y003328D01*
X008142Y003346D01*
X008129Y003366D01*
X008120Y003388D01*
X008114Y003411D01*
X008112Y003435D01*
D11*
X009572Y003448D02*
X009697Y003448D01*
X009655Y003532D01*
X009655Y003573D01*
X009697Y003615D01*
X009780Y003615D01*
X009822Y003573D01*
X009822Y003490D01*
X009780Y003448D01*
X009822Y003320D02*
X009822Y003154D01*
X009822Y003237D02*
X009572Y003237D01*
X009655Y003154D01*
X009614Y003026D02*
X009780Y002859D01*
X009822Y002901D01*
X009822Y002984D01*
X009780Y003026D01*
X009614Y003026D01*
X009572Y002984D01*
X009572Y002901D01*
X009614Y002859D01*
X009780Y002859D01*
X009822Y002731D02*
X009822Y002564D01*
X009655Y002731D01*
X009614Y002731D01*
X009572Y002689D01*
X009572Y002606D01*
X009614Y002564D01*
X009614Y002142D02*
X009572Y002100D01*
X009572Y002017D01*
X009614Y001975D01*
X009572Y001847D02*
X009822Y001847D01*
X009822Y001975D02*
X009655Y002142D01*
X009614Y002142D01*
X009822Y002142D02*
X009822Y001975D01*
X009655Y001764D02*
X009572Y001847D01*
X009655Y001764D02*
X009572Y001680D01*
X009822Y001680D01*
X009697Y001552D02*
X009739Y001511D01*
X009739Y001386D01*
X009822Y001386D02*
X009572Y001386D01*
X009572Y001511D01*
X009614Y001552D01*
X009697Y001552D01*
X009655Y001258D02*
X009822Y001258D01*
X009822Y001133D01*
X009780Y001091D01*
X009655Y001091D01*
X010241Y001209D02*
X010491Y001209D01*
X010366Y001209D02*
X010325Y001251D01*
X010325Y001334D01*
X010366Y001376D01*
X010491Y001376D01*
X010450Y001545D02*
X010283Y001545D01*
X010325Y001504D02*
X010325Y001587D01*
X010325Y001700D02*
X010325Y001784D01*
X010283Y001742D02*
X010450Y001742D01*
X010491Y001784D01*
X010491Y001897D02*
X010491Y002022D01*
X010450Y002063D01*
X010366Y002063D01*
X010325Y002022D01*
X010325Y001897D01*
X010575Y001897D01*
X010491Y001587D02*
X010450Y001545D01*
X010450Y002191D02*
X010491Y002191D01*
X010491Y002233D01*
X010450Y002233D01*
X010450Y002191D01*
X010366Y002191D02*
X010325Y002191D01*
X010325Y002233D01*
X010366Y002233D01*
X010366Y002191D01*
X010491Y002339D02*
X010241Y002505D01*
X010491Y002633D02*
X010241Y002800D01*
X010241Y003011D02*
X010199Y003011D01*
X010325Y003011D02*
X010533Y003011D01*
X010575Y002970D01*
X010575Y002928D01*
X010450Y003124D02*
X010408Y003166D01*
X010408Y003291D01*
X010366Y003291D02*
X010491Y003291D01*
X010491Y003166D01*
X010450Y003124D01*
X010325Y003166D02*
X010325Y003249D01*
X010366Y003291D01*
X010325Y003419D02*
X010491Y003419D01*
X010408Y003419D02*
X010325Y003502D01*
X010325Y003544D01*
X010366Y003664D02*
X010325Y003706D01*
X010325Y003790D01*
X010366Y003831D01*
X010450Y003831D01*
X010491Y003790D01*
X010491Y003706D01*
X010450Y003664D01*
X010366Y003664D01*
X010325Y003959D02*
X010325Y004001D01*
X010366Y004043D01*
X010325Y004084D01*
X010366Y004126D01*
X010491Y004126D01*
X010491Y004043D02*
X010366Y004043D01*
X010325Y003959D02*
X010491Y003959D01*
X010491Y004254D02*
X010491Y004337D01*
X010491Y004295D02*
X010325Y004295D01*
X010325Y004254D01*
X010241Y004295D02*
X010199Y004295D01*
X010325Y004450D02*
X010491Y004450D01*
X010408Y004450D02*
X010325Y004534D01*
X010325Y004575D01*
X010450Y004696D02*
X010450Y004737D01*
X010491Y004737D01*
X010491Y004696D01*
X010450Y004696D01*
X010491Y004843D02*
X010325Y005010D01*
X010366Y005138D02*
X010366Y005221D01*
X010283Y005179D02*
X010241Y005221D01*
X010283Y005179D02*
X010491Y005179D01*
X010491Y005334D02*
X010450Y005334D01*
X010450Y005376D01*
X010491Y005376D01*
X010491Y005334D01*
X010450Y005482D02*
X010491Y005523D01*
X010491Y005648D01*
X010491Y005776D02*
X010491Y005943D01*
X010491Y006071D02*
X010241Y006238D01*
X010325Y005943D02*
X010491Y005776D01*
X010325Y005776D02*
X010325Y005943D01*
X010325Y005648D02*
X010325Y005523D01*
X010366Y005482D01*
X010450Y005482D01*
X010491Y005010D02*
X010325Y004843D01*
X009572Y003615D02*
X009572Y003448D01*
D12*
X009443Y003143D02*
X009443Y002586D01*
X008051Y001194D01*
X007494Y001194D01*
X006019Y002670D01*
X006019Y003226D01*
X007411Y004618D01*
X007968Y004618D01*
X008427Y004159D01*
X008984Y003602D01*
X008427Y003602D01*
X008427Y004159D01*
X008984Y003602D02*
X009443Y003143D01*
X008121Y003099D02*
X008121Y002713D01*
X008119Y002687D01*
X008114Y002662D01*
X008106Y002638D01*
X008095Y002614D01*
X008080Y002593D01*
X008063Y002574D01*
X008044Y002557D01*
X008023Y002542D01*
X007999Y002531D01*
X007975Y002523D01*
X007950Y002518D01*
X007924Y002516D01*
X007924Y002517D02*
X007538Y002517D01*
X007538Y002516D02*
X007512Y002518D01*
X007487Y002523D01*
X007463Y002531D01*
X007440Y002542D01*
X007418Y002557D01*
X007399Y002574D01*
X007382Y002593D01*
X007367Y002615D01*
X007356Y002638D01*
X007348Y002662D01*
X007343Y002687D01*
X007341Y002713D01*
X007341Y003099D01*
X007343Y003125D01*
X007348Y003150D01*
X007356Y003174D01*
X007367Y003198D01*
X007382Y003219D01*
X007399Y003238D01*
X007418Y003255D01*
X007440Y003270D01*
X007463Y003281D01*
X007487Y003289D01*
X007512Y003294D01*
X007538Y003296D01*
X007924Y003296D01*
X007950Y003294D01*
X007975Y003289D01*
X007999Y003281D01*
X008023Y003270D01*
X008044Y003255D01*
X008063Y003238D01*
X008080Y003219D01*
X008095Y003198D01*
X008106Y003174D01*
X008114Y003150D01*
X008119Y003125D01*
X008121Y003099D01*
X007140Y002906D02*
X007142Y002954D01*
X007148Y003002D01*
X007158Y003049D01*
X007171Y003095D01*
X007189Y003140D01*
X007209Y003184D01*
X007234Y003226D01*
X007262Y003265D01*
X007292Y003302D01*
X007326Y003336D01*
X007363Y003368D01*
X007401Y003397D01*
X007442Y003422D01*
X007485Y003444D01*
X007530Y003462D01*
X007576Y003476D01*
X007623Y003487D01*
X007671Y003494D01*
X007719Y003497D01*
X007767Y003496D01*
X007815Y003491D01*
X007863Y003482D01*
X007909Y003470D01*
X007954Y003453D01*
X007998Y003433D01*
X008040Y003410D01*
X008080Y003383D01*
X008118Y003353D01*
X008153Y003320D01*
X008185Y003284D01*
X008215Y003246D01*
X008241Y003205D01*
X008263Y003162D01*
X008283Y003118D01*
X008298Y003073D01*
X008310Y003026D01*
X008318Y002978D01*
X008322Y002930D01*
X008322Y002882D01*
X008318Y002834D01*
X008310Y002786D01*
X008298Y002739D01*
X008283Y002694D01*
X008263Y002650D01*
X008241Y002607D01*
X008215Y002566D01*
X008185Y002528D01*
X008153Y002492D01*
X008118Y002459D01*
X008080Y002429D01*
X008040Y002402D01*
X007998Y002379D01*
X007954Y002359D01*
X007909Y002342D01*
X007863Y002330D01*
X007815Y002321D01*
X007767Y002316D01*
X007719Y002315D01*
X007671Y002318D01*
X007623Y002325D01*
X007576Y002336D01*
X007530Y002350D01*
X007485Y002368D01*
X007442Y002390D01*
X007401Y002415D01*
X007363Y002444D01*
X007326Y002476D01*
X007292Y002510D01*
X007262Y002547D01*
X007234Y002586D01*
X007209Y002628D01*
X007189Y002672D01*
X007171Y002717D01*
X007158Y002763D01*
X007148Y002810D01*
X007142Y002858D01*
X007140Y002906D01*
X007731Y003630D02*
X007731Y004131D01*
X007564Y003964D01*
X007731Y004131D02*
X007898Y003964D01*
X006629Y007591D02*
X009621Y007591D01*
X009621Y009639D02*
X006629Y009639D01*
X006629Y007591D01*
D13*
X005724Y008984D02*
X005109Y008984D01*
X004063Y008678D02*
X004063Y008063D01*
X002943Y008063D02*
X002943Y008678D01*
X002763Y008718D02*
X002763Y008103D01*
X001643Y008103D02*
X001643Y008718D01*
X001841Y005407D02*
X002441Y005407D01*
X002458Y005405D01*
X002475Y005401D01*
X002491Y005394D01*
X002505Y005384D01*
X002518Y005371D01*
X002528Y005357D01*
X002535Y005341D01*
X002539Y005324D01*
X002541Y005307D01*
X002541Y004207D01*
X002539Y004190D01*
X002535Y004173D01*
X002528Y004157D01*
X002518Y004143D01*
X002505Y004130D01*
X002491Y004120D01*
X002475Y004113D01*
X002458Y004109D01*
X002441Y004107D01*
X001841Y004107D01*
X001824Y004109D01*
X001807Y004113D01*
X001791Y004120D01*
X001777Y004130D01*
X001764Y004143D01*
X001754Y004157D01*
X001747Y004173D01*
X001743Y004190D01*
X001741Y004207D01*
X001741Y005307D01*
X001743Y005324D01*
X001747Y005341D01*
X001754Y005357D01*
X001764Y005371D01*
X001777Y005384D01*
X001791Y005394D01*
X001807Y005401D01*
X001824Y005405D01*
X001841Y005407D01*
X002849Y003482D02*
X003464Y003482D01*
X003464Y002362D02*
X002849Y002362D01*
X002849Y002262D02*
X003464Y002262D01*
X003464Y001142D02*
X002849Y001142D01*
X005227Y004338D02*
X005842Y004338D01*
X005842Y005458D02*
X005227Y005458D01*
X007483Y004533D02*
X007483Y004316D01*
X007526Y004273D01*
X007613Y004273D01*
X007656Y004316D01*
X007656Y004533D01*
X007777Y004533D02*
X007907Y004533D01*
X007951Y004489D01*
X007951Y004403D01*
X007907Y004359D01*
X007777Y004359D01*
X007777Y004273D02*
X007777Y004533D01*
X005724Y010104D02*
X005109Y010104D01*
D14*
X005073Y010367D02*
X005000Y010367D01*
X004963Y010403D01*
X004889Y010367D02*
X004889Y010587D01*
X004963Y010550D02*
X005000Y010587D01*
X005073Y010587D01*
X005110Y010550D01*
X005110Y010514D01*
X005073Y010477D01*
X005110Y010440D01*
X005110Y010403D01*
X005073Y010367D01*
X005073Y010477D02*
X005037Y010477D01*
X004889Y010367D02*
X004742Y010587D01*
X004742Y010367D01*
X004668Y010367D02*
X004595Y010440D01*
X004632Y010440D02*
X004521Y010440D01*
X004521Y010367D02*
X004521Y010587D01*
X004632Y010587D01*
X004668Y010550D01*
X004668Y010477D01*
X004632Y010440D01*
X005739Y009282D02*
X005886Y009282D01*
X005812Y009282D02*
X005812Y009061D01*
X005960Y009061D02*
X006107Y009061D01*
X006033Y009061D02*
X006033Y009282D01*
X005960Y009208D01*
X004876Y007934D02*
X004803Y007934D01*
X004766Y007897D01*
X004692Y007934D02*
X004545Y007934D01*
X004619Y007934D02*
X004619Y007714D01*
X004766Y007714D02*
X004913Y007861D01*
X004913Y007897D01*
X004876Y007934D01*
X004913Y007714D02*
X004766Y007714D01*
X004932Y007087D02*
X005042Y007087D01*
X005079Y007051D01*
X005079Y006977D01*
X005042Y006941D01*
X004932Y006941D01*
X005005Y006941D02*
X005079Y006867D01*
X005153Y006904D02*
X005190Y006867D01*
X005263Y006867D01*
X005300Y006904D01*
X005300Y006941D01*
X005263Y006977D01*
X005226Y006977D01*
X005263Y006977D02*
X005300Y007014D01*
X005300Y007051D01*
X005263Y007087D01*
X005190Y007087D01*
X005153Y007051D01*
X004932Y007087D02*
X004932Y006867D01*
X005344Y006584D02*
X005454Y006584D01*
X005491Y006547D01*
X005491Y006473D01*
X005454Y006437D01*
X005344Y006437D01*
X005344Y006363D02*
X005344Y006584D01*
X005418Y006437D02*
X005491Y006363D01*
X005565Y006400D02*
X005602Y006363D01*
X005675Y006363D01*
X005712Y006400D01*
X005712Y006473D01*
X005675Y006510D01*
X005639Y006510D01*
X005565Y006473D01*
X005565Y006584D01*
X005712Y006584D01*
X005946Y005738D02*
X006019Y005738D01*
X005983Y005738D02*
X005983Y005518D01*
X006019Y005518D02*
X005946Y005518D01*
X006093Y005555D02*
X006130Y005518D01*
X006203Y005518D01*
X006240Y005555D01*
X006314Y005518D02*
X006461Y005518D01*
X006388Y005518D02*
X006388Y005738D01*
X006314Y005665D01*
X006240Y005702D02*
X006203Y005738D01*
X006130Y005738D01*
X006093Y005702D01*
X006093Y005555D01*
X007030Y005407D02*
X007030Y005187D01*
X007030Y005260D02*
X007140Y005260D01*
X007177Y005297D01*
X007177Y005370D01*
X007140Y005407D01*
X007030Y005407D01*
X007104Y005260D02*
X007177Y005187D01*
X007251Y005187D02*
X007251Y005407D01*
X007398Y005187D01*
X007398Y005407D01*
X007472Y005333D02*
X007545Y005407D01*
X007545Y005187D01*
X007472Y005187D02*
X007619Y005187D01*
X008251Y004529D02*
X008251Y004477D01*
X008303Y004425D01*
X008355Y004425D01*
X008381Y004451D01*
X008381Y004503D01*
X008329Y004555D01*
X008329Y004607D01*
X008355Y004632D01*
X008407Y004632D01*
X008459Y004581D01*
X008459Y004529D01*
X008485Y004450D02*
X008589Y004450D01*
X008433Y004295D01*
X008382Y004346D02*
X008485Y004243D01*
X009403Y006469D02*
X009403Y006689D01*
X009513Y006689D01*
X009550Y006653D01*
X009550Y006579D01*
X009513Y006542D01*
X009403Y006542D01*
X009477Y006542D02*
X009550Y006469D01*
X009624Y006469D02*
X009624Y006689D01*
X009771Y006469D01*
X009771Y006689D01*
X009845Y006653D02*
X009882Y006689D01*
X009955Y006689D01*
X009992Y006653D01*
X009992Y006616D01*
X009845Y006469D01*
X009992Y006469D01*
X010012Y009139D02*
X010085Y009139D01*
X010122Y009176D01*
X010196Y009249D02*
X010343Y009249D01*
X010306Y009139D02*
X010306Y009359D01*
X010196Y009249D01*
X010122Y009323D02*
X010085Y009359D01*
X010012Y009359D01*
X009975Y009323D01*
X009975Y009176D01*
X010012Y009139D01*
X009901Y009139D02*
X009828Y009139D01*
X009864Y009139D02*
X009864Y009359D01*
X009828Y009359D02*
X009901Y009359D01*
X004573Y006255D02*
X004573Y006035D01*
X004610Y006145D02*
X004463Y006145D01*
X004573Y006255D01*
X004389Y006035D02*
X004242Y006035D01*
X004315Y006035D02*
X004315Y006255D01*
X004242Y006181D01*
X004168Y006218D02*
X004131Y006255D01*
X004058Y006255D01*
X004021Y006218D01*
X004021Y006071D01*
X004058Y006035D01*
X004131Y006035D01*
X004168Y006071D01*
X004182Y005591D02*
X004035Y005591D01*
X004035Y005481D01*
X004109Y005518D01*
X004146Y005518D01*
X004182Y005481D01*
X004182Y005408D01*
X004146Y005371D01*
X004072Y005371D01*
X004035Y005408D01*
X003961Y005371D02*
X003814Y005371D01*
X003888Y005371D02*
X003888Y005591D01*
X003814Y005518D01*
X003740Y005555D02*
X003704Y005591D01*
X003630Y005591D01*
X003593Y005555D01*
X003593Y005408D01*
X003630Y005371D01*
X003704Y005371D01*
X003740Y005408D01*
X003812Y003859D02*
X003775Y003822D01*
X003812Y003859D02*
X003885Y003859D01*
X003922Y003822D01*
X003922Y003786D01*
X003775Y003639D01*
X003922Y003639D01*
X003701Y003675D02*
X003664Y003639D01*
X003591Y003639D01*
X003554Y003675D01*
X003554Y003822D01*
X003591Y003859D01*
X003664Y003859D01*
X003701Y003822D01*
X002861Y003405D02*
X002861Y003185D01*
X002897Y003295D02*
X002751Y003295D01*
X002861Y003405D01*
X002676Y003405D02*
X002530Y003405D01*
X002603Y003405D02*
X002603Y003185D01*
X002612Y002708D02*
X002576Y002671D01*
X002612Y002708D02*
X002686Y002708D01*
X002723Y002671D01*
X002723Y002635D01*
X002576Y002488D01*
X002723Y002488D01*
X002502Y002524D02*
X002502Y002671D01*
X002465Y002708D01*
X002355Y002708D01*
X002355Y002488D01*
X002465Y002488D01*
X002502Y002524D01*
X002490Y002145D02*
X002637Y002145D01*
X002564Y002145D02*
X002564Y001925D01*
X002711Y001962D02*
X002748Y001925D01*
X002821Y001925D01*
X002858Y001962D01*
X002858Y001998D01*
X002821Y002035D01*
X002785Y002035D01*
X002821Y002035D02*
X002858Y002072D01*
X002858Y002108D01*
X002821Y002145D01*
X002748Y002145D01*
X002711Y002108D01*
X001584Y004151D02*
X001437Y004151D01*
X001584Y004297D01*
X001584Y004334D01*
X001547Y004371D01*
X001474Y004371D01*
X001437Y004334D01*
X001289Y004371D02*
X001289Y004151D01*
X001216Y004151D02*
X001363Y004151D01*
X001216Y004297D02*
X001289Y004371D01*
X001142Y004334D02*
X001142Y004261D01*
X001105Y004224D01*
X000995Y004224D01*
X000995Y004151D02*
X000995Y004371D01*
X001105Y004371D01*
X001142Y004334D01*
X001068Y004224D02*
X001142Y004151D01*
X001106Y004785D02*
X001033Y004785D01*
X000996Y004822D01*
X001033Y004895D02*
X000996Y004932D01*
X000996Y004969D01*
X001033Y005006D01*
X001106Y005006D01*
X001143Y004969D01*
X001106Y004895D02*
X001143Y004859D01*
X001143Y004822D01*
X001106Y004785D01*
X001106Y004895D02*
X001033Y004895D01*
X001217Y004822D02*
X001254Y004785D01*
X001290Y004785D01*
X001327Y004822D01*
X001327Y005006D01*
X001290Y005006D02*
X001364Y005006D01*
X001438Y004932D02*
X001511Y005006D01*
X001511Y004785D01*
X001438Y004785D02*
X001585Y004785D01*
X001622Y006448D02*
X001586Y006485D01*
X001586Y006631D01*
X001622Y006668D01*
X001696Y006668D01*
X001732Y006631D01*
X001807Y006595D02*
X001880Y006668D01*
X001880Y006448D01*
X001807Y006448D02*
X001953Y006448D01*
X002028Y006485D02*
X002064Y006448D01*
X002138Y006448D01*
X002174Y006485D01*
X002174Y006521D01*
X002138Y006558D01*
X002101Y006558D01*
X002138Y006558D02*
X002174Y006595D01*
X002174Y006631D01*
X002138Y006668D01*
X002064Y006668D01*
X002028Y006631D01*
X001732Y006485D02*
X001696Y006448D01*
X001622Y006448D01*
X002464Y007288D02*
X002537Y007288D01*
X002500Y007288D02*
X002500Y007509D01*
X002464Y007509D02*
X002537Y007509D01*
X002611Y007472D02*
X002611Y007325D01*
X002648Y007288D01*
X002721Y007288D01*
X002758Y007325D01*
X002832Y007325D02*
X002869Y007288D01*
X002942Y007288D01*
X002979Y007325D01*
X002979Y007398D01*
X002942Y007435D01*
X002905Y007435D01*
X002832Y007398D01*
X002832Y007509D01*
X002979Y007509D01*
X002758Y007472D02*
X002721Y007509D01*
X002648Y007509D01*
X002611Y007472D01*
X003036Y009051D02*
X003036Y009271D01*
X002963Y009271D02*
X003110Y009271D01*
X003184Y009271D02*
X003184Y009161D01*
X003257Y009198D01*
X003294Y009198D01*
X003331Y009161D01*
X003331Y009088D01*
X003294Y009051D01*
X003220Y009051D01*
X003184Y009088D01*
X003184Y009271D02*
X003331Y009271D01*
X002890Y009396D02*
X002854Y009359D01*
X002707Y009359D01*
X002670Y009396D01*
X002670Y009469D01*
X002707Y009506D01*
X002744Y009580D02*
X002670Y009654D01*
X002890Y009654D01*
X002890Y009727D02*
X002890Y009580D01*
X002854Y009506D02*
X002890Y009469D01*
X002890Y009396D01*
X002890Y009801D02*
X002744Y009948D01*
X002707Y009948D01*
X002670Y009911D01*
X002670Y009838D01*
X002707Y009801D01*
X002890Y009801D02*
X002890Y009948D01*
X002252Y009274D02*
X002252Y009237D01*
X002216Y009200D01*
X002252Y009164D01*
X002252Y009127D01*
X002216Y009090D01*
X002142Y009090D01*
X002106Y009127D01*
X002031Y009127D02*
X001995Y009090D01*
X001921Y009090D01*
X001885Y009127D01*
X001810Y009127D02*
X001774Y009090D01*
X001700Y009090D01*
X001664Y009127D01*
X001664Y009311D01*
X001810Y009311D02*
X001810Y009127D01*
X001885Y009237D02*
X001885Y009274D01*
X001921Y009311D01*
X001995Y009311D01*
X002031Y009274D01*
X002106Y009274D02*
X002142Y009311D01*
X002216Y009311D01*
X002252Y009274D01*
X002216Y009200D02*
X002179Y009200D01*
X002031Y009164D02*
X001995Y009200D01*
X001921Y009200D01*
X001885Y009237D01*
X001958Y009347D02*
X001958Y009054D01*
X002031Y009127D02*
X002031Y009164D01*
X001329Y009438D02*
X001109Y009438D01*
X001109Y009548D01*
X001146Y009585D01*
X001219Y009585D01*
X001256Y009548D01*
X001256Y009438D01*
X001256Y009511D02*
X001329Y009585D01*
X001329Y009659D02*
X001329Y009806D01*
X001329Y009732D02*
X001109Y009732D01*
X001183Y009659D01*
X001219Y009880D02*
X001109Y009880D01*
X001109Y010027D01*
X001183Y009990D02*
X001219Y010027D01*
X001293Y010027D01*
X001329Y009990D01*
X001329Y009917D01*
X001293Y009880D01*
X001219Y009880D02*
X001183Y009953D01*
X001183Y009990D01*
X005266Y002830D02*
X005376Y002830D01*
X005412Y002793D01*
X005412Y002720D01*
X005376Y002683D01*
X005266Y002683D01*
X005339Y002683D02*
X005412Y002609D01*
X005487Y002609D02*
X005487Y002646D01*
X005633Y002793D01*
X005633Y002830D01*
X005487Y002830D01*
X005266Y002830D02*
X005266Y002609D01*
X005142Y001944D02*
X005069Y001907D01*
X004996Y001834D01*
X005106Y001834D01*
X005142Y001797D01*
X005142Y001760D01*
X005106Y001723D01*
X005032Y001723D01*
X004996Y001760D01*
X004996Y001834D01*
X004921Y001834D02*
X004885Y001797D01*
X004775Y001797D01*
X004848Y001797D02*
X004921Y001723D01*
X004921Y001834D02*
X004921Y001907D01*
X004885Y001944D01*
X004775Y001944D01*
X004775Y001723D01*
D15*
X003459Y003969D02*
X002948Y003969D01*
X002948Y004757D01*
X003046Y004757D01*
X003046Y004639D01*
X002967Y004639D01*
X003046Y004757D02*
X003459Y004757D01*
X003459Y003969D01*
X002312Y002876D02*
X001812Y002876D01*
X001812Y001804D01*
X002312Y001804D01*
X002312Y002876D01*
X002062Y002589D02*
X001874Y002214D01*
X002249Y002214D01*
X002062Y002589D01*
X004483Y008143D02*
X004483Y012709D01*
X010192Y012709D01*
X010192Y008143D01*
X004483Y008143D01*
D16*
X005613Y009091D03*
X003050Y008174D03*
X001751Y008213D03*
X005731Y004446D03*
X002959Y003375D03*
X002959Y002154D03*
D17*
X009468Y008615D03*
D18*
X009404Y006351D02*
X009995Y006351D01*
X008971Y005643D02*
X008971Y005052D01*
X009404Y005131D02*
X009995Y005131D01*
X007751Y005052D02*
X007751Y005643D01*
X004522Y009540D02*
X004522Y010131D01*
X003302Y010131D02*
X003302Y009540D01*
D19*
X002062Y002614D03*
M02*
