G75*
G70*
%OFA0B0*%
%FSLAX24Y24*%
%IPPOS*%
%LPD*%
%AMOC8*
5,1,8,0,0,1.08239X$1,22.5*
%
%ADD10C,0.0000*%
%ADD11R,0.0728X0.0433*%
%ADD12R,0.0748X0.0787*%
%ADD13C,0.0669*%
%ADD14R,0.0276X0.0394*%
%ADD15R,0.0394X0.0420*%
%ADD16R,0.0591X0.0433*%
%ADD17R,0.0315X0.0394*%
%ADD18R,0.0394X0.0551*%
%ADD19R,0.0420X0.0394*%
%ADD20R,0.0433X0.0591*%
%ADD21R,0.0236X0.0157*%
%ADD22R,0.0394X0.0276*%
%ADD23R,0.0157X0.0591*%
%ADD24R,0.0394X0.0315*%
%ADD25R,0.0551X0.0394*%
%ADD26R,0.0197X0.0354*%
%ADD27R,0.0354X0.0197*%
%ADD28C,0.0315*%
%ADD29R,0.0670X0.0550*%
%ADD30R,0.0630X0.0460*%
%ADD31C,0.0079*%
%ADD32C,0.0276*%
%ADD33C,0.0063*%
%ADD34C,0.0394*%
%ADD35C,0.0118*%
%ADD36C,0.0236*%
%ADD37C,0.0071*%
D10*
X000841Y000938D02*
X000841Y010780D01*
X010684Y010780D01*
X010684Y000938D01*
X000841Y000938D01*
X006995Y002377D02*
X006997Y002405D01*
X007003Y002433D01*
X007012Y002459D01*
X007025Y002485D01*
X007041Y002508D01*
X007061Y002528D01*
X007083Y002546D01*
X007107Y002561D01*
X007133Y002572D01*
X007160Y002580D01*
X007188Y002584D01*
X007216Y002584D01*
X007244Y002580D01*
X007271Y002572D01*
X007297Y002561D01*
X007321Y002546D01*
X007343Y002528D01*
X007363Y002508D01*
X007379Y002485D01*
X007392Y002459D01*
X007401Y002433D01*
X007407Y002405D01*
X007409Y002377D01*
X007407Y002349D01*
X007401Y002321D01*
X007392Y002295D01*
X007379Y002269D01*
X007363Y002246D01*
X007343Y002226D01*
X007321Y002208D01*
X007297Y002193D01*
X007271Y002182D01*
X007244Y002174D01*
X007216Y002170D01*
X007188Y002170D01*
X007160Y002174D01*
X007133Y002182D01*
X007107Y002193D01*
X007083Y002208D01*
X007061Y002226D01*
X007041Y002246D01*
X007025Y002269D01*
X007012Y002295D01*
X007003Y002321D01*
X006997Y002349D01*
X006995Y002377D01*
X008112Y003435D02*
X008114Y003459D01*
X008120Y003482D01*
X008129Y003504D01*
X008142Y003524D01*
X008157Y003542D01*
X008176Y003557D01*
X008197Y003569D01*
X008219Y003577D01*
X008242Y003582D01*
X008266Y003583D01*
X008290Y003580D01*
X008312Y003573D01*
X008334Y003563D01*
X008354Y003550D01*
X008371Y003533D01*
X008385Y003514D01*
X008396Y003493D01*
X008404Y003470D01*
X008408Y003447D01*
X008408Y003423D01*
X008404Y003400D01*
X008396Y003377D01*
X008385Y003356D01*
X008371Y003337D01*
X008354Y003320D01*
X008334Y003307D01*
X008312Y003297D01*
X008290Y003290D01*
X008266Y003287D01*
X008242Y003288D01*
X008219Y003293D01*
X008197Y003301D01*
X008176Y003313D01*
X008157Y003328D01*
X008142Y003346D01*
X008129Y003366D01*
X008120Y003388D01*
X008114Y003411D01*
X008112Y003435D01*
D11*
G36*
X007299Y003812D02*
X006785Y004326D01*
X007091Y004632D01*
X007605Y004118D01*
X007299Y003812D01*
G37*
G36*
X006909Y003422D02*
X006395Y003936D01*
X006701Y004242D01*
X007215Y003728D01*
X006909Y003422D01*
G37*
G36*
X006520Y003032D02*
X006006Y003546D01*
X006312Y003852D01*
X006826Y003338D01*
X006520Y003032D01*
G37*
G36*
X008371Y001181D02*
X007857Y001695D01*
X008163Y002001D01*
X008677Y001487D01*
X008371Y001181D01*
G37*
G36*
X008761Y001571D02*
X008247Y002085D01*
X008553Y002391D01*
X009067Y001877D01*
X008761Y001571D01*
G37*
G36*
X009150Y001960D02*
X008636Y002474D01*
X008942Y002780D01*
X009456Y002266D01*
X009150Y001960D01*
G37*
D12*
G36*
X008868Y003514D02*
X008339Y004043D01*
X008894Y004598D01*
X009423Y004069D01*
X008868Y003514D01*
G37*
G36*
X006568Y001215D02*
X006039Y001744D01*
X006594Y002299D01*
X007123Y001770D01*
X006568Y001215D01*
G37*
D13*
X005339Y001410D03*
X005339Y003694D03*
X001304Y003694D03*
X001304Y001410D03*
D14*
X001830Y007958D03*
X002204Y007958D03*
X002578Y007958D03*
X002578Y008863D03*
X001830Y008863D03*
D15*
X001589Y009422D03*
X001589Y010091D03*
X006235Y007335D03*
X006235Y006666D03*
X004188Y004658D03*
X004188Y003989D03*
X001274Y002729D03*
X001274Y002060D03*
D16*
X004463Y002099D03*
X004463Y001272D03*
X004385Y006627D03*
X004385Y007454D03*
X002337Y009540D03*
X002337Y010367D03*
D17*
X003129Y008824D03*
X003877Y008824D03*
X003503Y007918D03*
D18*
X003204Y007276D03*
X003578Y006410D03*
X002830Y006410D03*
D19*
X002633Y005623D03*
X003302Y005623D03*
X005034Y007355D03*
X005704Y007355D03*
D20*
X002239Y007040D03*
X001412Y007040D03*
X004168Y002788D03*
X004995Y002788D03*
D21*
X003637Y004107D03*
X003637Y004363D03*
X003637Y004619D03*
X002770Y004619D03*
X002770Y004363D03*
X002770Y004107D03*
D22*
X005081Y004524D03*
X005081Y005272D03*
X005987Y005272D03*
X005987Y004898D03*
X005987Y004524D03*
D23*
X006973Y007188D03*
X007229Y007188D03*
X007485Y007188D03*
X007741Y007188D03*
X007997Y007188D03*
X008253Y007188D03*
X008509Y007188D03*
X008765Y007188D03*
X009020Y007188D03*
X009276Y007188D03*
X009276Y010042D03*
X009020Y010042D03*
X008765Y010042D03*
X008509Y010042D03*
X008253Y010042D03*
X007997Y010042D03*
X007741Y010042D03*
X007485Y010042D03*
X007229Y010042D03*
X006973Y010042D03*
D24*
X005869Y009544D03*
X004963Y009170D03*
X004963Y009918D03*
X003609Y003296D03*
X003609Y002548D03*
X003609Y002076D03*
X003609Y001328D03*
X002704Y001702D03*
X002704Y002922D03*
D25*
X005802Y007926D03*
X005802Y008674D03*
X004936Y008300D03*
D26*
X004385Y009521D03*
X004070Y009521D03*
X003755Y009521D03*
X003440Y009521D03*
X003440Y010150D03*
X003755Y010150D03*
X004070Y010150D03*
X004385Y010150D03*
X007889Y005662D03*
X008204Y005662D03*
X008519Y005662D03*
X008833Y005662D03*
X008833Y005032D03*
X008519Y005032D03*
X008204Y005032D03*
X007889Y005032D03*
D27*
X009385Y005269D03*
X009385Y005584D03*
X009385Y005898D03*
X009385Y006213D03*
X010015Y006213D03*
X010015Y005898D03*
X010015Y005584D03*
X010015Y005269D03*
D28*
X003558Y005879D02*
X003302Y005623D01*
X003558Y005879D02*
X003558Y006135D01*
X003578Y006233D01*
X003578Y006371D01*
X001491Y005830D02*
X001176Y005830D01*
X001176Y005337D02*
X001491Y005337D01*
D29*
X002062Y003151D03*
X002062Y001526D03*
D30*
X002141Y004457D03*
X002141Y005057D03*
D31*
X002180Y005032D02*
X003203Y005032D01*
X003280Y005109D02*
X002595Y005109D01*
X002595Y005096D02*
X002180Y005096D01*
X002180Y005017D01*
X002595Y005017D01*
X002595Y004875D01*
X003046Y004875D01*
X003479Y005308D01*
X003043Y005308D01*
X002974Y005377D01*
X002974Y005377D01*
X002973Y005372D01*
X002954Y005340D01*
X002928Y005315D01*
X002896Y005296D01*
X002861Y005287D01*
X002672Y005287D01*
X002672Y005584D01*
X002593Y005584D01*
X002283Y005584D01*
X002283Y005426D01*
X002180Y005426D01*
X002180Y005096D01*
X002101Y005096D01*
X002101Y005017D01*
X001686Y005017D01*
X001686Y004875D01*
X000981Y004875D01*
X000981Y005113D01*
X000987Y005107D01*
X001035Y005074D01*
X001089Y005052D01*
X001147Y005041D01*
X001324Y005041D01*
X001324Y005328D01*
X001343Y005328D01*
X001343Y005041D01*
X001520Y005041D01*
X001578Y005052D01*
X001632Y005074D01*
X001680Y005107D01*
X001686Y005113D01*
X001686Y005096D01*
X002101Y005096D01*
X002101Y005426D01*
X001807Y005426D01*
X001778Y005418D01*
X001776Y005424D01*
X001754Y005478D01*
X001722Y005527D01*
X001680Y005568D01*
X001642Y005594D01*
X001647Y005596D01*
X001725Y005673D01*
X001740Y005711D01*
X002475Y006446D01*
X002475Y006627D01*
X002493Y006627D01*
X002493Y006450D01*
X002790Y006450D01*
X002790Y006824D01*
X002821Y006824D01*
X002915Y006863D01*
X002947Y006894D01*
X002958Y006883D01*
X003449Y006883D01*
X003508Y006942D01*
X003787Y006942D01*
X003854Y006937D01*
X003860Y006942D01*
X003867Y006942D01*
X003915Y006989D01*
X004066Y007119D01*
X004706Y007119D01*
X004706Y007109D01*
X004775Y007040D01*
X005293Y007040D01*
X005362Y007109D01*
X005362Y007504D01*
X005375Y007491D01*
X005375Y007109D01*
X005445Y007040D01*
X005956Y007040D01*
X005989Y007007D01*
X005989Y007007D01*
X005984Y007006D01*
X005953Y006988D01*
X005927Y006962D01*
X005908Y006930D01*
X005899Y006895D01*
X005899Y006706D01*
X006196Y006706D01*
X006196Y006627D01*
X006274Y006627D01*
X006274Y006317D01*
X006450Y006317D01*
X006486Y006326D01*
X006517Y006345D01*
X006543Y006371D01*
X006562Y006402D01*
X006571Y006438D01*
X006571Y006627D01*
X006274Y006627D01*
X006274Y006706D01*
X006571Y006706D01*
X006571Y006895D01*
X006562Y006930D01*
X006543Y006962D01*
X006517Y006988D01*
X006486Y007006D01*
X006481Y007007D01*
X006530Y007057D01*
X006617Y007021D01*
X006719Y007021D01*
X006776Y007044D01*
X006776Y006844D01*
X006846Y006774D01*
X007101Y006774D01*
X007101Y006775D01*
X007101Y006774D01*
X007357Y006774D01*
X007357Y006775D01*
X007357Y006774D01*
X007411Y006774D01*
X006646Y006009D01*
X005476Y006009D01*
X005507Y006084D01*
X005507Y006186D01*
X005468Y006280D01*
X005396Y006352D01*
X005302Y006391D01*
X005200Y006391D01*
X005106Y006352D01*
X005034Y006280D01*
X005015Y006233D01*
X003957Y006233D01*
X003893Y006169D01*
X003893Y006735D01*
X003823Y006804D01*
X003332Y006804D01*
X003263Y006735D01*
X003263Y006086D01*
X003282Y006066D01*
X003282Y005993D01*
X003227Y005938D01*
X003043Y005938D01*
X002974Y005869D01*
X002974Y005869D01*
X002973Y005874D01*
X002954Y005905D01*
X002928Y005931D01*
X002896Y005950D01*
X002861Y005959D01*
X002672Y005959D01*
X002672Y005662D01*
X002593Y005662D01*
X002593Y005584D01*
X002593Y005311D01*
X002595Y005305D01*
X002595Y005096D01*
X002595Y005186D02*
X003357Y005186D01*
X003435Y005263D02*
X002595Y005263D01*
X002593Y005341D02*
X002672Y005341D01*
X002672Y005418D02*
X002593Y005418D01*
X002593Y005495D02*
X002672Y005495D01*
X002672Y005572D02*
X002593Y005572D01*
X002593Y005650D02*
X001701Y005650D01*
X001674Y005572D02*
X002283Y005572D01*
X002283Y005495D02*
X001743Y005495D01*
X001756Y005727D02*
X002283Y005727D01*
X002283Y005662D02*
X002593Y005662D01*
X002593Y005959D01*
X002404Y005959D01*
X002369Y005950D01*
X002337Y005931D01*
X002311Y005905D01*
X002293Y005874D01*
X002283Y005838D01*
X002283Y005662D01*
X002283Y005804D02*
X001833Y005804D01*
X001910Y005881D02*
X002297Y005881D01*
X002402Y005958D02*
X001987Y005958D01*
X002065Y006036D02*
X002535Y006036D01*
X002547Y006023D02*
X002521Y006049D01*
X002503Y006081D01*
X002493Y006116D01*
X002493Y006371D01*
X002790Y006371D01*
X002790Y006450D01*
X002869Y006450D01*
X002869Y006825D01*
X003045Y006825D01*
X003080Y006816D01*
X003112Y006797D01*
X003138Y006771D01*
X003156Y006740D01*
X003166Y006704D01*
X003166Y006450D01*
X002869Y006450D01*
X002869Y006371D01*
X003166Y006371D01*
X003166Y006116D01*
X003156Y006081D01*
X003138Y006049D01*
X003112Y006023D01*
X003080Y006005D01*
X003045Y005995D01*
X002869Y005995D01*
X002869Y006371D01*
X002790Y006371D01*
X002790Y005995D01*
X002614Y005995D01*
X002579Y006005D01*
X002547Y006023D01*
X002593Y005958D02*
X002672Y005958D01*
X002672Y005881D02*
X002593Y005881D01*
X002593Y005804D02*
X002672Y005804D01*
X002672Y005727D02*
X002593Y005727D01*
X002863Y005958D02*
X003248Y005958D01*
X003282Y006036D02*
X003124Y006036D01*
X003165Y006113D02*
X003263Y006113D01*
X003263Y006190D02*
X003166Y006190D01*
X003166Y006267D02*
X003263Y006267D01*
X003263Y006345D02*
X003166Y006345D01*
X003263Y006422D02*
X002869Y006422D01*
X002869Y006499D02*
X002790Y006499D01*
X002790Y006422D02*
X002451Y006422D01*
X002475Y006499D02*
X002493Y006499D01*
X002493Y006576D02*
X002475Y006576D01*
X002493Y006345D02*
X002374Y006345D01*
X002296Y006267D02*
X002493Y006267D01*
X002493Y006190D02*
X002219Y006190D01*
X002142Y006113D02*
X002494Y006113D01*
X002790Y006113D02*
X002869Y006113D01*
X002869Y006190D02*
X002790Y006190D01*
X002790Y006267D02*
X002869Y006267D01*
X002869Y006345D02*
X002790Y006345D01*
X002790Y006576D02*
X002869Y006576D01*
X002869Y006654D02*
X002790Y006654D01*
X002790Y006731D02*
X002869Y006731D01*
X002869Y006808D02*
X002790Y006808D01*
X002938Y006885D02*
X002955Y006885D01*
X003093Y006808D02*
X003950Y006808D01*
X003950Y006862D02*
X003950Y006666D01*
X004345Y006666D01*
X004345Y006587D01*
X004424Y006587D01*
X004424Y006271D01*
X004698Y006271D01*
X004734Y006280D01*
X004765Y006299D01*
X004791Y006325D01*
X004810Y006356D01*
X004819Y006392D01*
X004819Y006587D01*
X004424Y006587D01*
X004424Y006666D01*
X004819Y006666D01*
X004819Y006862D01*
X004810Y006897D01*
X004791Y006929D01*
X004765Y006955D01*
X004734Y006973D01*
X004698Y006983D01*
X004424Y006983D01*
X004424Y006666D01*
X004345Y006666D01*
X004345Y006983D01*
X004071Y006983D01*
X004036Y006973D01*
X004004Y006955D01*
X003978Y006929D01*
X003959Y006897D01*
X003950Y006862D01*
X003956Y006885D02*
X003452Y006885D01*
X003263Y006731D02*
X003159Y006731D01*
X003166Y006654D02*
X003263Y006654D01*
X003263Y006576D02*
X003166Y006576D01*
X003166Y006499D02*
X003263Y006499D01*
X002869Y006036D02*
X002790Y006036D01*
X002968Y005881D02*
X002986Y005881D01*
X002954Y005341D02*
X003010Y005341D01*
X003126Y004954D02*
X002595Y004954D01*
X002595Y004877D02*
X003048Y004877D01*
X002180Y005109D02*
X002101Y005109D01*
X002101Y005186D02*
X002180Y005186D01*
X002180Y005263D02*
X002101Y005263D01*
X002101Y005341D02*
X002180Y005341D01*
X002180Y005418D02*
X002101Y005418D01*
X002101Y005032D02*
X000981Y005032D01*
X000981Y005109D02*
X000985Y005109D01*
X000981Y004954D02*
X001686Y004954D01*
X001686Y004877D02*
X000981Y004877D01*
X001324Y005109D02*
X001343Y005109D01*
X001343Y005186D02*
X001324Y005186D01*
X001324Y005263D02*
X001343Y005263D01*
X001682Y005109D02*
X001686Y005109D01*
X000981Y006024D02*
X000981Y010641D01*
X001914Y010641D01*
X001912Y010637D01*
X001903Y010602D01*
X001903Y010406D01*
X002298Y010406D01*
X002298Y010328D01*
X001923Y010328D01*
X001916Y010355D01*
X001898Y010387D01*
X001872Y010413D01*
X001840Y010431D01*
X001805Y010441D01*
X001629Y010441D01*
X001629Y010131D01*
X001550Y010131D01*
X001550Y010441D01*
X001374Y010441D01*
X001339Y010431D01*
X001307Y010413D01*
X001281Y010387D01*
X001263Y010355D01*
X001253Y010320D01*
X001253Y010131D01*
X001550Y010131D01*
X001550Y010052D01*
X001253Y010052D01*
X001253Y009868D01*
X001212Y009828D01*
X001125Y009740D01*
X001125Y009104D01*
X001361Y008868D01*
X001361Y008041D01*
X001479Y007923D01*
X001567Y007835D01*
X001574Y007835D01*
X001574Y007712D01*
X001643Y007643D01*
X001992Y007643D01*
X002012Y007631D01*
X002047Y007621D01*
X002174Y007621D01*
X002174Y007928D01*
X002233Y007928D01*
X002233Y007621D01*
X002341Y007621D01*
X002341Y007477D01*
X002318Y007454D01*
X001974Y007454D01*
X001904Y007384D01*
X001904Y006696D01*
X001974Y006627D01*
X001988Y006627D01*
X001466Y006105D01*
X001121Y006105D01*
X001020Y006063D01*
X000981Y006024D01*
X000981Y006036D02*
X000992Y006036D01*
X000981Y006113D02*
X001474Y006113D01*
X001551Y006190D02*
X000981Y006190D01*
X000981Y006267D02*
X001628Y006267D01*
X001705Y006345D02*
X000981Y006345D01*
X000981Y006422D02*
X001783Y006422D01*
X001860Y006499D02*
X000981Y006499D01*
X000981Y006576D02*
X001937Y006576D01*
X001947Y006654D02*
X001735Y006654D01*
X001740Y006659D02*
X001759Y006691D01*
X001768Y006727D01*
X001768Y007001D01*
X001452Y007001D01*
X001452Y007080D01*
X001768Y007080D01*
X001768Y007354D01*
X001759Y007389D01*
X001740Y007421D01*
X001714Y007447D01*
X001683Y007465D01*
X001647Y007475D01*
X001452Y007475D01*
X001452Y007080D01*
X001373Y007080D01*
X001373Y007475D01*
X001177Y007475D01*
X001142Y007465D01*
X001110Y007447D01*
X001084Y007421D01*
X001066Y007389D01*
X001056Y007354D01*
X001056Y007080D01*
X001373Y007080D01*
X001373Y007001D01*
X001452Y007001D01*
X001452Y006606D01*
X001647Y006606D01*
X001683Y006615D01*
X001714Y006633D01*
X001740Y006659D01*
X001768Y006731D02*
X001904Y006731D01*
X001904Y006808D02*
X001768Y006808D01*
X001768Y006885D02*
X001904Y006885D01*
X001904Y006963D02*
X001768Y006963D01*
X001768Y007117D02*
X001904Y007117D01*
X001904Y007040D02*
X001452Y007040D01*
X001452Y007117D02*
X001373Y007117D01*
X001373Y007040D02*
X000981Y007040D01*
X000981Y007117D02*
X001056Y007117D01*
X001056Y007194D02*
X000981Y007194D01*
X000981Y007272D02*
X001056Y007272D01*
X001056Y007349D02*
X000981Y007349D01*
X000981Y007426D02*
X001089Y007426D01*
X000981Y007503D02*
X002341Y007503D01*
X002341Y007581D02*
X000981Y007581D01*
X000981Y007658D02*
X001628Y007658D01*
X001574Y007735D02*
X000981Y007735D01*
X000981Y007812D02*
X001574Y007812D01*
X001513Y007889D02*
X000981Y007889D01*
X000981Y007967D02*
X001436Y007967D01*
X001361Y008044D02*
X000981Y008044D01*
X000981Y008121D02*
X001361Y008121D01*
X001361Y008198D02*
X000981Y008198D01*
X000981Y008276D02*
X001361Y008276D01*
X001361Y008353D02*
X000981Y008353D01*
X000981Y008430D02*
X001361Y008430D01*
X001361Y008507D02*
X000981Y008507D01*
X000981Y008585D02*
X001361Y008585D01*
X001361Y008662D02*
X000981Y008662D01*
X000981Y008739D02*
X001361Y008739D01*
X001361Y008816D02*
X000981Y008816D01*
X000981Y008894D02*
X001335Y008894D01*
X001258Y008971D02*
X000981Y008971D01*
X000981Y009048D02*
X001181Y009048D01*
X001125Y009125D02*
X000981Y009125D01*
X000981Y009203D02*
X001125Y009203D01*
X001125Y009280D02*
X000981Y009280D01*
X000981Y009357D02*
X001125Y009357D01*
X001125Y009434D02*
X000981Y009434D01*
X000981Y009512D02*
X001125Y009512D01*
X001125Y009589D02*
X000981Y009589D01*
X000981Y009666D02*
X001125Y009666D01*
X001128Y009743D02*
X000981Y009743D01*
X000981Y009820D02*
X001205Y009820D01*
X001253Y009898D02*
X000981Y009898D01*
X000981Y009975D02*
X001253Y009975D01*
X001253Y010207D02*
X000981Y010207D01*
X000981Y010284D02*
X001253Y010284D01*
X001266Y010361D02*
X000981Y010361D01*
X000981Y010438D02*
X001365Y010438D01*
X001550Y010438D02*
X001629Y010438D01*
X001629Y010361D02*
X001550Y010361D01*
X001550Y010284D02*
X001629Y010284D01*
X001629Y010207D02*
X001550Y010207D01*
X001550Y010129D02*
X000981Y010129D01*
X000981Y010052D02*
X001550Y010052D01*
X001629Y010052D02*
X001909Y010052D01*
X001629Y010052D01*
X001629Y010131D01*
X001903Y010131D01*
X001912Y010097D01*
X001931Y010065D01*
X001932Y010064D01*
X001921Y010064D01*
X001909Y010052D01*
X001903Y010129D02*
X001629Y010129D01*
X001913Y010361D02*
X002298Y010361D01*
X002377Y010361D02*
X003054Y010361D01*
X003054Y010284D02*
X002772Y010284D01*
X002772Y010328D02*
X002377Y010328D01*
X002377Y010406D01*
X002772Y010406D01*
X002772Y010602D01*
X002763Y010637D01*
X002760Y010641D01*
X003128Y010641D01*
X003054Y010567D01*
X003054Y010252D01*
X003051Y010249D01*
X002956Y010249D01*
X002862Y010210D01*
X002790Y010138D01*
X002757Y010060D01*
X002754Y010064D01*
X002750Y010064D01*
X002747Y010067D01*
X002745Y010067D01*
X002763Y010097D01*
X002772Y010132D01*
X002772Y010328D01*
X002772Y010438D02*
X003054Y010438D01*
X003054Y010516D02*
X002772Y010516D01*
X002772Y010593D02*
X003080Y010593D01*
X002859Y010207D02*
X002772Y010207D01*
X002771Y010129D02*
X002786Y010129D01*
X003093Y009752D02*
X003152Y009776D01*
X003224Y009848D01*
X003246Y009902D01*
X003292Y009855D01*
X003587Y009855D01*
X003597Y009865D01*
X003607Y009855D01*
X003902Y009855D01*
X003912Y009865D01*
X003922Y009855D01*
X004217Y009855D01*
X004227Y009865D01*
X004237Y009855D01*
X004532Y009855D01*
X004601Y009924D01*
X004601Y010316D01*
X006776Y010316D01*
X006776Y009698D01*
X006846Y009629D01*
X006860Y009629D01*
X007109Y009380D01*
X007197Y009292D01*
X007748Y009292D01*
X008378Y008662D01*
X008575Y008662D01*
X008074Y008662D01*
X008066Y008681D02*
X007994Y008753D01*
X007938Y008776D01*
X007923Y008792D01*
X007568Y009147D01*
X006663Y009147D01*
X006184Y009625D01*
X006184Y009751D01*
X006115Y009820D01*
X005623Y009820D01*
X005554Y009751D01*
X005554Y009338D01*
X005623Y009269D01*
X006040Y009269D01*
X006412Y008896D01*
X006516Y008792D01*
X007421Y008792D01*
X007603Y008611D01*
X007593Y008587D01*
X007593Y008485D01*
X007632Y008391D01*
X007704Y008319D01*
X007798Y008280D01*
X007900Y008280D01*
X007994Y008319D01*
X008066Y008391D01*
X008105Y008485D01*
X008105Y008587D01*
X008066Y008681D01*
X008008Y008739D02*
X008301Y008739D01*
X008224Y008816D02*
X007898Y008816D01*
X007821Y008894D02*
X008146Y008894D01*
X008069Y008971D02*
X007744Y008971D01*
X007667Y009048D02*
X007992Y009048D01*
X007915Y009125D02*
X007589Y009125D01*
X007760Y009280D02*
X006529Y009280D01*
X006452Y009357D02*
X007132Y009357D01*
X007055Y009434D02*
X006375Y009434D01*
X006298Y009512D02*
X006977Y009512D01*
X006900Y009589D02*
X006220Y009589D01*
X006184Y009666D02*
X006808Y009666D01*
X006776Y009743D02*
X006184Y009743D01*
X006106Y009203D02*
X005440Y009203D01*
X005440Y009280D02*
X005612Y009280D01*
X005554Y009357D02*
X005440Y009357D01*
X005440Y009434D02*
X005554Y009434D01*
X005554Y009512D02*
X005440Y009512D01*
X005440Y009589D02*
X005554Y009589D01*
X005554Y009666D02*
X005440Y009666D01*
X005440Y009743D02*
X005554Y009743D01*
X005440Y009820D02*
X006776Y009820D01*
X006776Y009898D02*
X005439Y009898D01*
X005440Y009897D02*
X005361Y009976D01*
X005278Y010059D01*
X005278Y010125D01*
X005209Y010194D01*
X004718Y010194D01*
X004648Y010125D01*
X004648Y009712D01*
X004718Y009643D01*
X005141Y009643D01*
X005141Y009446D01*
X004718Y009446D01*
X004648Y009377D01*
X004648Y009253D01*
X004356Y008989D01*
X004351Y008989D01*
X004302Y008940D01*
X004251Y008894D01*
X004251Y008889D01*
X004247Y008885D01*
X004247Y008816D01*
X004152Y008816D01*
X004152Y008739D02*
X004247Y008739D01*
X004247Y008744D02*
X004247Y008638D01*
X004160Y008674D01*
X004152Y008674D01*
X004152Y008989D01*
X004340Y008989D01*
X004562Y009211D01*
X004562Y009255D01*
X004601Y009294D01*
X004601Y009747D01*
X004532Y009816D01*
X004242Y009816D01*
X004222Y009828D01*
X004186Y009837D01*
X004080Y009837D01*
X004080Y009530D01*
X004060Y009530D01*
X004060Y009511D01*
X003832Y009511D01*
X003765Y009511D01*
X003765Y009530D01*
X004060Y009530D01*
X004060Y009837D01*
X003953Y009837D01*
X003917Y009828D01*
X003912Y009825D01*
X003907Y009828D01*
X003871Y009837D01*
X003765Y009837D01*
X003765Y009530D01*
X003745Y009530D01*
X003745Y009837D01*
X003638Y009837D01*
X003603Y009828D01*
X003582Y009816D01*
X003292Y009816D01*
X003223Y009747D01*
X003223Y009670D01*
X003183Y009670D01*
X003093Y009752D01*
X003102Y009743D02*
X003223Y009743D01*
X003196Y009820D02*
X003590Y009820D01*
X003745Y009820D02*
X003765Y009820D01*
X003765Y009743D02*
X003745Y009743D01*
X003745Y009666D02*
X003765Y009666D01*
X003765Y009589D02*
X003745Y009589D01*
X003765Y009512D02*
X004060Y009512D01*
X004060Y009589D02*
X004080Y009589D01*
X004080Y009666D02*
X004060Y009666D01*
X004060Y009743D02*
X004080Y009743D01*
X004080Y009820D02*
X004060Y009820D01*
X004234Y009820D02*
X004648Y009820D01*
X004648Y009743D02*
X004601Y009743D01*
X004601Y009666D02*
X004694Y009666D01*
X004601Y009589D02*
X005141Y009589D01*
X005141Y009512D02*
X004601Y009512D01*
X004601Y009434D02*
X004706Y009434D01*
X004648Y009357D02*
X004601Y009357D01*
X004587Y009280D02*
X004648Y009280D01*
X004593Y009203D02*
X004553Y009203D01*
X004507Y009125D02*
X004476Y009125D01*
X004422Y009048D02*
X004399Y009048D01*
X004332Y008971D02*
X004152Y008971D01*
X004152Y008894D02*
X004251Y008894D01*
X004247Y008816D02*
X004243Y008748D01*
X004247Y008744D01*
X004247Y008662D02*
X004189Y008662D01*
X003532Y008233D02*
X003296Y008233D01*
X003257Y008194D01*
X002833Y008194D01*
X002833Y008203D01*
X002764Y008272D01*
X002416Y008272D01*
X002395Y008284D01*
X002360Y008294D01*
X002233Y008294D01*
X002233Y007987D01*
X002174Y007987D01*
X002174Y008294D01*
X002047Y008294D01*
X002012Y008284D01*
X001992Y008272D01*
X001660Y008272D01*
X001660Y008548D01*
X002016Y008548D01*
X002085Y008617D01*
X002085Y009109D01*
X002016Y009178D01*
X001904Y009178D01*
X001904Y009624D01*
X001924Y009644D01*
X001924Y009275D01*
X001993Y009206D01*
X002244Y009206D01*
X002331Y009119D01*
X002322Y009109D01*
X002322Y008617D01*
X002391Y008548D01*
X002764Y008548D01*
X002833Y008617D01*
X002833Y008989D01*
X002853Y008989D01*
X002853Y008578D01*
X002922Y008509D01*
X003335Y008509D01*
X003341Y008515D01*
X003341Y008424D01*
X003445Y008320D01*
X003532Y008233D01*
X003489Y008276D02*
X002410Y008276D01*
X002233Y008276D02*
X002174Y008276D01*
X002174Y008198D02*
X002233Y008198D01*
X002233Y008121D02*
X002174Y008121D01*
X002174Y008044D02*
X002233Y008044D01*
X002233Y007889D02*
X002174Y007889D01*
X002174Y007812D02*
X002233Y007812D01*
X002233Y007735D02*
X002174Y007735D01*
X002174Y007658D02*
X002233Y007658D01*
X001946Y007426D02*
X001735Y007426D01*
X001768Y007349D02*
X001904Y007349D01*
X001904Y007272D02*
X001768Y007272D01*
X001768Y007194D02*
X001904Y007194D01*
X001452Y007194D02*
X001373Y007194D01*
X001373Y007272D02*
X001452Y007272D01*
X001452Y007349D02*
X001373Y007349D01*
X001373Y007426D02*
X001452Y007426D01*
X001373Y007001D02*
X001056Y007001D01*
X001056Y006727D01*
X001066Y006691D01*
X001084Y006659D01*
X001110Y006633D01*
X001142Y006615D01*
X001177Y006606D01*
X001373Y006606D01*
X001373Y007001D01*
X001373Y006963D02*
X001452Y006963D01*
X001452Y006885D02*
X001373Y006885D01*
X001373Y006808D02*
X001452Y006808D01*
X001452Y006731D02*
X001373Y006731D01*
X001373Y006654D02*
X001452Y006654D01*
X001090Y006654D02*
X000981Y006654D01*
X000981Y006731D02*
X001056Y006731D01*
X001056Y006808D02*
X000981Y006808D01*
X000981Y006885D02*
X001056Y006885D01*
X001056Y006963D02*
X000981Y006963D01*
X001660Y008276D02*
X001997Y008276D01*
X002053Y008585D02*
X002354Y008585D01*
X002322Y008662D02*
X002085Y008662D01*
X002085Y008739D02*
X002322Y008739D01*
X002322Y008816D02*
X002085Y008816D01*
X002085Y008894D02*
X002322Y008894D01*
X002322Y008971D02*
X002085Y008971D01*
X002085Y009048D02*
X002322Y009048D01*
X002325Y009125D02*
X002069Y009125D01*
X001904Y009203D02*
X002247Y009203D01*
X001924Y009280D02*
X001904Y009280D01*
X001904Y009357D02*
X001924Y009357D01*
X001924Y009434D02*
X001904Y009434D01*
X001904Y009512D02*
X001924Y009512D01*
X001924Y009589D02*
X001904Y009589D01*
X001903Y010438D02*
X001813Y010438D01*
X001903Y010516D02*
X000981Y010516D01*
X000981Y010593D02*
X001903Y010593D01*
X003244Y009898D02*
X003250Y009898D01*
X002853Y008971D02*
X002833Y008971D01*
X002833Y008894D02*
X002853Y008894D01*
X002853Y008816D02*
X002833Y008816D01*
X002833Y008739D02*
X002853Y008739D01*
X002853Y008662D02*
X002833Y008662D01*
X002853Y008585D02*
X002801Y008585D01*
X002833Y008198D02*
X003262Y008198D01*
X003412Y008353D02*
X001660Y008353D01*
X001660Y008430D02*
X003341Y008430D01*
X003341Y008507D02*
X001660Y008507D01*
X003888Y006963D02*
X004017Y006963D01*
X003974Y007040D02*
X005957Y007040D01*
X005927Y006963D02*
X004752Y006963D01*
X004813Y006885D02*
X005899Y006885D01*
X005899Y006808D02*
X004819Y006808D01*
X004819Y006731D02*
X005899Y006731D01*
X005899Y006627D02*
X005899Y006438D01*
X005908Y006402D01*
X005927Y006371D01*
X005953Y006345D01*
X005403Y006345D01*
X005473Y006267D02*
X006904Y006267D01*
X006827Y006190D02*
X005505Y006190D01*
X005507Y006113D02*
X006750Y006113D01*
X006673Y006036D02*
X005487Y006036D01*
X005903Y006422D02*
X004819Y006422D01*
X004819Y006499D02*
X005899Y006499D01*
X005899Y006576D02*
X004819Y006576D01*
X004803Y006345D02*
X005099Y006345D01*
X005029Y006267D02*
X003893Y006267D01*
X003893Y006190D02*
X003914Y006190D01*
X004004Y006299D02*
X003978Y006325D01*
X003959Y006356D01*
X003950Y006392D01*
X003950Y006587D01*
X004345Y006587D01*
X004345Y006271D01*
X004071Y006271D01*
X004036Y006280D01*
X004004Y006299D01*
X003966Y006345D02*
X003893Y006345D01*
X003893Y006422D02*
X003950Y006422D01*
X003950Y006499D02*
X003893Y006499D01*
X003893Y006576D02*
X003950Y006576D01*
X003893Y006654D02*
X004345Y006654D01*
X004345Y006731D02*
X004424Y006731D01*
X004424Y006808D02*
X004345Y006808D01*
X004345Y006885D02*
X004424Y006885D01*
X004424Y006963D02*
X004345Y006963D01*
X004424Y006654D02*
X006196Y006654D01*
X006196Y006627D02*
X005899Y006627D01*
X005953Y006345D02*
X005984Y006326D01*
X006020Y006317D01*
X006196Y006317D01*
X006196Y006627D01*
X006196Y006576D02*
X006274Y006576D01*
X006274Y006499D02*
X006196Y006499D01*
X006196Y006422D02*
X006274Y006422D01*
X006274Y006345D02*
X006196Y006345D01*
X006274Y006654D02*
X007290Y006654D01*
X007213Y006576D02*
X006571Y006576D01*
X006571Y006499D02*
X007136Y006499D01*
X007059Y006422D02*
X006567Y006422D01*
X006517Y006345D02*
X006981Y006345D01*
X007368Y006731D02*
X006571Y006731D01*
X006571Y006808D02*
X006812Y006808D01*
X006776Y006885D02*
X006571Y006885D01*
X006543Y006963D02*
X006776Y006963D01*
X006766Y007040D02*
X006776Y007040D01*
X006571Y007040D02*
X006513Y007040D01*
X006481Y007007D02*
X006481Y007007D01*
X006297Y007977D02*
X006199Y008076D01*
X006196Y008076D01*
X006196Y008172D01*
X006126Y008241D01*
X005477Y008241D01*
X005408Y008172D01*
X005408Y007882D01*
X005283Y008007D01*
X005330Y008054D01*
X005330Y008546D01*
X005260Y008615D01*
X005173Y008615D01*
X005387Y008853D01*
X005387Y008713D01*
X005763Y008713D01*
X005763Y008635D01*
X005841Y008635D01*
X005841Y008338D01*
X006096Y008338D01*
X006123Y008345D01*
X006136Y008313D01*
X006208Y008241D01*
X006302Y008202D01*
X006404Y008202D01*
X006498Y008241D01*
X006565Y008308D01*
X006764Y008308D01*
X007011Y008060D01*
X006955Y008084D01*
X006853Y008084D01*
X006759Y008045D01*
X006692Y007977D01*
X006297Y007977D01*
X006230Y008044D02*
X006759Y008044D01*
X006873Y008198D02*
X006169Y008198D01*
X006173Y008276D02*
X005330Y008276D01*
X005330Y008353D02*
X005463Y008353D01*
X005473Y008347D02*
X005508Y008338D01*
X005763Y008338D01*
X005763Y008635D01*
X005387Y008635D01*
X005387Y008459D01*
X005397Y008423D01*
X005415Y008392D01*
X005441Y008366D01*
X005473Y008347D01*
X005395Y008430D02*
X005330Y008430D01*
X005330Y008507D02*
X005387Y008507D01*
X005387Y008585D02*
X005291Y008585D01*
X005215Y008662D02*
X005763Y008662D01*
X005763Y008713D02*
X005763Y009010D01*
X005508Y009010D01*
X005473Y009001D01*
X005441Y008982D01*
X005440Y008981D01*
X005440Y009897D01*
X005362Y009975D02*
X006776Y009975D01*
X006776Y010052D02*
X005285Y010052D01*
X005273Y010129D02*
X006776Y010129D01*
X006776Y010207D02*
X004601Y010207D01*
X004601Y010284D02*
X006776Y010284D01*
X006607Y009203D02*
X007837Y009203D01*
X007475Y008739D02*
X006217Y008739D01*
X006217Y008713D02*
X006217Y008889D01*
X006207Y008925D01*
X006189Y008956D01*
X006163Y008982D01*
X006131Y009001D01*
X006096Y009010D01*
X005841Y009010D01*
X005841Y008713D01*
X006217Y008713D01*
X006208Y008674D02*
X006168Y008635D01*
X005841Y008635D01*
X005841Y008713D01*
X005763Y008713D01*
X005763Y008739D02*
X005841Y008739D01*
X005841Y008662D02*
X006196Y008662D01*
X006208Y008674D02*
X006302Y008713D01*
X006404Y008713D01*
X006498Y008674D01*
X006565Y008607D01*
X006888Y008607D01*
X006975Y008519D01*
X007635Y007860D01*
X007635Y007601D01*
X007869Y007601D01*
X007869Y007601D01*
X007869Y007601D01*
X008125Y007601D01*
X008125Y007601D01*
X008125Y007601D01*
X008380Y007601D01*
X008381Y007601D01*
X008381Y007601D01*
X008636Y007601D01*
X008637Y007601D01*
X008637Y007601D01*
X008892Y007601D01*
X008893Y007601D01*
X008893Y007601D01*
X009123Y007601D01*
X009144Y007613D01*
X009179Y007622D01*
X009276Y007622D01*
X009276Y007188D01*
X009276Y007188D01*
X009276Y007188D01*
X009276Y006753D01*
X009179Y006753D01*
X009170Y006756D01*
X009170Y006639D01*
X009441Y006639D01*
X009786Y006984D01*
X009786Y007451D01*
X008575Y008662D01*
X008652Y008585D02*
X008105Y008585D01*
X008105Y008507D02*
X008729Y008507D01*
X008807Y008430D02*
X008082Y008430D01*
X008028Y008353D02*
X008884Y008353D01*
X008961Y008276D02*
X007219Y008276D01*
X007142Y008353D02*
X007671Y008353D01*
X007616Y008430D02*
X007065Y008430D01*
X006987Y008507D02*
X007593Y008507D01*
X007593Y008585D02*
X006910Y008585D01*
X006796Y008276D02*
X006533Y008276D01*
X006196Y008121D02*
X006950Y008121D01*
X007296Y008198D02*
X009038Y008198D01*
X009116Y008121D02*
X007373Y008121D01*
X007451Y008044D02*
X009193Y008044D01*
X009270Y007967D02*
X007528Y007967D01*
X007605Y007889D02*
X009347Y007889D01*
X009425Y007812D02*
X007635Y007812D01*
X007635Y007735D02*
X009502Y007735D01*
X009579Y007658D02*
X007635Y007658D01*
X007552Y008662D02*
X006511Y008662D01*
X006492Y008816D02*
X006217Y008816D01*
X006216Y008894D02*
X006415Y008894D01*
X006337Y008971D02*
X006175Y008971D01*
X006260Y009048D02*
X005440Y009048D01*
X005440Y009125D02*
X006183Y009125D01*
X005841Y008971D02*
X005763Y008971D01*
X005763Y008894D02*
X005841Y008894D01*
X005841Y008816D02*
X005763Y008816D01*
X005763Y008585D02*
X005841Y008585D01*
X005841Y008507D02*
X005763Y008507D01*
X005763Y008430D02*
X005841Y008430D01*
X005841Y008353D02*
X005763Y008353D01*
X005435Y008198D02*
X005330Y008198D01*
X005330Y008121D02*
X005408Y008121D01*
X005408Y008044D02*
X005319Y008044D01*
X005323Y007967D02*
X005408Y007967D01*
X005400Y007889D02*
X005408Y007889D01*
X005362Y007503D02*
X005364Y007503D01*
X005362Y007426D02*
X005375Y007426D01*
X005375Y007349D02*
X005362Y007349D01*
X005362Y007272D02*
X005375Y007272D01*
X005375Y007194D02*
X005362Y007194D01*
X005362Y007117D02*
X005375Y007117D01*
X004706Y007117D02*
X004064Y007117D01*
X003950Y006731D02*
X003893Y006731D01*
X004345Y006576D02*
X004424Y006576D01*
X004424Y006499D02*
X004345Y006499D01*
X004345Y006422D02*
X004424Y006422D01*
X004424Y006345D02*
X004345Y006345D01*
X005284Y008739D02*
X005387Y008739D01*
X005387Y008816D02*
X005354Y008816D01*
X004648Y009898D02*
X004575Y009898D01*
X004601Y009975D02*
X004648Y009975D01*
X004648Y010052D02*
X004601Y010052D01*
X004601Y010129D02*
X004653Y010129D01*
X009170Y006731D02*
X009533Y006731D01*
X009467Y006807D02*
X009485Y006839D01*
X009494Y006874D01*
X009494Y007188D01*
X009494Y007501D01*
X009485Y007537D01*
X009467Y007569D01*
X009441Y007595D01*
X009409Y007613D01*
X009373Y007622D01*
X009276Y007622D01*
X009276Y007188D01*
X009494Y007188D01*
X009276Y007188D01*
X009276Y007188D01*
X009276Y006753D01*
X009373Y006753D01*
X009409Y006763D01*
X009441Y006781D01*
X009467Y006807D01*
X009467Y006808D02*
X009610Y006808D01*
X009688Y006885D02*
X009494Y006885D01*
X009494Y006963D02*
X009765Y006963D01*
X009786Y007040D02*
X009494Y007040D01*
X009494Y007117D02*
X009786Y007117D01*
X009786Y007194D02*
X009494Y007194D01*
X009494Y007272D02*
X009786Y007272D01*
X009786Y007349D02*
X009494Y007349D01*
X009494Y007426D02*
X009786Y007426D01*
X009734Y007503D02*
X009494Y007503D01*
X009455Y007581D02*
X009656Y007581D01*
X009276Y007581D02*
X009276Y007581D01*
X009276Y007503D02*
X009276Y007503D01*
X009276Y007426D02*
X009276Y007426D01*
X009276Y007349D02*
X009276Y007349D01*
X009276Y007272D02*
X009276Y007272D01*
X009276Y007194D02*
X009276Y007194D01*
X009276Y007117D02*
X009276Y007117D01*
X009276Y007040D02*
X009276Y007040D01*
X009276Y006963D02*
X009276Y006963D01*
X009276Y006885D02*
X009276Y006885D01*
X009276Y006808D02*
X009276Y006808D01*
X009170Y006654D02*
X009456Y006654D01*
X010544Y004563D02*
X010544Y001077D01*
X008435Y001077D01*
X008792Y001434D01*
X008815Y001440D01*
X008847Y001459D01*
X008985Y001597D01*
X008657Y001925D01*
X008712Y001981D01*
X009041Y001652D01*
X009179Y001791D01*
X009197Y001823D01*
X009203Y001845D01*
X009575Y002217D01*
X009575Y002315D01*
X009196Y002694D01*
X009196Y003158D01*
X009196Y003220D01*
X009196Y003221D01*
X009153Y003264D01*
X008970Y003449D01*
X009473Y003952D01*
X009475Y003950D01*
X009471Y003950D01*
X009475Y003950D02*
X009443Y003917D01*
X009404Y003823D01*
X009404Y003722D01*
X009443Y003628D01*
X009515Y003556D01*
X009609Y003517D01*
X009711Y003517D01*
X009805Y003556D01*
X009877Y003628D01*
X009916Y003722D01*
X009916Y003777D01*
X010085Y003947D01*
X010085Y004104D01*
X010544Y004563D01*
X010544Y004491D02*
X010472Y004491D01*
X010544Y004414D02*
X010395Y004414D01*
X010318Y004336D02*
X010544Y004336D01*
X010544Y004259D02*
X010240Y004259D01*
X010163Y004182D02*
X010544Y004182D01*
X010544Y004105D02*
X010086Y004105D01*
X010085Y004027D02*
X010544Y004027D01*
X010544Y003950D02*
X010085Y003950D01*
X010012Y003873D02*
X010544Y003873D01*
X010544Y003796D02*
X009934Y003796D01*
X009915Y003718D02*
X010544Y003718D01*
X010544Y003641D02*
X009883Y003641D01*
X009814Y003564D02*
X010544Y003564D01*
X010544Y003487D02*
X009008Y003487D01*
X009008Y003410D02*
X010544Y003410D01*
X010544Y003332D02*
X009085Y003332D01*
X009162Y003255D02*
X010544Y003255D01*
X010544Y003178D02*
X009196Y003178D01*
X009196Y003220D02*
X009196Y003220D01*
X009196Y003101D02*
X010544Y003101D01*
X010544Y003023D02*
X009196Y003023D01*
X009196Y002946D02*
X010544Y002946D01*
X010544Y002869D02*
X009196Y002869D01*
X009196Y002792D02*
X010544Y002792D01*
X010544Y002714D02*
X009196Y002714D01*
X009253Y002637D02*
X010544Y002637D01*
X010544Y002560D02*
X009330Y002560D01*
X009408Y002483D02*
X010544Y002483D01*
X010544Y002405D02*
X009485Y002405D01*
X009562Y002328D02*
X010544Y002328D01*
X010544Y002251D02*
X009575Y002251D01*
X009532Y002174D02*
X010544Y002174D01*
X010544Y002096D02*
X009455Y002096D01*
X009377Y002019D02*
X010544Y002019D01*
X010544Y001942D02*
X009300Y001942D01*
X009223Y001865D02*
X010544Y001865D01*
X010544Y001787D02*
X009176Y001787D01*
X009098Y001710D02*
X010544Y001710D01*
X010544Y001633D02*
X008949Y001633D01*
X008944Y001556D02*
X010544Y001556D01*
X010544Y001479D02*
X008867Y001479D01*
X008759Y001401D02*
X010544Y001401D01*
X010544Y001324D02*
X008682Y001324D01*
X008605Y001247D02*
X010544Y001247D01*
X010544Y001170D02*
X008528Y001170D01*
X008450Y001092D02*
X010544Y001092D01*
X008983Y001710D02*
X008872Y001710D01*
X008906Y001787D02*
X008794Y001787D01*
X008828Y001865D02*
X008717Y001865D01*
X008751Y001942D02*
X008674Y001942D01*
X008601Y001981D02*
X008657Y002036D01*
X008329Y002365D01*
X008467Y002503D01*
X008499Y002521D01*
X008521Y002527D01*
X008893Y002899D01*
X008897Y002899D01*
X008897Y003097D01*
X008547Y003450D01*
X008547Y003378D01*
X008503Y003273D01*
X008423Y003192D01*
X008317Y003148D01*
X008282Y003148D01*
X008282Y002299D01*
X008601Y001981D01*
X008563Y002019D02*
X008640Y002019D01*
X008597Y002096D02*
X008485Y002096D01*
X008519Y002174D02*
X008408Y002174D01*
X008442Y002251D02*
X008331Y002251D01*
X008365Y002328D02*
X008282Y002328D01*
X008282Y002405D02*
X008369Y002405D01*
X008447Y002483D02*
X008282Y002483D01*
X008282Y002560D02*
X008554Y002560D01*
X008631Y002637D02*
X008282Y002637D01*
X008282Y002714D02*
X008708Y002714D01*
X008786Y002792D02*
X008282Y002792D01*
X008282Y002869D02*
X008863Y002869D01*
X008897Y002946D02*
X008282Y002946D01*
X008282Y003023D02*
X008897Y003023D01*
X008893Y003101D02*
X008282Y003101D01*
X008388Y003178D02*
X008817Y003178D01*
X008740Y003255D02*
X008486Y003255D01*
X008528Y003332D02*
X008664Y003332D01*
X008587Y003410D02*
X008547Y003410D01*
X009085Y003564D02*
X009507Y003564D01*
X009438Y003641D02*
X009162Y003641D01*
X009239Y003718D02*
X009406Y003718D01*
X009404Y003796D02*
X009316Y003796D01*
X009394Y003873D02*
X009425Y003873D01*
X010544Y008769D02*
X009565Y009749D01*
X009473Y009749D01*
X009473Y009865D01*
X009507Y009865D01*
X009596Y009954D01*
X009598Y009954D01*
X009723Y009954D01*
X009818Y009993D01*
X009818Y009930D01*
X009866Y009815D01*
X009954Y009726D01*
X010070Y009678D01*
X010195Y009678D01*
X010311Y009726D01*
X010400Y009815D01*
X010448Y009930D01*
X010448Y010056D01*
X010400Y010171D01*
X010311Y010260D01*
X010195Y010308D01*
X010164Y010308D01*
X010164Y010527D01*
X010077Y010615D01*
X010051Y010641D01*
X010544Y010641D01*
X010544Y008769D01*
X010544Y008816D02*
X010497Y008816D01*
X010544Y008894D02*
X010420Y008894D01*
X010343Y008971D02*
X010544Y008971D01*
X010544Y009048D02*
X010266Y009048D01*
X010188Y009125D02*
X010544Y009125D01*
X010544Y009203D02*
X010111Y009203D01*
X010034Y009280D02*
X010544Y009280D01*
X010544Y009357D02*
X009957Y009357D01*
X009879Y009434D02*
X010544Y009434D01*
X010544Y009512D02*
X009802Y009512D01*
X009725Y009589D02*
X010544Y009589D01*
X010544Y009666D02*
X009648Y009666D01*
X009570Y009743D02*
X009937Y009743D01*
X009863Y009820D02*
X009473Y009820D01*
X009540Y009898D02*
X009831Y009898D01*
X009818Y009975D02*
X009774Y009975D01*
X010164Y010361D02*
X010544Y010361D01*
X010544Y010284D02*
X010253Y010284D01*
X010364Y010207D02*
X010544Y010207D01*
X010544Y010129D02*
X010417Y010129D01*
X010448Y010052D02*
X010544Y010052D01*
X010544Y009975D02*
X010448Y009975D01*
X010434Y009898D02*
X010544Y009898D01*
X010544Y009820D02*
X010402Y009820D01*
X010328Y009743D02*
X010544Y009743D01*
X010544Y010438D02*
X010164Y010438D01*
X010164Y010516D02*
X010544Y010516D01*
X010544Y010593D02*
X010099Y010593D01*
D32*
X010093Y008339D03*
X010054Y007985D03*
X009621Y007395D03*
X008794Y006332D03*
X008400Y006332D03*
X007101Y006647D03*
X006668Y007276D03*
X006904Y007828D03*
X006353Y008458D03*
X007495Y008536D03*
X007849Y008536D03*
X007731Y007946D03*
X006196Y010072D03*
X005802Y010072D03*
X004109Y008418D03*
X003637Y007434D03*
X002770Y007080D03*
X002101Y005820D03*
X001274Y006332D03*
X001471Y007631D03*
X001786Y008418D03*
X001156Y008812D03*
X002928Y010426D03*
X003007Y009993D03*
X005566Y006804D03*
X004936Y006332D03*
X005251Y006135D03*
X005526Y005072D03*
X004621Y004993D03*
X004267Y005190D03*
X003912Y005072D03*
X004621Y004580D03*
X004625Y003832D03*
X004345Y003497D03*
X005054Y002237D03*
X005330Y002001D03*
X006668Y002552D03*
X007574Y002985D03*
X007574Y003339D03*
X007770Y002552D03*
X007731Y002119D03*
X008715Y002985D03*
X009660Y003772D03*
X009660Y004127D03*
X009857Y004914D03*
X010015Y002946D03*
X010054Y001528D03*
X006471Y004875D03*
X005999Y004048D03*
X003164Y003654D03*
X003125Y004363D03*
X002770Y004993D03*
X003085Y005072D03*
X002219Y003851D03*
X001589Y004481D03*
X002967Y002473D03*
X002416Y002316D03*
D33*
X002692Y002709D02*
X002692Y001922D01*
X002743Y001871D01*
X002704Y001702D01*
X002727Y001686D01*
X002456Y001686D01*
X002296Y001526D01*
X002062Y001526D01*
X001304Y001410D02*
X001304Y001932D01*
X001274Y001961D01*
X001265Y001981D01*
X001274Y002060D01*
X001699Y003151D02*
X001589Y003261D01*
X001589Y003615D01*
X001511Y003694D01*
X001304Y003694D01*
X001699Y003151D02*
X002062Y003151D01*
X002704Y002922D02*
X002743Y002761D01*
X002692Y002709D01*
X002967Y002473D02*
X003125Y002316D01*
X003125Y001568D01*
X003365Y001328D01*
X003609Y001328D01*
X003755Y001607D02*
X004129Y001607D01*
X004463Y001272D01*
X003755Y001607D02*
X003644Y001717D01*
X003644Y002080D01*
X003609Y002076D01*
X003605Y002119D01*
X003400Y002119D01*
X003282Y002237D01*
X003282Y002828D01*
X003125Y002985D01*
X003125Y003339D01*
X002810Y003654D01*
X002810Y004068D01*
X002770Y004107D01*
X003164Y003654D02*
X003282Y003536D01*
X003282Y003064D01*
X003609Y002737D01*
X003609Y002548D01*
X004168Y002788D02*
X003637Y003241D01*
X003637Y003308D01*
X003609Y003296D01*
X003637Y003308D02*
X003637Y003497D01*
X003519Y003615D01*
X003519Y003851D01*
X003400Y003969D01*
X003400Y004560D01*
X003341Y004619D01*
X002770Y004619D01*
X003637Y004619D02*
X003637Y005190D01*
X004306Y005859D01*
X006707Y005859D01*
X007731Y006883D01*
X007731Y007178D01*
X007741Y007188D01*
X007997Y007188D02*
X008007Y007178D01*
X008007Y006883D01*
X007849Y006725D01*
X007810Y006725D01*
X006786Y005702D01*
X004385Y005702D01*
X003912Y005229D01*
X003912Y005072D01*
X004132Y004954D02*
X004189Y004954D01*
X004217Y004942D01*
X004316Y004942D01*
X004344Y004954D01*
X004542Y004954D01*
X004542Y004815D01*
X004480Y004790D01*
X004411Y004720D01*
X004373Y004629D01*
X004373Y004599D01*
X004030Y004599D01*
X004030Y004852D01*
X004053Y004861D01*
X004122Y004931D01*
X004132Y004954D01*
X004124Y004935D02*
X004542Y004935D01*
X004542Y004873D02*
X004065Y004873D01*
X004030Y004812D02*
X004534Y004812D01*
X004441Y004750D02*
X004030Y004750D01*
X004030Y004689D02*
X004398Y004689D01*
X004373Y004627D02*
X004030Y004627D01*
X003794Y004363D02*
X003873Y004284D01*
X003873Y004048D01*
X003952Y003969D01*
X004168Y003969D01*
X004188Y003989D01*
X003794Y004363D02*
X003637Y004363D01*
X003637Y004107D02*
X003656Y004107D01*
X003676Y004087D01*
X003676Y003733D01*
X004227Y003221D01*
X005251Y003221D01*
X005605Y002867D01*
X006904Y002867D01*
X007022Y002985D01*
X007574Y002985D01*
X007967Y003300D02*
X007967Y003969D01*
X008046Y004048D01*
X008046Y004284D01*
X008519Y004757D01*
X008519Y005032D01*
X008833Y005032D01*
X009070Y004796D02*
X009070Y005584D01*
X009385Y005584D01*
X009621Y005584D01*
X009700Y005662D01*
X009700Y006450D01*
X010093Y006843D01*
X010093Y007591D01*
X008715Y008969D01*
X008519Y008969D01*
X007889Y009599D01*
X007613Y009599D01*
X007485Y009727D01*
X007485Y010042D01*
X007229Y010042D02*
X007229Y010416D01*
X007180Y010465D01*
X003794Y010465D01*
X003755Y010426D01*
X003755Y010150D01*
X004070Y010150D01*
X004385Y010150D01*
X004963Y009918D02*
X004967Y009914D01*
X005211Y009914D01*
X005290Y009835D01*
X005290Y008969D01*
X004936Y008576D01*
X004936Y008300D01*
X004936Y008143D01*
X005704Y007375D01*
X005704Y007355D01*
X006235Y007335D02*
X006235Y007828D01*
X006137Y007926D01*
X005802Y007926D01*
X006235Y007828D02*
X006904Y007828D01*
X007141Y007828D01*
X007229Y007739D01*
X007229Y007188D01*
X006973Y007188D02*
X006944Y007276D01*
X006668Y007276D01*
X007485Y007188D02*
X007485Y007798D01*
X006826Y008458D01*
X006353Y008458D01*
X007259Y009442D02*
X007810Y009442D01*
X008440Y008812D01*
X008637Y008812D01*
X009936Y007513D01*
X009936Y006922D01*
X009503Y006489D01*
X009188Y006489D01*
X009070Y006371D01*
X009070Y006017D01*
X007810Y006017D01*
X007495Y005702D01*
X007495Y005269D01*
X006550Y004324D01*
X006550Y004087D01*
X006805Y003832D01*
X006487Y003442D02*
X006416Y003442D01*
X006487Y003442D02*
X006786Y003143D01*
X006865Y003143D01*
X007889Y004166D01*
X007889Y005032D01*
X008204Y005032D01*
X008755Y004717D02*
X008991Y004717D01*
X009070Y004796D01*
X008755Y004717D02*
X008204Y004166D01*
X008204Y004009D01*
X009046Y003159D01*
X009046Y002370D01*
X008267Y001622D02*
X008007Y001883D01*
X008007Y002001D01*
X008125Y002119D01*
X008125Y003143D01*
X007967Y003300D01*
X007195Y004222D02*
X007652Y004679D01*
X007652Y005465D01*
X007731Y005544D01*
X007889Y005662D01*
X008204Y005662D02*
X008519Y005662D01*
X008833Y005662D01*
X008873Y005584D01*
X009070Y005584D01*
X009188Y005898D02*
X009385Y005898D01*
X009188Y005898D02*
X009070Y006017D01*
X008794Y006332D02*
X009020Y006558D01*
X009020Y007188D01*
X008765Y007188D02*
X008755Y007178D01*
X008755Y006765D01*
X008400Y006410D01*
X008400Y006332D01*
X008085Y006489D02*
X008519Y006922D01*
X008519Y007178D01*
X008509Y007188D01*
X008253Y007188D02*
X008243Y007178D01*
X008243Y006883D01*
X007967Y006607D01*
X007928Y006607D01*
X006865Y005544D01*
X004621Y005544D01*
X004267Y005190D01*
X004818Y004796D02*
X004621Y004599D01*
X004621Y004580D01*
X004818Y004796D02*
X005369Y004796D01*
X005617Y004548D01*
X005830Y004548D01*
X005987Y004524D01*
X005987Y005178D02*
X006038Y005229D01*
X006786Y005229D01*
X008046Y006489D01*
X008085Y006489D01*
X009385Y005269D02*
X009385Y004402D01*
X009660Y004127D01*
X010369Y004835D01*
X010369Y008458D01*
X009385Y009442D01*
X008833Y009442D01*
X008765Y009511D01*
X008765Y010042D01*
X009020Y010042D02*
X009020Y009688D01*
X009109Y009599D01*
X009503Y009599D01*
X010526Y008576D01*
X010526Y004757D01*
X009936Y004166D01*
X009936Y004009D01*
X009700Y003772D01*
X009660Y003772D01*
X009857Y004914D02*
X010015Y005032D01*
X010015Y005269D01*
X010015Y005584D01*
X010015Y005898D01*
X010015Y006213D01*
X010054Y007985D02*
X008912Y009127D01*
X008597Y009127D01*
X007997Y009727D01*
X007997Y010042D01*
X008253Y010042D02*
X008253Y009747D01*
X008715Y009284D01*
X009148Y009284D01*
X010093Y008339D01*
X010133Y009993D02*
X010015Y010111D01*
X010015Y010465D01*
X009857Y010623D01*
X008597Y010623D01*
X008509Y010534D01*
X008509Y010042D01*
X007741Y010042D02*
X007741Y010495D01*
X007613Y010623D01*
X003322Y010623D01*
X003204Y010505D01*
X003204Y010190D01*
X003007Y009993D01*
X002825Y010162D02*
X001235Y010162D01*
X001235Y010111D02*
X002787Y010111D01*
X002796Y010133D01*
X002849Y010186D01*
X002849Y010649D01*
X001235Y010649D01*
X001235Y010111D01*
X001235Y010223D02*
X002849Y010223D01*
X002849Y010285D02*
X001235Y010285D01*
X001235Y010346D02*
X002849Y010346D01*
X002849Y010408D02*
X001235Y010408D01*
X001235Y010469D02*
X002849Y010469D01*
X002849Y010531D02*
X001235Y010531D01*
X001235Y010592D02*
X002849Y010592D01*
X002692Y009914D02*
X001983Y009914D01*
X001826Y009757D01*
X001353Y009757D01*
X001274Y009678D01*
X001274Y009166D01*
X001511Y008930D01*
X001511Y008103D01*
X001629Y007985D01*
X001747Y007985D01*
X001826Y007961D01*
X001830Y007958D01*
X002078Y007948D02*
X002330Y007948D01*
X002330Y008009D02*
X002078Y008009D01*
X002078Y008071D02*
X002330Y008071D01*
X002330Y008132D02*
X002078Y008132D01*
X002078Y008194D02*
X002330Y008194D01*
X002330Y008200D02*
X002330Y007715D01*
X002349Y007695D01*
X002349Y007552D01*
X001550Y007552D01*
X001550Y007863D01*
X001570Y007843D01*
X001581Y007843D01*
X001581Y007715D01*
X001646Y007650D01*
X002013Y007650D01*
X002078Y007715D01*
X002078Y008200D01*
X002013Y008265D01*
X001652Y008265D01*
X001652Y008339D01*
X002574Y008339D01*
X002574Y008265D01*
X002394Y008265D01*
X002330Y008200D01*
X002385Y008255D02*
X002022Y008255D01*
X002078Y007886D02*
X002330Y007886D01*
X002330Y007825D02*
X002078Y007825D01*
X002078Y007763D02*
X002330Y007763D01*
X002343Y007702D02*
X002065Y007702D01*
X002349Y007641D02*
X001550Y007641D01*
X001550Y007702D02*
X001595Y007702D01*
X001581Y007763D02*
X001550Y007763D01*
X001550Y007825D02*
X001581Y007825D01*
X001550Y007579D02*
X002349Y007579D01*
X002574Y008317D02*
X001652Y008317D01*
X001830Y008863D02*
X001589Y009103D01*
X001589Y009422D01*
X002692Y009914D02*
X003125Y009521D01*
X003440Y009521D01*
X003440Y010150D02*
X003755Y010150D01*
X003503Y007918D02*
X003519Y007902D01*
X003519Y007631D01*
X003637Y007513D01*
X003637Y007434D01*
X003204Y007276D02*
X003164Y007237D01*
X001747Y005584D02*
X001747Y005111D01*
X001707Y005111D01*
X001707Y005308D01*
X001550Y005308D01*
X001550Y005347D01*
X001707Y005347D01*
X001707Y005584D01*
X001747Y005584D01*
X001747Y005550D02*
X001707Y005550D01*
X001707Y005488D02*
X001747Y005488D01*
X001747Y005427D02*
X001707Y005427D01*
X001707Y005365D02*
X001747Y005365D01*
X001747Y005304D02*
X001707Y005304D01*
X001707Y005242D02*
X001747Y005242D01*
X001747Y005181D02*
X001707Y005181D01*
X001707Y005119D02*
X001747Y005119D01*
X004463Y002099D02*
X004916Y002099D01*
X005054Y002237D01*
X004995Y002257D01*
X004995Y002788D01*
X005987Y005178D02*
X005987Y005272D01*
X008267Y001622D02*
X008267Y001591D01*
X007259Y009442D02*
X006973Y009727D01*
X006973Y010042D01*
X005885Y009560D02*
X005869Y009544D01*
D34*
X009660Y010269D03*
X010133Y009993D03*
X010330Y010426D03*
D35*
X009660Y010269D02*
X009434Y010042D01*
X009276Y010042D01*
X007849Y008615D02*
X007849Y008536D01*
X007849Y008615D02*
X007495Y008969D01*
X006589Y008969D01*
X005999Y009560D01*
X005885Y009560D01*
X004963Y009170D02*
X004822Y009170D01*
X004424Y008812D01*
X004424Y008103D01*
X004424Y007414D01*
X004365Y007355D01*
X004385Y007454D01*
X004385Y007355D01*
X005034Y007355D01*
X004365Y007355D02*
X004070Y007355D01*
X003794Y007119D01*
X003479Y007119D01*
X003361Y007237D01*
X003243Y007237D01*
X003204Y007276D01*
X003164Y007237D02*
X002889Y007237D01*
X002770Y007119D01*
X002770Y007080D01*
X003578Y006410D02*
X003578Y006371D01*
X003558Y005879D02*
X003558Y005859D01*
X003833Y005859D01*
X004030Y006056D01*
X005172Y006056D01*
X005251Y006135D01*
X005081Y004524D02*
X005093Y004521D01*
X004621Y004048D01*
X004621Y003835D01*
X004625Y003832D01*
X004621Y003930D01*
X004562Y003989D01*
X004188Y003989D01*
X004424Y008103D02*
X003912Y008103D01*
X003519Y008497D01*
X003519Y008733D01*
X003440Y008812D01*
X003141Y008812D01*
X003129Y008824D01*
X003219Y008851D01*
X002585Y008863D02*
X002578Y008863D01*
X002578Y008934D01*
X002574Y009009D01*
X002574Y009166D01*
X002495Y009206D01*
X002416Y009284D01*
X002416Y009481D01*
X002396Y009540D01*
X002337Y009540D01*
X002574Y009166D02*
X003873Y009166D01*
X003877Y009162D01*
X003877Y008824D01*
X003873Y008820D01*
X003873Y008536D01*
X003991Y008418D01*
X004109Y008418D01*
X004267Y009166D02*
X003873Y009166D01*
X004267Y009166D02*
X004385Y009284D01*
X004385Y009521D01*
D36*
X003467Y007958D02*
X003479Y007946D01*
X003503Y007918D01*
X003467Y007958D02*
X002578Y007958D01*
X002578Y007379D01*
X002239Y007040D01*
X002239Y006544D01*
X001524Y005830D01*
X001333Y005830D01*
D37*
X000977Y004678D02*
X001690Y004678D01*
X001690Y004492D01*
X002105Y004492D01*
X002105Y004421D01*
X002176Y004421D01*
X002176Y004091D01*
X002473Y004091D01*
X002508Y004101D01*
X002538Y004118D01*
X002538Y003981D01*
X002605Y003914D01*
X002664Y003914D01*
X002664Y003594D01*
X002979Y003279D01*
X002979Y003162D01*
X002948Y003194D01*
X002511Y003194D01*
X002511Y003474D01*
X002444Y003541D01*
X001735Y003541D01*
X001735Y003562D01*
X001753Y003604D01*
X001753Y003783D01*
X001684Y003948D01*
X001558Y004074D01*
X001393Y004143D01*
X001215Y004143D01*
X001050Y004074D01*
X000977Y004001D01*
X000977Y004678D01*
X000977Y004614D02*
X001690Y004614D01*
X001690Y004545D02*
X000977Y004545D01*
X000977Y004476D02*
X002105Y004476D01*
X002105Y004421D02*
X001690Y004421D01*
X001690Y004209D01*
X001699Y004174D01*
X001717Y004144D01*
X001742Y004118D01*
X001773Y004101D01*
X001808Y004091D01*
X002105Y004091D01*
X002105Y004421D01*
X002105Y004406D02*
X002176Y004406D01*
X002176Y004337D02*
X002105Y004337D01*
X002105Y004267D02*
X002176Y004267D01*
X002176Y004198D02*
X002105Y004198D01*
X002105Y004129D02*
X002176Y004129D01*
X002538Y004059D02*
X001573Y004059D01*
X001642Y003990D02*
X002538Y003990D01*
X002599Y003921D02*
X001696Y003921D01*
X001725Y003851D02*
X002664Y003851D01*
X002664Y003782D02*
X001753Y003782D01*
X001753Y003712D02*
X002664Y003712D01*
X002664Y003643D02*
X001753Y003643D01*
X001740Y003574D02*
X002684Y003574D01*
X002754Y003504D02*
X002480Y003504D01*
X002511Y003435D02*
X002823Y003435D01*
X002893Y003366D02*
X002511Y003366D01*
X002511Y003296D02*
X002962Y003296D01*
X002979Y003227D02*
X002511Y003227D01*
X002393Y002762D02*
X002393Y002717D01*
X002459Y002650D01*
X002546Y002650D01*
X002546Y001973D01*
X002459Y001973D01*
X002402Y001916D01*
X001680Y001916D01*
X001613Y001849D01*
X001613Y001736D01*
X001566Y001783D01*
X001585Y001803D01*
X001585Y002317D01*
X001519Y002384D01*
X001490Y002384D01*
X001524Y002393D01*
X001554Y002411D01*
X001580Y002436D01*
X001597Y002467D01*
X001607Y002501D01*
X001607Y002694D01*
X001310Y002694D01*
X001310Y002765D01*
X001239Y002765D01*
X001239Y003075D01*
X001060Y003075D01*
X001025Y003065D01*
X000994Y003048D01*
X000977Y003030D01*
X000977Y003386D01*
X001050Y003313D01*
X001215Y003245D01*
X001393Y003245D01*
X001444Y003266D01*
X001444Y003200D01*
X001529Y003115D01*
X001613Y003031D01*
X001613Y002829D01*
X001680Y002762D01*
X002393Y002762D01*
X002393Y002741D02*
X001310Y002741D01*
X001310Y002765D02*
X001607Y002765D01*
X001607Y002957D01*
X001597Y002991D01*
X001580Y003022D01*
X001554Y003048D01*
X001524Y003065D01*
X001489Y003075D01*
X001310Y003075D01*
X001310Y002765D01*
X001310Y002811D02*
X001239Y002811D01*
X001239Y002880D02*
X001310Y002880D01*
X001310Y002949D02*
X001239Y002949D01*
X001239Y003019D02*
X001310Y003019D01*
X001486Y003158D02*
X000977Y003158D01*
X000977Y003227D02*
X001444Y003227D01*
X001556Y003088D02*
X000977Y003088D01*
X000977Y003296D02*
X001091Y003296D01*
X000997Y003366D02*
X000977Y003366D01*
X000977Y004059D02*
X001035Y004059D01*
X000977Y004129D02*
X001181Y004129D01*
X000977Y004198D02*
X001693Y004198D01*
X001690Y004267D02*
X000977Y004267D01*
X000977Y004337D02*
X001690Y004337D01*
X001690Y004406D02*
X000977Y004406D01*
X001427Y004129D02*
X001732Y004129D01*
X002774Y004359D02*
X002774Y004367D01*
X003024Y004367D01*
X003024Y004460D01*
X003020Y004473D01*
X003255Y004473D01*
X003255Y003909D01*
X003288Y003876D01*
X003214Y003906D01*
X003114Y003906D01*
X003021Y003868D01*
X002956Y003802D01*
X002956Y003934D01*
X003003Y003981D01*
X003003Y004211D01*
X003015Y004232D01*
X003024Y004266D01*
X003024Y004359D01*
X002774Y004359D01*
X003024Y004337D02*
X003255Y004337D01*
X003255Y004406D02*
X003024Y004406D01*
X003024Y004267D02*
X003255Y004267D01*
X003255Y004198D02*
X003003Y004198D01*
X003003Y004129D02*
X003255Y004129D01*
X003255Y004059D02*
X003003Y004059D01*
X003003Y003990D02*
X003255Y003990D01*
X003255Y003921D02*
X002956Y003921D01*
X002956Y003851D02*
X003005Y003851D01*
X003964Y003665D02*
X004432Y003665D01*
X004434Y003666D01*
X004482Y003618D01*
X004575Y003580D01*
X004675Y003580D01*
X004768Y003618D01*
X004838Y003689D01*
X004877Y003781D01*
X004877Y003882D01*
X004838Y003974D01*
X004815Y003997D01*
X005090Y004272D01*
X005326Y004272D01*
X005393Y004339D01*
X005393Y004566D01*
X005557Y004402D01*
X005676Y004402D01*
X005676Y004339D01*
X005743Y004272D01*
X006231Y004272D01*
X006298Y004339D01*
X006298Y004688D01*
X006310Y004708D01*
X006319Y004743D01*
X006319Y004865D01*
X006020Y004865D01*
X006020Y004932D01*
X006319Y004932D01*
X006319Y005054D01*
X006311Y005084D01*
X006847Y005084D01*
X007349Y005586D01*
X007349Y005329D01*
X006404Y004384D01*
X006404Y004107D01*
X006281Y003984D01*
X006281Y003967D01*
X006264Y003967D01*
X005891Y003594D01*
X005891Y003499D01*
X006378Y003013D01*
X005665Y003013D01*
X005432Y003246D01*
X005594Y003313D01*
X005720Y003440D01*
X005788Y003604D01*
X005788Y003783D01*
X005720Y003948D01*
X005594Y004074D01*
X005429Y004143D01*
X005250Y004143D01*
X005085Y004074D01*
X004959Y003948D01*
X004891Y003783D01*
X004891Y003604D01*
X004959Y003440D01*
X005031Y003367D01*
X004284Y003367D01*
X003964Y003665D01*
X003987Y003643D02*
X004457Y003643D01*
X004211Y003435D02*
X004963Y003435D01*
X004932Y003504D02*
X004136Y003504D01*
X004062Y003574D02*
X004903Y003574D01*
X004891Y003643D02*
X004793Y003643D01*
X004848Y003712D02*
X004891Y003712D01*
X004891Y003782D02*
X004877Y003782D01*
X004877Y003851D02*
X004919Y003851D01*
X004948Y003921D02*
X004861Y003921D01*
X004823Y003990D02*
X005001Y003990D01*
X005070Y004059D02*
X004877Y004059D01*
X004946Y004129D02*
X005217Y004129D01*
X005085Y004267D02*
X006404Y004267D01*
X006404Y004198D02*
X005016Y004198D01*
X005390Y004337D02*
X005679Y004337D01*
X005553Y004406D02*
X005393Y004406D01*
X005393Y004476D02*
X005483Y004476D01*
X005414Y004545D02*
X005393Y004545D01*
X005618Y004753D02*
X005655Y004753D01*
X005655Y004743D02*
X005655Y004865D01*
X005954Y004865D01*
X005954Y004932D01*
X005655Y004932D01*
X005655Y005054D01*
X005664Y005089D01*
X005676Y005109D01*
X005676Y005398D01*
X005393Y005398D01*
X005393Y005087D01*
X005326Y005021D01*
X004837Y005021D01*
X004770Y005087D01*
X004770Y005398D01*
X004681Y005398D01*
X004519Y005236D01*
X004519Y005140D01*
X004480Y005047D01*
X004430Y004996D01*
X004437Y004995D01*
X004468Y004977D01*
X004493Y004951D01*
X004511Y004921D01*
X004520Y004886D01*
X004520Y004811D01*
X004571Y004832D01*
X004647Y004832D01*
X004757Y004942D01*
X005429Y004942D01*
X005666Y004705D01*
X005664Y004708D01*
X005655Y004743D01*
X005655Y004822D02*
X005549Y004822D01*
X005479Y004892D02*
X005954Y004892D01*
X006020Y004892D02*
X006912Y004892D01*
X006981Y004961D02*
X006319Y004961D01*
X006319Y005030D02*
X007051Y005030D01*
X007120Y005100D02*
X006863Y005100D01*
X006932Y005169D02*
X007190Y005169D01*
X007259Y005239D02*
X007002Y005239D01*
X007071Y005308D02*
X007328Y005308D01*
X007349Y005377D02*
X007140Y005377D01*
X007210Y005447D02*
X007349Y005447D01*
X007349Y005516D02*
X007279Y005516D01*
X007348Y005585D02*
X007349Y005585D01*
X006843Y004822D02*
X006319Y004822D01*
X006319Y004753D02*
X006773Y004753D01*
X006704Y004684D02*
X006298Y004684D01*
X006298Y004614D02*
X006635Y004614D01*
X006565Y004545D02*
X006298Y004545D01*
X006298Y004476D02*
X006496Y004476D01*
X006426Y004406D02*
X006298Y004406D01*
X006295Y004337D02*
X006404Y004337D01*
X006404Y004129D02*
X005462Y004129D01*
X005609Y004059D02*
X006356Y004059D01*
X006287Y003990D02*
X005678Y003990D01*
X005731Y003921D02*
X006218Y003921D01*
X006148Y003851D02*
X005760Y003851D01*
X005788Y003782D02*
X006079Y003782D01*
X006009Y003712D02*
X005788Y003712D01*
X005788Y003643D02*
X005940Y003643D01*
X005891Y003574D02*
X005775Y003574D01*
X005747Y003504D02*
X005891Y003504D01*
X005955Y003435D02*
X005715Y003435D01*
X005646Y003366D02*
X006025Y003366D01*
X006094Y003296D02*
X005553Y003296D01*
X005451Y003227D02*
X006163Y003227D01*
X006233Y003158D02*
X005521Y003158D01*
X005590Y003088D02*
X006302Y003088D01*
X006371Y003019D02*
X005659Y003019D01*
X005455Y002811D02*
X005326Y002811D01*
X005326Y002880D02*
X005386Y002880D01*
X005326Y002940D02*
X005459Y002807D01*
X005545Y002721D01*
X006965Y002721D01*
X007083Y002839D01*
X007363Y002839D01*
X007431Y002771D01*
X007524Y002733D01*
X007624Y002733D01*
X007716Y002771D01*
X007787Y002842D01*
X007826Y002935D01*
X007826Y003035D01*
X007787Y003128D01*
X007716Y003199D01*
X007624Y003237D01*
X007524Y003237D01*
X007431Y003199D01*
X007363Y003131D01*
X007059Y003131D01*
X007822Y003893D01*
X007822Y003240D01*
X007907Y003154D01*
X007979Y003082D01*
X007979Y002179D01*
X007861Y002061D01*
X007861Y001861D01*
X007742Y001743D01*
X007742Y001648D01*
X008085Y001305D01*
X008085Y001073D01*
X005637Y001073D01*
X005720Y001156D01*
X005788Y001321D01*
X005788Y001500D01*
X005720Y001665D01*
X005594Y001791D01*
X005429Y001859D01*
X005250Y001859D01*
X005085Y001791D01*
X004959Y001665D01*
X004891Y001500D01*
X004891Y001321D01*
X004959Y001156D01*
X005042Y001073D01*
X004873Y001073D01*
X004873Y001536D01*
X004806Y001603D01*
X004339Y001603D01*
X004189Y001753D01*
X003815Y001753D01*
X003790Y001778D01*
X003790Y001804D01*
X003853Y001804D01*
X003920Y001871D01*
X003920Y002280D01*
X003889Y002312D01*
X003920Y002343D01*
X003920Y002379D01*
X004070Y002379D01*
X004054Y002363D01*
X004054Y001835D01*
X004121Y001769D01*
X004806Y001769D01*
X004873Y001835D01*
X004873Y001954D01*
X004976Y001954D01*
X005008Y001985D01*
X005104Y001985D01*
X005197Y002023D01*
X005268Y002094D01*
X005306Y002187D01*
X005306Y002287D01*
X005268Y002380D01*
X005264Y002384D01*
X005326Y002446D01*
X005326Y002940D01*
X005459Y002807D02*
X005459Y002807D01*
X005525Y002741D02*
X005326Y002741D01*
X005326Y002672D02*
X007019Y002672D01*
X007008Y002667D02*
X006912Y002571D01*
X006860Y002445D01*
X006860Y002309D01*
X006912Y002184D01*
X007008Y002087D01*
X007134Y002035D01*
X007270Y002035D01*
X007396Y002087D01*
X007492Y002184D01*
X007544Y002309D01*
X007544Y002445D01*
X007492Y002571D01*
X007396Y002667D01*
X007270Y002720D01*
X007134Y002720D01*
X007008Y002667D01*
X006985Y002741D02*
X007504Y002741D01*
X007392Y002811D02*
X007054Y002811D01*
X006944Y002603D02*
X005326Y002603D01*
X005326Y002533D02*
X006896Y002533D01*
X006868Y002464D02*
X005326Y002464D01*
X005274Y002395D02*
X006529Y002395D01*
X006548Y002414D02*
X005924Y001790D01*
X005924Y001695D01*
X006520Y001100D01*
X006615Y001100D01*
X007238Y001723D01*
X007238Y001818D01*
X006643Y002414D01*
X006548Y002414D01*
X006662Y002395D02*
X006860Y002395D01*
X006860Y002325D02*
X006731Y002325D01*
X006800Y002256D02*
X006882Y002256D01*
X006870Y002186D02*
X006911Y002186D01*
X006939Y002117D02*
X006979Y002117D01*
X007008Y002048D02*
X007104Y002048D01*
X007078Y001978D02*
X007861Y001978D01*
X007861Y001909D02*
X007147Y001909D01*
X007217Y001840D02*
X007839Y001840D01*
X007770Y001770D02*
X007238Y001770D01*
X007216Y001701D02*
X007742Y001701D01*
X007759Y001632D02*
X007147Y001632D01*
X007077Y001562D02*
X007828Y001562D01*
X007897Y001493D02*
X007008Y001493D01*
X006939Y001423D02*
X007967Y001423D01*
X008036Y001354D02*
X006869Y001354D01*
X006800Y001285D02*
X008085Y001285D01*
X008085Y001215D02*
X006730Y001215D01*
X006661Y001146D02*
X008085Y001146D01*
X008085Y001077D02*
X005640Y001077D01*
X005710Y001146D02*
X006474Y001146D01*
X006404Y001215D02*
X005744Y001215D01*
X005773Y001285D02*
X006335Y001285D01*
X006266Y001354D02*
X005788Y001354D01*
X005788Y001423D02*
X006196Y001423D01*
X006127Y001493D02*
X005788Y001493D01*
X005762Y001562D02*
X006058Y001562D01*
X005988Y001632D02*
X005734Y001632D01*
X005684Y001701D02*
X005924Y001701D01*
X005924Y001770D02*
X005614Y001770D01*
X005476Y001840D02*
X005974Y001840D01*
X006043Y001909D02*
X004873Y001909D01*
X004873Y001840D02*
X005203Y001840D01*
X005065Y001770D02*
X004808Y001770D01*
X004945Y001632D02*
X004310Y001632D01*
X004241Y001701D02*
X004995Y001701D01*
X004916Y001562D02*
X004847Y001562D01*
X004873Y001493D02*
X004891Y001493D01*
X004891Y001423D02*
X004873Y001423D01*
X004873Y001354D02*
X004891Y001354D01*
X004906Y001285D02*
X004873Y001285D01*
X004873Y001215D02*
X004934Y001215D01*
X004969Y001146D02*
X004873Y001146D01*
X004873Y001077D02*
X005038Y001077D01*
X005001Y001978D02*
X006113Y001978D01*
X006182Y002048D02*
X005221Y002048D01*
X005277Y002117D02*
X006251Y002117D01*
X006321Y002186D02*
X005306Y002186D01*
X005306Y002256D02*
X006390Y002256D01*
X006460Y002325D02*
X005290Y002325D01*
X004119Y001770D02*
X003798Y001770D01*
X003889Y001840D02*
X004054Y001840D01*
X004054Y001909D02*
X003920Y001909D01*
X003920Y001978D02*
X004054Y001978D01*
X004054Y002048D02*
X003920Y002048D01*
X003920Y002117D02*
X004054Y002117D01*
X004054Y002186D02*
X003920Y002186D01*
X003920Y002256D02*
X004054Y002256D01*
X004054Y002325D02*
X003902Y002325D01*
X002546Y002325D02*
X001577Y002325D01*
X001585Y002256D02*
X002546Y002256D01*
X002546Y002186D02*
X001585Y002186D01*
X001585Y002117D02*
X002546Y002117D01*
X002546Y002048D02*
X001585Y002048D01*
X001585Y001978D02*
X002546Y001978D01*
X002546Y002395D02*
X001526Y002395D01*
X001596Y002464D02*
X002546Y002464D01*
X002546Y002533D02*
X001607Y002533D01*
X001607Y002603D02*
X002546Y002603D01*
X002438Y002672D02*
X001607Y002672D01*
X001607Y002811D02*
X001631Y002811D01*
X001613Y002880D02*
X001607Y002880D01*
X001607Y002949D02*
X001613Y002949D01*
X001613Y003019D02*
X001582Y003019D01*
X001585Y001909D02*
X001673Y001909D01*
X001613Y001840D02*
X001585Y001840D01*
X001579Y001770D02*
X001613Y001770D01*
X004520Y004822D02*
X004549Y004822D01*
X004519Y004892D02*
X004707Y004892D01*
X004827Y005030D02*
X004464Y005030D01*
X004483Y004961D02*
X005655Y004961D01*
X005655Y005030D02*
X005336Y005030D01*
X005393Y005100D02*
X005670Y005100D01*
X005676Y005169D02*
X005393Y005169D01*
X005393Y005239D02*
X005676Y005239D01*
X005676Y005308D02*
X005393Y005308D01*
X005393Y005377D02*
X005676Y005377D01*
X004770Y005377D02*
X004660Y005377D01*
X004591Y005308D02*
X004770Y005308D01*
X004770Y005239D02*
X004521Y005239D01*
X004519Y005169D02*
X004770Y005169D01*
X004770Y005100D02*
X004502Y005100D01*
X007086Y003158D02*
X007390Y003158D01*
X007499Y003227D02*
X007155Y003227D01*
X007225Y003296D02*
X007822Y003296D01*
X007822Y003366D02*
X007294Y003366D01*
X007363Y003435D02*
X007822Y003435D01*
X007822Y003504D02*
X007433Y003504D01*
X007502Y003574D02*
X007822Y003574D01*
X007822Y003643D02*
X007572Y003643D01*
X007641Y003712D02*
X007822Y003712D01*
X007822Y003782D02*
X007710Y003782D01*
X007780Y003851D02*
X007822Y003851D01*
X007834Y003227D02*
X007648Y003227D01*
X007757Y003158D02*
X007904Y003158D01*
X007973Y003088D02*
X007804Y003088D01*
X007826Y003019D02*
X007979Y003019D01*
X007979Y002949D02*
X007826Y002949D01*
X007803Y002880D02*
X007979Y002880D01*
X007979Y002811D02*
X007756Y002811D01*
X007644Y002741D02*
X007979Y002741D01*
X007979Y002672D02*
X007385Y002672D01*
X007461Y002603D02*
X007979Y002603D01*
X007979Y002533D02*
X007508Y002533D01*
X007537Y002464D02*
X007979Y002464D01*
X007979Y002395D02*
X007544Y002395D01*
X007544Y002325D02*
X007979Y002325D01*
X007979Y002256D02*
X007522Y002256D01*
X007493Y002186D02*
X007979Y002186D01*
X007917Y002117D02*
X007426Y002117D01*
X007300Y002048D02*
X007861Y002048D01*
M02*
