G75*
G70*
%OFA0B0*%
%FSLAX24Y24*%
%IPPOS*%
%LPD*%
%AMOC8*
5,1,8,0,0,1.08239X$1,22.5*
%
%ADD10C,0.0000*%
%ADD11R,0.0138X0.0787*%
%ADD12C,0.0669*%
%ADD13R,0.0787X0.0157*%
%ADD14R,0.0748X0.0709*%
%ADD15R,0.0551X0.0551*%
%ADD16R,0.0591X0.0433*%
%ADD17R,0.0394X0.0420*%
%ADD18R,0.0420X0.0394*%
%ADD19C,0.0500*%
%ADD20C,0.0315*%
%ADD21R,0.0120X0.0390*%
%ADD22C,0.0079*%
%ADD23C,0.0276*%
%ADD24C,0.0063*%
%ADD25C,0.0394*%
%ADD26C,0.0118*%
%ADD27C,0.0071*%
D10*
X000841Y000938D02*
X000841Y010780D01*
X010684Y010780D01*
X010684Y000938D01*
X000841Y000938D01*
X006995Y002377D02*
X006997Y002405D01*
X007003Y002433D01*
X007012Y002459D01*
X007025Y002485D01*
X007041Y002508D01*
X007061Y002528D01*
X007083Y002546D01*
X007107Y002561D01*
X007133Y002572D01*
X007160Y002580D01*
X007188Y002584D01*
X007216Y002584D01*
X007244Y002580D01*
X007271Y002572D01*
X007297Y002561D01*
X007321Y002546D01*
X007343Y002528D01*
X007363Y002508D01*
X007379Y002485D01*
X007392Y002459D01*
X007401Y002433D01*
X007407Y002405D01*
X007409Y002377D01*
X007407Y002349D01*
X007401Y002321D01*
X007392Y002295D01*
X007379Y002269D01*
X007363Y002246D01*
X007343Y002226D01*
X007321Y002208D01*
X007297Y002193D01*
X007271Y002182D01*
X007244Y002174D01*
X007216Y002170D01*
X007188Y002170D01*
X007160Y002174D01*
X007133Y002182D01*
X007107Y002193D01*
X007083Y002208D01*
X007061Y002226D01*
X007041Y002246D01*
X007025Y002269D01*
X007012Y002295D01*
X007003Y002321D01*
X006997Y002349D01*
X006995Y002377D01*
X008112Y003435D02*
X008114Y003459D01*
X008120Y003482D01*
X008129Y003504D01*
X008142Y003524D01*
X008157Y003542D01*
X008176Y003557D01*
X008197Y003569D01*
X008219Y003577D01*
X008242Y003582D01*
X008266Y003583D01*
X008290Y003580D01*
X008312Y003573D01*
X008334Y003563D01*
X008354Y003550D01*
X008371Y003533D01*
X008385Y003514D01*
X008396Y003493D01*
X008404Y003470D01*
X008408Y003447D01*
X008408Y003423D01*
X008404Y003400D01*
X008396Y003377D01*
X008385Y003356D01*
X008371Y003337D01*
X008354Y003320D01*
X008334Y003307D01*
X008312Y003297D01*
X008290Y003290D01*
X008266Y003287D01*
X008242Y003288D01*
X008219Y003293D01*
X008197Y003301D01*
X008176Y003313D01*
X008157Y003328D01*
X008142Y003346D01*
X008129Y003366D01*
X008120Y003388D01*
X008114Y003411D01*
X008112Y003435D01*
D11*
X008026Y009284D03*
X007751Y009284D03*
X007475Y009284D03*
X007200Y009284D03*
X006924Y009284D03*
X006648Y009284D03*
X006373Y009284D03*
X006097Y009284D03*
X005822Y009284D03*
X005546Y009284D03*
X008302Y009284D03*
X008578Y009284D03*
X008853Y009284D03*
X009129Y009284D03*
D12*
X005339Y003694D03*
X005339Y001410D03*
X001304Y001410D03*
X001304Y003694D03*
D13*
X002534Y008103D03*
X002534Y008359D03*
X002534Y008615D03*
X002534Y008871D03*
X002534Y009127D03*
D14*
X001373Y010190D03*
X001373Y007040D03*
D15*
X003597Y006883D03*
X003597Y008379D03*
D16*
X006078Y003595D03*
X006078Y002769D03*
X006078Y002139D03*
X006078Y001312D03*
D17*
X006707Y001312D03*
X006707Y001981D03*
X006826Y003280D03*
X006826Y003950D03*
X006668Y006036D03*
X006038Y006036D03*
X006038Y006706D03*
X006668Y006706D03*
X005920Y007690D03*
X005330Y007690D03*
X004818Y007572D03*
X004818Y006902D03*
X004188Y006902D03*
X004188Y007572D03*
X005330Y008359D03*
X005920Y008359D03*
X004700Y009186D03*
X004700Y009855D03*
X004030Y009855D03*
X003440Y009855D03*
X003440Y009186D03*
X004030Y009186D03*
X008243Y008202D03*
X008243Y007532D03*
X009030Y007532D03*
X009030Y008202D03*
X009739Y008792D03*
X010330Y008792D03*
X010330Y009461D03*
X009739Y009461D03*
D18*
X009404Y004796D03*
X008735Y004796D03*
X008223Y004796D03*
X007554Y004796D03*
D19*
X009700Y005977D03*
X009700Y006725D03*
D20*
X001491Y005830D02*
X001176Y005830D01*
X001176Y005337D02*
X001491Y005337D01*
D21*
X007583Y003898D03*
X007839Y003898D03*
X008095Y003898D03*
X008351Y003898D03*
X008607Y003898D03*
X008863Y003898D03*
X009119Y003898D03*
X009375Y003898D03*
X009375Y001600D03*
X009119Y001600D03*
X008863Y001600D03*
X008607Y001600D03*
X008351Y001600D03*
X008095Y001600D03*
X007839Y001600D03*
X007583Y001600D03*
D22*
X008607Y001600D02*
X008607Y001266D01*
X008558Y001266D01*
X008558Y001077D01*
X010544Y001077D01*
X010544Y002319D01*
X010046Y001821D01*
X009958Y001733D01*
X009553Y001733D01*
X009553Y001356D01*
X009484Y001287D01*
X009266Y001287D01*
X009247Y001306D01*
X009228Y001287D01*
X009010Y001287D01*
X009005Y001292D01*
X008977Y001275D01*
X008941Y001266D01*
X008863Y001266D01*
X008863Y001600D01*
X008863Y001600D01*
X008863Y001266D01*
X008785Y001266D01*
X008749Y001275D01*
X008735Y001283D01*
X008721Y001275D01*
X008685Y001266D01*
X008607Y001266D01*
X008607Y001600D01*
X008607Y001600D01*
X008607Y001600D01*
X008863Y001600D01*
X008863Y001600D01*
X008664Y001600D01*
X008607Y001600D01*
X008607Y001934D01*
X008558Y001934D01*
X008558Y003584D01*
X008716Y003584D01*
X008735Y003604D01*
X008754Y003584D01*
X008972Y003584D01*
X008991Y003604D01*
X009010Y003584D01*
X009228Y003584D01*
X009247Y003604D01*
X009266Y003584D01*
X009484Y003584D01*
X009485Y003586D01*
X009515Y003556D01*
X009609Y003517D01*
X009711Y003517D01*
X009805Y003556D01*
X009877Y003628D01*
X009916Y003722D01*
X009916Y003823D01*
X009877Y003917D01*
X009845Y003950D01*
X009877Y003982D01*
X009916Y004076D01*
X009916Y004178D01*
X009877Y004272D01*
X009805Y004344D01*
X009711Y004383D01*
X009616Y004383D01*
X009604Y004395D01*
X009587Y004395D01*
X009574Y004404D01*
X009527Y004395D01*
X009205Y004395D01*
X009021Y004211D01*
X009010Y004211D01*
X008991Y004192D01*
X008972Y004211D01*
X008784Y004211D01*
X008784Y004221D01*
X008789Y004225D01*
X008893Y004329D01*
X008893Y004481D01*
X008994Y004481D01*
X009063Y004550D01*
X009063Y004550D01*
X009064Y004545D01*
X009083Y004514D01*
X009109Y004488D01*
X009141Y004469D01*
X009176Y004460D01*
X009365Y004460D01*
X009365Y004757D01*
X009444Y004757D01*
X009444Y004460D01*
X009633Y004460D01*
X009668Y004469D01*
X009700Y004488D01*
X009726Y004514D01*
X009744Y004545D01*
X009754Y004581D01*
X009754Y004680D01*
X009806Y004658D01*
X009908Y004658D01*
X010002Y004697D01*
X010074Y004769D01*
X010113Y004863D01*
X010113Y004965D01*
X010074Y005059D01*
X010007Y005127D01*
X010007Y005134D01*
X009919Y005221D01*
X009840Y005300D01*
X008779Y005300D01*
X007672Y006443D01*
X007672Y007822D01*
X007377Y008118D01*
X007377Y008754D01*
X007388Y008751D01*
X007475Y008751D01*
X007475Y009284D01*
X007475Y009284D01*
X007475Y008751D01*
X007562Y008751D01*
X007598Y008761D01*
X007628Y008778D01*
X007633Y008772D01*
X007751Y008772D01*
X007704Y008753D01*
X007632Y008681D01*
X007593Y008587D01*
X007593Y008485D01*
X007632Y008391D01*
X007704Y008319D01*
X007798Y008280D01*
X007900Y008280D01*
X007928Y008292D01*
X007928Y007943D01*
X007997Y007874D01*
X008408Y007874D01*
X008408Y007860D01*
X007997Y007860D01*
X007928Y007791D01*
X007928Y007273D01*
X007997Y007204D01*
X008489Y007204D01*
X008558Y007273D01*
X008558Y007419D01*
X008589Y007451D01*
X008637Y007498D01*
X008644Y007490D01*
X008715Y007419D01*
X008715Y007273D01*
X008785Y007204D01*
X009276Y007204D01*
X009345Y007273D01*
X009345Y007791D01*
X009276Y007860D01*
X008865Y007860D01*
X008865Y007874D01*
X009276Y007874D01*
X009345Y007943D01*
X009345Y008461D01*
X009276Y008530D01*
X009180Y008530D01*
X009180Y008553D01*
X009278Y008651D01*
X009278Y008804D01*
X009316Y008842D01*
X009316Y009727D01*
X009247Y009796D01*
X009011Y009796D01*
X008991Y009776D01*
X008971Y009796D01*
X008735Y009796D01*
X008715Y009776D01*
X008695Y009796D01*
X008460Y009796D01*
X008440Y009776D01*
X008420Y009796D01*
X008184Y009796D01*
X008164Y009776D01*
X008144Y009796D01*
X007909Y009796D01*
X007889Y009776D01*
X007869Y009796D01*
X007633Y009796D01*
X007628Y009791D01*
X007598Y009808D01*
X007562Y009817D01*
X007475Y009817D01*
X007388Y009817D01*
X007377Y009814D01*
X007377Y009939D01*
X007490Y010052D01*
X009431Y010052D01*
X009482Y010002D01*
X009562Y009968D01*
X009562Y009790D01*
X009493Y009790D01*
X009424Y009720D01*
X009424Y009203D01*
X009316Y009203D01*
X009316Y009280D02*
X009424Y009280D01*
X009424Y009357D02*
X009316Y009357D01*
X009316Y009434D02*
X009424Y009434D01*
X009424Y009512D02*
X009316Y009512D01*
X009316Y009589D02*
X009424Y009589D01*
X009424Y009666D02*
X009316Y009666D01*
X009299Y009743D02*
X009447Y009743D01*
X009562Y009820D02*
X007377Y009820D01*
X007377Y009898D02*
X009562Y009898D01*
X009546Y009975D02*
X007412Y009975D01*
X007475Y009817D02*
X007475Y009284D01*
X007475Y009284D01*
X007475Y009817D01*
X007475Y009743D02*
X007475Y009743D01*
X007475Y009666D02*
X007475Y009666D01*
X007475Y009589D02*
X007475Y009589D01*
X007475Y009512D02*
X007475Y009512D01*
X007475Y009434D02*
X007475Y009434D01*
X007475Y009357D02*
X007475Y009357D01*
X007475Y009280D02*
X007475Y009280D01*
X007475Y009203D02*
X007475Y009203D01*
X007475Y009125D02*
X007475Y009125D01*
X007475Y009048D02*
X007475Y009048D01*
X007475Y008971D02*
X007475Y008971D01*
X007475Y008894D02*
X007475Y008894D01*
X007475Y008816D02*
X007475Y008816D01*
X007377Y008739D02*
X007690Y008739D01*
X007624Y008662D02*
X007377Y008662D01*
X007377Y008585D02*
X007593Y008585D01*
X007593Y008507D02*
X007377Y008507D01*
X007377Y008430D02*
X007616Y008430D01*
X007671Y008353D02*
X007377Y008353D01*
X007377Y008276D02*
X007928Y008276D01*
X007928Y008198D02*
X007377Y008198D01*
X007377Y008121D02*
X007928Y008121D01*
X007928Y008044D02*
X007450Y008044D01*
X007528Y007967D02*
X007928Y007967D01*
X007981Y007889D02*
X007605Y007889D01*
X007672Y007812D02*
X007949Y007812D01*
X007928Y007735D02*
X007672Y007735D01*
X007672Y007658D02*
X007928Y007658D01*
X007928Y007581D02*
X007672Y007581D01*
X007672Y007503D02*
X007928Y007503D01*
X007928Y007426D02*
X007672Y007426D01*
X007672Y007349D02*
X007928Y007349D01*
X007930Y007272D02*
X007672Y007272D01*
X007672Y007194D02*
X010219Y007194D01*
X010219Y007117D02*
X007672Y007117D01*
X007672Y007040D02*
X009497Y007040D01*
X009491Y007037D02*
X009388Y006934D01*
X009331Y006798D01*
X009331Y006652D01*
X009356Y006593D01*
X009244Y006481D01*
X009006Y006481D01*
X008939Y006548D01*
X008845Y006587D01*
X008743Y006587D01*
X008649Y006548D01*
X008597Y006497D01*
X008545Y006548D01*
X008451Y006587D01*
X008349Y006587D01*
X008255Y006548D01*
X008183Y006477D01*
X008144Y006382D01*
X008144Y006281D01*
X008183Y006187D01*
X008255Y006115D01*
X008349Y006076D01*
X008445Y006076D01*
X008693Y005828D01*
X009363Y005828D01*
X009388Y005769D01*
X009491Y005665D01*
X009626Y005609D01*
X009773Y005609D01*
X009908Y005665D01*
X010012Y005769D01*
X010068Y005904D01*
X010068Y006050D01*
X010012Y006186D01*
X009908Y006289D01*
X009773Y006345D01*
X009626Y006345D01*
X009491Y006289D01*
X009388Y006186D01*
X009363Y006127D01*
X008951Y006127D01*
X009006Y006182D01*
X009368Y006182D01*
X009456Y006270D01*
X009567Y006382D01*
X009626Y006357D01*
X009773Y006357D01*
X009908Y006413D01*
X010012Y006517D01*
X010068Y006652D01*
X010068Y006798D01*
X010012Y006934D01*
X009908Y007037D01*
X009773Y007093D01*
X009626Y007093D01*
X009491Y007037D01*
X009416Y006963D02*
X007672Y006963D01*
X007672Y006885D02*
X009367Y006885D01*
X009335Y006808D02*
X007672Y006808D01*
X007672Y006731D02*
X009331Y006731D01*
X009331Y006654D02*
X007672Y006654D01*
X007672Y006576D02*
X008323Y006576D01*
X008206Y006499D02*
X007672Y006499D01*
X007692Y006422D02*
X008161Y006422D01*
X008144Y006345D02*
X007767Y006345D01*
X007842Y006267D02*
X008150Y006267D01*
X008182Y006190D02*
X007917Y006190D01*
X007991Y006113D02*
X008259Y006113D01*
X008141Y005958D02*
X008562Y005958D01*
X008639Y005881D02*
X008216Y005881D01*
X008291Y005804D02*
X009373Y005804D01*
X009429Y005727D02*
X008366Y005727D01*
X008440Y005650D02*
X009529Y005650D01*
X009870Y005650D02*
X010219Y005650D01*
X010219Y005727D02*
X009970Y005727D01*
X010026Y005804D02*
X010219Y005804D01*
X010219Y005881D02*
X010058Y005881D01*
X010068Y005958D02*
X010219Y005958D01*
X010219Y006036D02*
X010068Y006036D01*
X010042Y006113D02*
X010219Y006113D01*
X010219Y006190D02*
X010007Y006190D01*
X009930Y006267D02*
X010219Y006267D01*
X010219Y006345D02*
X009774Y006345D01*
X009625Y006345D02*
X009531Y006345D01*
X009469Y006267D02*
X009453Y006267D01*
X009392Y006190D02*
X009376Y006190D01*
X009262Y006499D02*
X008988Y006499D01*
X008872Y006576D02*
X009339Y006576D01*
X009917Y006422D02*
X010219Y006422D01*
X010219Y006499D02*
X009994Y006499D01*
X010036Y006576D02*
X010219Y006576D01*
X010219Y006654D02*
X010068Y006654D01*
X010068Y006731D02*
X010219Y006731D01*
X010219Y006808D02*
X010064Y006808D01*
X010032Y006885D02*
X010219Y006885D01*
X010219Y006963D02*
X009983Y006963D01*
X009902Y007040D02*
X010219Y007040D01*
X010219Y007272D02*
X009343Y007272D01*
X009345Y007349D02*
X010219Y007349D01*
X010219Y007426D02*
X009345Y007426D01*
X009345Y007503D02*
X010219Y007503D01*
X010219Y007581D02*
X009345Y007581D01*
X009345Y007658D02*
X010170Y007658D01*
X010219Y007608D02*
X010219Y002653D01*
X009834Y002269D01*
X009244Y002269D01*
X009156Y002181D01*
X008969Y001994D01*
X008969Y001927D01*
X008941Y001934D01*
X008863Y001934D01*
X008785Y001934D01*
X008749Y001925D01*
X008735Y001917D01*
X008721Y001925D01*
X008685Y001934D01*
X008607Y001934D01*
X008607Y001600D01*
X008607Y001600D01*
X008607Y001633D02*
X008607Y001633D01*
X008607Y001556D02*
X008607Y001556D01*
X008607Y001479D02*
X008607Y001479D01*
X008607Y001401D02*
X008607Y001401D01*
X008607Y001324D02*
X008607Y001324D01*
X008558Y001247D02*
X010544Y001247D01*
X010544Y001324D02*
X009521Y001324D01*
X009553Y001401D02*
X010544Y001401D01*
X010544Y001479D02*
X009553Y001479D01*
X009553Y001556D02*
X010544Y001556D01*
X010544Y001633D02*
X009553Y001633D01*
X009553Y001710D02*
X010544Y001710D01*
X010544Y001787D02*
X010013Y001787D01*
X010090Y001865D02*
X010544Y001865D01*
X010544Y001942D02*
X010167Y001942D01*
X010245Y002019D02*
X010544Y002019D01*
X010544Y002096D02*
X010322Y002096D01*
X010399Y002174D02*
X010544Y002174D01*
X010544Y002251D02*
X010476Y002251D01*
X010203Y002637D02*
X008558Y002637D01*
X008558Y002560D02*
X010126Y002560D01*
X010049Y002483D02*
X008558Y002483D01*
X008558Y002405D02*
X009971Y002405D01*
X009894Y002328D02*
X008558Y002328D01*
X008558Y002251D02*
X009226Y002251D01*
X009149Y002174D02*
X008558Y002174D01*
X008558Y002096D02*
X009072Y002096D01*
X008995Y002019D02*
X008558Y002019D01*
X008558Y001942D02*
X008969Y001942D01*
X008863Y001934D02*
X008863Y001600D01*
X008863Y001934D01*
X008863Y001865D02*
X008863Y001865D01*
X008863Y001787D02*
X008863Y001787D01*
X008863Y001710D02*
X008863Y001710D01*
X008863Y001633D02*
X008863Y001633D01*
X008863Y001600D02*
X008863Y001600D01*
X008863Y001556D02*
X008863Y001556D01*
X008863Y001479D02*
X008863Y001479D01*
X008863Y001401D02*
X008863Y001401D01*
X008863Y001324D02*
X008863Y001324D01*
X008558Y001170D02*
X010544Y001170D01*
X010544Y001092D02*
X008558Y001092D01*
X008607Y001710D02*
X008607Y001710D01*
X008607Y001787D02*
X008607Y001787D01*
X008607Y001865D02*
X008607Y001865D01*
X008558Y002714D02*
X010219Y002714D01*
X010219Y002792D02*
X008558Y002792D01*
X008558Y002869D02*
X010219Y002869D01*
X010219Y002946D02*
X008558Y002946D01*
X008558Y003023D02*
X010219Y003023D01*
X010219Y003101D02*
X008558Y003101D01*
X008558Y003178D02*
X010219Y003178D01*
X010219Y003255D02*
X008558Y003255D01*
X008558Y003332D02*
X010219Y003332D01*
X010219Y003410D02*
X008558Y003410D01*
X008558Y003487D02*
X010219Y003487D01*
X010219Y003564D02*
X009814Y003564D01*
X009883Y003641D02*
X010219Y003641D01*
X010219Y003718D02*
X009915Y003718D01*
X009916Y003796D02*
X010219Y003796D01*
X010219Y003873D02*
X009896Y003873D01*
X009846Y003950D02*
X010219Y003950D01*
X010219Y004027D02*
X009896Y004027D01*
X009916Y004105D02*
X010219Y004105D01*
X010219Y004182D02*
X009914Y004182D01*
X009882Y004259D02*
X010219Y004259D01*
X010219Y004336D02*
X009813Y004336D01*
X009703Y004491D02*
X010219Y004491D01*
X010219Y004568D02*
X009750Y004568D01*
X009754Y004645D02*
X010219Y004645D01*
X010219Y004723D02*
X010027Y004723D01*
X010087Y004800D02*
X010219Y004800D01*
X010219Y004877D02*
X010113Y004877D01*
X010113Y004954D02*
X010219Y004954D01*
X010219Y005032D02*
X010085Y005032D01*
X010024Y005109D02*
X010219Y005109D01*
X010219Y005186D02*
X009954Y005186D01*
X009877Y005263D02*
X010219Y005263D01*
X010219Y005341D02*
X008740Y005341D01*
X008665Y005418D02*
X010219Y005418D01*
X010219Y005495D02*
X008590Y005495D01*
X008515Y005572D02*
X010219Y005572D01*
X009444Y004723D02*
X009365Y004723D01*
X009365Y004645D02*
X009444Y004645D01*
X009444Y004568D02*
X009365Y004568D01*
X009365Y004491D02*
X009444Y004491D01*
X009146Y004336D02*
X008893Y004336D01*
X008893Y004414D02*
X010219Y004414D01*
X009507Y003564D02*
X008558Y003564D01*
X008823Y004259D02*
X009069Y004259D01*
X009106Y004491D02*
X009004Y004491D01*
X008485Y006036D02*
X008066Y006036D01*
X008478Y006576D02*
X008717Y006576D01*
X008600Y006499D02*
X008595Y006499D01*
X008556Y007272D02*
X008717Y007272D01*
X008715Y007349D02*
X008558Y007349D01*
X008565Y007426D02*
X008708Y007426D01*
X009324Y007812D02*
X009865Y007812D01*
X009837Y007840D02*
X009909Y007768D01*
X010003Y007729D01*
X010098Y007729D01*
X010219Y007608D01*
X009989Y007735D02*
X009345Y007735D01*
X009292Y007889D02*
X009817Y007889D01*
X009798Y007934D02*
X009837Y007840D01*
X009798Y007934D02*
X009798Y008036D01*
X009837Y008130D01*
X009889Y008182D01*
X009876Y008194D01*
X009837Y008289D01*
X009837Y008390D01*
X009859Y008443D01*
X009778Y008443D01*
X009778Y008753D01*
X009700Y008753D01*
X009700Y008443D01*
X009524Y008443D01*
X009488Y008452D01*
X009457Y008471D01*
X009431Y008497D01*
X009412Y008528D01*
X009403Y008564D01*
X009403Y008753D01*
X009700Y008753D01*
X009700Y008832D01*
X009403Y008832D01*
X009403Y009021D01*
X009412Y009056D01*
X009431Y009088D01*
X009457Y009114D01*
X009488Y009132D01*
X009493Y009133D01*
X009493Y009133D01*
X009424Y009203D01*
X009477Y009125D02*
X009316Y009125D01*
X009316Y009048D02*
X009410Y009048D01*
X009403Y008971D02*
X009316Y008971D01*
X009316Y008894D02*
X009403Y008894D01*
X009290Y008816D02*
X009700Y008816D01*
X009700Y008739D02*
X009778Y008739D01*
X009778Y008662D02*
X009700Y008662D01*
X009700Y008585D02*
X009778Y008585D01*
X009778Y008507D02*
X009700Y008507D01*
X009854Y008430D02*
X009345Y008430D01*
X009345Y008353D02*
X009837Y008353D01*
X009843Y008276D02*
X009345Y008276D01*
X009345Y008198D02*
X009875Y008198D01*
X009833Y008121D02*
X009345Y008121D01*
X009345Y008044D02*
X009801Y008044D01*
X009798Y007967D02*
X009345Y007967D01*
X009298Y008507D02*
X009424Y008507D01*
X009403Y008585D02*
X009212Y008585D01*
X009278Y008662D02*
X009403Y008662D01*
X009403Y008739D02*
X009278Y008739D01*
X010439Y009898D02*
X010544Y009898D01*
X010479Y009858D02*
X010436Y009902D01*
X010448Y009930D01*
X010448Y010056D01*
X010400Y010171D01*
X010311Y010260D01*
X010195Y010308D01*
X010070Y010308D01*
X009975Y010269D01*
X009975Y010331D01*
X009927Y010447D01*
X009839Y010536D01*
X009723Y010584D01*
X009598Y010584D01*
X009482Y010536D01*
X009393Y010447D01*
X009376Y010406D01*
X007343Y010406D01*
X007022Y010086D01*
X007022Y009796D01*
X006806Y009796D01*
X006786Y009776D01*
X006766Y009796D01*
X006531Y009796D01*
X006511Y009776D01*
X006491Y009796D01*
X006255Y009796D01*
X006235Y009776D01*
X006215Y009796D01*
X005979Y009796D01*
X005971Y009788D01*
X005971Y009799D01*
X005912Y009858D01*
X005825Y009946D01*
X005346Y009946D01*
X005268Y009867D01*
X005180Y009779D01*
X005180Y008992D01*
X004849Y008661D01*
X004849Y008858D01*
X004945Y008858D01*
X005015Y008927D01*
X005015Y009445D01*
X004945Y009514D01*
X004454Y009514D01*
X004385Y009445D01*
X004385Y008927D01*
X004454Y008858D01*
X004550Y008858D01*
X004550Y008638D01*
X004365Y008453D01*
X004365Y008469D01*
X004326Y008563D01*
X004254Y008635D01*
X004160Y008674D01*
X004058Y008674D01*
X003991Y008646D01*
X003991Y008703D01*
X003922Y008772D01*
X003273Y008772D01*
X003204Y008703D01*
X003204Y008551D01*
X003105Y008452D01*
X003046Y008393D01*
X003046Y008487D01*
X003046Y008487D01*
X003046Y008487D01*
X003046Y008743D01*
X003046Y008743D01*
X003046Y008743D01*
X003046Y008974D01*
X003058Y008994D01*
X003067Y009030D01*
X003067Y009127D01*
X003067Y009224D01*
X003058Y009259D01*
X003039Y009291D01*
X003014Y009317D01*
X002982Y009335D01*
X002946Y009345D01*
X002534Y009345D01*
X002122Y009345D01*
X002087Y009335D01*
X002055Y009317D01*
X002029Y009291D01*
X002011Y009259D01*
X002001Y009224D01*
X002001Y009127D01*
X002534Y009127D01*
X002534Y009127D01*
X002534Y009345D01*
X002534Y009127D01*
X002534Y009127D01*
X002001Y009127D01*
X002001Y009030D01*
X002011Y008994D01*
X002022Y008974D01*
X002022Y008743D01*
X002023Y008743D01*
X002022Y008743D01*
X002022Y008487D01*
X002022Y008231D01*
X002022Y007976D01*
X002092Y007906D01*
X002977Y007906D01*
X002997Y007926D01*
X003080Y007926D01*
X003206Y008052D01*
X003273Y007985D01*
X003740Y007985D01*
X003575Y007820D01*
X003487Y007732D01*
X003487Y007646D01*
X003420Y007579D01*
X003381Y007485D01*
X003381Y007383D01*
X003420Y007289D01*
X003432Y007276D01*
X003273Y007276D01*
X003204Y007207D01*
X003204Y007060D01*
X003041Y007060D01*
X003026Y007074D01*
X003026Y007130D01*
X002987Y007225D01*
X002915Y007297D01*
X002821Y007335D01*
X002720Y007335D01*
X002626Y007297D01*
X002554Y007225D01*
X002515Y007130D01*
X002515Y007029D01*
X002554Y006935D01*
X002626Y006863D01*
X002720Y006824D01*
X002776Y006824D01*
X002894Y006706D01*
X003204Y006706D01*
X003204Y006558D01*
X003273Y006489D01*
X003504Y006489D01*
X004135Y005858D01*
X004030Y005859D01*
X003046Y004875D01*
X000981Y004875D01*
X000981Y005113D01*
X000987Y005107D01*
X001035Y005074D01*
X001089Y005052D01*
X001147Y005041D01*
X001324Y005041D01*
X001324Y005328D01*
X001343Y005328D01*
X001343Y005041D01*
X001520Y005041D01*
X001578Y005052D01*
X001632Y005074D01*
X001680Y005107D01*
X001722Y005148D01*
X001754Y005197D01*
X001776Y005251D01*
X001788Y005308D01*
X001788Y005328D01*
X001343Y005328D01*
X001343Y005347D01*
X001788Y005347D01*
X001788Y005367D01*
X001776Y005424D01*
X001754Y005478D01*
X001722Y005527D01*
X001680Y005568D01*
X001642Y005594D01*
X001647Y005596D01*
X001725Y005673D01*
X001767Y005775D01*
X001767Y005884D01*
X001725Y005986D01*
X001647Y006063D01*
X001546Y006105D01*
X001121Y006105D01*
X001020Y006063D01*
X000981Y006024D01*
X000981Y006568D01*
X001796Y006568D01*
X001865Y006637D01*
X001865Y007443D01*
X001796Y007513D01*
X000981Y007513D01*
X000981Y009717D01*
X001796Y009717D01*
X001865Y009787D01*
X001865Y010593D01*
X001817Y010641D01*
X010544Y010641D01*
X010544Y009790D01*
X010479Y009790D01*
X010479Y009858D01*
X010479Y009820D02*
X010544Y009820D01*
X010544Y009975D02*
X010448Y009975D01*
X010448Y010052D02*
X010544Y010052D01*
X010544Y010129D02*
X010417Y010129D01*
X010364Y010207D02*
X010544Y010207D01*
X010544Y010284D02*
X010253Y010284D01*
X009963Y010361D02*
X010544Y010361D01*
X010544Y010438D02*
X009931Y010438D01*
X009859Y010516D02*
X010544Y010516D01*
X010544Y010593D02*
X001865Y010593D01*
X001865Y010516D02*
X009462Y010516D01*
X009390Y010438D02*
X001865Y010438D01*
X001865Y010361D02*
X007298Y010361D01*
X007220Y010284D02*
X001865Y010284D01*
X001865Y010207D02*
X002859Y010207D01*
X002862Y010210D02*
X002790Y010138D01*
X002751Y010044D01*
X002751Y009942D01*
X002790Y009848D01*
X002862Y009776D01*
X002956Y009737D01*
X003051Y009737D01*
X003083Y009706D01*
X003125Y009706D01*
X003125Y009596D01*
X003194Y009527D01*
X003189Y009526D01*
X003157Y009507D01*
X003131Y009481D01*
X003113Y009450D01*
X003104Y009414D01*
X003104Y009225D01*
X003400Y009225D01*
X003400Y009147D01*
X003104Y009147D01*
X003104Y008958D01*
X003113Y008922D01*
X003131Y008890D01*
X003157Y008864D01*
X003189Y008846D01*
X003225Y008837D01*
X003400Y008837D01*
X003400Y009146D01*
X003479Y009146D01*
X003479Y008837D01*
X003655Y008837D01*
X003690Y008846D01*
X003722Y008864D01*
X003735Y008877D01*
X003748Y008864D01*
X003780Y008846D01*
X003815Y008837D01*
X003991Y008837D01*
X003991Y009146D01*
X004070Y009146D01*
X004070Y008837D01*
X004246Y008837D01*
X004281Y008846D01*
X004313Y008864D01*
X004339Y008890D01*
X004357Y008922D01*
X004367Y008958D01*
X004367Y009147D01*
X004070Y009147D01*
X004070Y009225D01*
X004367Y009225D01*
X004367Y009414D01*
X004357Y009450D01*
X004339Y009481D01*
X004313Y009507D01*
X004281Y009526D01*
X004276Y009527D01*
X004276Y009527D01*
X004345Y009596D01*
X004345Y009706D01*
X004385Y009706D01*
X004385Y009596D01*
X004454Y009527D01*
X004945Y009527D01*
X005015Y009596D01*
X005015Y010114D01*
X004945Y010183D01*
X004454Y010183D01*
X004385Y010114D01*
X004385Y010005D01*
X004345Y010005D01*
X004345Y010114D01*
X004276Y010183D01*
X003785Y010183D01*
X003735Y010134D01*
X003686Y010183D01*
X003194Y010183D01*
X003186Y010175D01*
X003152Y010210D01*
X003058Y010249D01*
X002956Y010249D01*
X002862Y010210D01*
X002786Y010129D02*
X001865Y010129D01*
X001865Y010052D02*
X002754Y010052D01*
X002751Y009975D02*
X001865Y009975D01*
X001865Y009898D02*
X002769Y009898D01*
X002817Y009820D02*
X001865Y009820D01*
X001822Y009743D02*
X002941Y009743D01*
X003125Y009666D02*
X000981Y009666D01*
X000981Y009589D02*
X003132Y009589D01*
X003164Y009512D02*
X000981Y009512D01*
X000981Y009434D02*
X003109Y009434D01*
X003104Y009357D02*
X000981Y009357D01*
X000981Y009280D02*
X002022Y009280D01*
X002001Y009203D02*
X000981Y009203D01*
X000981Y009125D02*
X002001Y009125D01*
X002001Y009048D02*
X000981Y009048D01*
X000981Y008971D02*
X002022Y008971D01*
X002022Y008894D02*
X000981Y008894D01*
X000981Y008816D02*
X002022Y008816D01*
X002022Y008739D02*
X000981Y008739D01*
X000981Y008662D02*
X002022Y008662D01*
X002022Y008585D02*
X000981Y008585D01*
X000981Y008507D02*
X002022Y008507D01*
X002022Y008487D02*
X002023Y008487D01*
X002022Y008487D01*
X002022Y008430D02*
X000981Y008430D01*
X000981Y008353D02*
X002022Y008353D01*
X002022Y008276D02*
X000981Y008276D01*
X000981Y008198D02*
X002022Y008198D01*
X002023Y008231D02*
X002022Y008231D01*
X002023Y008231D01*
X002022Y008121D02*
X000981Y008121D01*
X000981Y008044D02*
X002022Y008044D01*
X002031Y007967D02*
X000981Y007967D01*
X000981Y007889D02*
X003644Y007889D01*
X003567Y007812D02*
X000981Y007812D01*
X000981Y007735D02*
X003490Y007735D01*
X003487Y007658D02*
X000981Y007658D01*
X000981Y007581D02*
X003421Y007581D01*
X003388Y007503D02*
X001805Y007503D01*
X001865Y007426D02*
X003381Y007426D01*
X003395Y007349D02*
X001865Y007349D01*
X001865Y007272D02*
X002601Y007272D01*
X002541Y007194D02*
X001865Y007194D01*
X001865Y007117D02*
X002515Y007117D01*
X002515Y007040D02*
X001865Y007040D01*
X001865Y006963D02*
X002542Y006963D01*
X002603Y006885D02*
X001865Y006885D01*
X001865Y006808D02*
X002791Y006808D01*
X002869Y006731D02*
X001865Y006731D01*
X001865Y006654D02*
X003204Y006654D01*
X003204Y006576D02*
X001804Y006576D01*
X001675Y006036D02*
X003957Y006036D01*
X003880Y006113D02*
X000981Y006113D01*
X000981Y006190D02*
X003803Y006190D01*
X003725Y006267D02*
X000981Y006267D01*
X000981Y006345D02*
X003648Y006345D01*
X003571Y006422D02*
X000981Y006422D01*
X000981Y006499D02*
X003263Y006499D01*
X003204Y007117D02*
X003026Y007117D01*
X003000Y007194D02*
X003204Y007194D01*
X003268Y007272D02*
X002940Y007272D01*
X003121Y007967D02*
X003722Y007967D01*
X003214Y008044D02*
X003198Y008044D01*
X003083Y008430D02*
X003046Y008430D01*
X003046Y008507D02*
X003160Y008507D01*
X003204Y008585D02*
X003046Y008585D01*
X003046Y008662D02*
X003204Y008662D01*
X003239Y008739D02*
X003046Y008739D01*
X003046Y008816D02*
X004550Y008816D01*
X004550Y008739D02*
X003955Y008739D01*
X003991Y008662D02*
X004029Y008662D01*
X004189Y008662D02*
X004550Y008662D01*
X004497Y008585D02*
X004304Y008585D01*
X004349Y008507D02*
X004420Y008507D01*
X004418Y008894D02*
X004341Y008894D01*
X004367Y008971D02*
X004385Y008971D01*
X004385Y009048D02*
X004367Y009048D01*
X004367Y009125D02*
X004385Y009125D01*
X004385Y009203D02*
X004070Y009203D01*
X004070Y009125D02*
X003991Y009125D01*
X003991Y009147D02*
X003479Y009147D01*
X003479Y009225D01*
X003776Y009225D01*
X003991Y009225D01*
X003991Y009147D01*
X003991Y009203D02*
X003479Y009203D01*
X003479Y009125D02*
X003400Y009125D01*
X003400Y009048D02*
X003479Y009048D01*
X003479Y008971D02*
X003400Y008971D01*
X003400Y008894D02*
X003479Y008894D01*
X003400Y009203D02*
X003067Y009203D01*
X003067Y009127D02*
X002534Y009127D01*
X002534Y009127D01*
X003067Y009127D01*
X003067Y009125D02*
X003104Y009125D01*
X003104Y009048D02*
X003067Y009048D01*
X003046Y008971D02*
X003104Y008971D01*
X003129Y008894D02*
X003046Y008894D01*
X003046Y009280D02*
X003104Y009280D01*
X003194Y009527D02*
X003194Y009527D01*
X003155Y010207D02*
X007143Y010207D01*
X007066Y010129D02*
X004999Y010129D01*
X005015Y010052D02*
X007022Y010052D01*
X007022Y009975D02*
X005015Y009975D01*
X005015Y009898D02*
X005298Y009898D01*
X005221Y009820D02*
X005015Y009820D01*
X005015Y009743D02*
X005180Y009743D01*
X005180Y009666D02*
X005015Y009666D01*
X005007Y009589D02*
X005180Y009589D01*
X005180Y009512D02*
X004948Y009512D01*
X005015Y009434D02*
X005180Y009434D01*
X005180Y009357D02*
X005015Y009357D01*
X005015Y009280D02*
X005180Y009280D01*
X005180Y009203D02*
X005015Y009203D01*
X005015Y009125D02*
X005180Y009125D01*
X005180Y009048D02*
X005015Y009048D01*
X005015Y008971D02*
X005159Y008971D01*
X005082Y008894D02*
X004981Y008894D01*
X005004Y008816D02*
X004849Y008816D01*
X004849Y008739D02*
X004927Y008739D01*
X004850Y008662D02*
X004849Y008662D01*
X004385Y009280D02*
X004367Y009280D01*
X004367Y009357D02*
X004385Y009357D01*
X004385Y009434D02*
X004361Y009434D01*
X004306Y009512D02*
X004451Y009512D01*
X004392Y009589D02*
X004338Y009589D01*
X004345Y009666D02*
X004385Y009666D01*
X004385Y010052D02*
X004345Y010052D01*
X004330Y010129D02*
X004400Y010129D01*
X004070Y009048D02*
X003991Y009048D01*
X003991Y008971D02*
X004070Y008971D01*
X004070Y008894D02*
X003991Y008894D01*
X005290Y007650D02*
X005369Y007650D01*
X005369Y007340D01*
X005545Y007340D01*
X005580Y007350D01*
X005612Y007368D01*
X005625Y007381D01*
X005638Y007368D01*
X005669Y007350D01*
X005705Y007340D01*
X005881Y007340D01*
X005881Y007650D01*
X005959Y007650D01*
X005959Y007340D01*
X006135Y007340D01*
X006171Y007350D01*
X006203Y007368D01*
X006204Y007369D01*
X006204Y007260D01*
X005978Y007034D01*
X005792Y007034D01*
X005723Y006964D01*
X005723Y006447D01*
X005792Y006377D01*
X006284Y006377D01*
X006353Y006447D01*
X006353Y006964D01*
X006353Y006447D01*
X006422Y006377D01*
X006914Y006377D01*
X006983Y006447D01*
X006983Y006964D01*
X006914Y007034D01*
X006818Y007034D01*
X006818Y007064D01*
X006885Y007131D01*
X006924Y007226D01*
X006924Y007327D01*
X006885Y007421D01*
X006813Y007493D01*
X006778Y007508D01*
X006778Y007603D01*
X006853Y007572D01*
X006955Y007572D01*
X007049Y007611D01*
X007121Y007683D01*
X007160Y007777D01*
X007160Y007833D01*
X007318Y007675D01*
X007318Y006444D01*
X007087Y006213D01*
X006983Y006213D01*
X006983Y006295D01*
X006914Y006364D01*
X006422Y006364D01*
X006353Y006295D01*
X006284Y006364D01*
X005792Y006364D01*
X005723Y006295D01*
X005723Y006233D01*
X005487Y006233D01*
X005468Y006280D01*
X005396Y006352D01*
X005302Y006391D01*
X005200Y006391D01*
X005106Y006352D01*
X005034Y006280D01*
X004995Y006186D01*
X004995Y006084D01*
X005034Y005990D01*
X005106Y005918D01*
X005200Y005879D01*
X005723Y005879D01*
X005723Y005843D01*
X004562Y005854D01*
X003924Y006492D01*
X003986Y006553D01*
X004148Y006553D01*
X004148Y006863D01*
X004227Y006863D01*
X004227Y006553D01*
X004403Y006553D01*
X004438Y006563D01*
X004470Y006581D01*
X004496Y006607D01*
X004503Y006618D01*
X004509Y006607D01*
X004535Y006581D01*
X004567Y006563D01*
X004603Y006553D01*
X004778Y006553D01*
X004778Y006863D01*
X004524Y006863D01*
X004227Y006863D01*
X004227Y006942D01*
X004778Y006942D01*
X004778Y006863D01*
X004857Y006863D01*
X004857Y006553D01*
X005033Y006553D01*
X005068Y006563D01*
X005100Y006581D01*
X005126Y006607D01*
X005144Y006639D01*
X005154Y006674D01*
X005154Y006863D01*
X004857Y006863D01*
X004857Y006942D01*
X005154Y006942D01*
X005154Y007131D01*
X005144Y007166D01*
X005126Y007198D01*
X005100Y007224D01*
X005068Y007242D01*
X005063Y007244D01*
X005063Y007244D01*
X005133Y007313D01*
X005133Y007340D01*
X005290Y007340D01*
X005290Y007650D01*
X005290Y007581D02*
X005369Y007581D01*
X005369Y007650D02*
X005369Y007729D01*
X005881Y007729D01*
X005881Y007650D01*
X005584Y007650D01*
X005369Y007650D01*
X005369Y007658D02*
X005881Y007658D01*
X005881Y007581D02*
X005959Y007581D01*
X005959Y007503D02*
X005881Y007503D01*
X005881Y007426D02*
X005959Y007426D01*
X005959Y007349D02*
X005881Y007349D01*
X005674Y007349D02*
X005576Y007349D01*
X005369Y007349D02*
X005290Y007349D01*
X005290Y007426D02*
X005369Y007426D01*
X005369Y007503D02*
X005290Y007503D01*
X005091Y007272D02*
X006204Y007272D01*
X006204Y007349D02*
X006166Y007349D01*
X006138Y007194D02*
X005128Y007194D01*
X005154Y007117D02*
X006061Y007117D01*
X005984Y007040D02*
X005154Y007040D01*
X005154Y006963D02*
X005723Y006963D01*
X005723Y006885D02*
X004857Y006885D01*
X004857Y006808D02*
X004778Y006808D01*
X004778Y006731D02*
X004857Y006731D01*
X004857Y006654D02*
X004778Y006654D01*
X004778Y006576D02*
X004857Y006576D01*
X005092Y006576D02*
X005723Y006576D01*
X005723Y006499D02*
X003932Y006499D01*
X003994Y006422D02*
X005748Y006422D01*
X005773Y006345D02*
X005403Y006345D01*
X005473Y006267D02*
X005723Y006267D01*
X005723Y006654D02*
X005148Y006654D01*
X005154Y006731D02*
X005723Y006731D01*
X005723Y006808D02*
X005154Y006808D01*
X004778Y006885D02*
X004227Y006885D01*
X004227Y006808D02*
X004148Y006808D01*
X004148Y006731D02*
X004227Y006731D01*
X004227Y006654D02*
X004148Y006654D01*
X004148Y006576D02*
X004227Y006576D01*
X004462Y006576D02*
X004543Y006576D01*
X004226Y006190D02*
X004997Y006190D01*
X004995Y006113D02*
X004303Y006113D01*
X004380Y006036D02*
X005015Y006036D01*
X005065Y005958D02*
X004457Y005958D01*
X004535Y005881D02*
X005194Y005881D01*
X005029Y006267D02*
X004149Y006267D01*
X004071Y006345D02*
X005099Y006345D01*
X004112Y005881D02*
X001767Y005881D01*
X001767Y005804D02*
X003975Y005804D01*
X003898Y005727D02*
X001747Y005727D01*
X001701Y005650D02*
X003821Y005650D01*
X003743Y005572D02*
X001674Y005572D01*
X001743Y005495D02*
X003666Y005495D01*
X003589Y005418D02*
X001778Y005418D01*
X001779Y005263D02*
X003435Y005263D01*
X003512Y005341D02*
X001343Y005341D01*
X001343Y005263D02*
X001324Y005263D01*
X001324Y005186D02*
X001343Y005186D01*
X001343Y005109D02*
X001324Y005109D01*
X000985Y005109D02*
X000981Y005109D01*
X000981Y005032D02*
X003203Y005032D01*
X003280Y005109D02*
X001682Y005109D01*
X001747Y005186D02*
X003357Y005186D01*
X003126Y004954D02*
X000981Y004954D01*
X000981Y004877D02*
X003048Y004877D01*
X004034Y005958D02*
X001736Y005958D01*
X000992Y006036D02*
X000981Y006036D01*
X002534Y009203D02*
X002534Y009203D01*
X002534Y009280D02*
X002534Y009280D01*
X005873Y009898D02*
X007022Y009898D01*
X007022Y009820D02*
X005950Y009820D01*
X007160Y007812D02*
X007181Y007812D01*
X007143Y007735D02*
X007258Y007735D01*
X007318Y007658D02*
X007096Y007658D01*
X006977Y007581D02*
X007318Y007581D01*
X007318Y007503D02*
X006789Y007503D01*
X006778Y007581D02*
X006832Y007581D01*
X006880Y007426D02*
X007318Y007426D01*
X007318Y007349D02*
X006915Y007349D01*
X006924Y007272D02*
X007318Y007272D01*
X007318Y007194D02*
X006911Y007194D01*
X006871Y007117D02*
X007318Y007117D01*
X007318Y007040D02*
X006818Y007040D01*
X006983Y006963D02*
X007318Y006963D01*
X007318Y006885D02*
X006983Y006885D01*
X006983Y006808D02*
X007318Y006808D01*
X007318Y006731D02*
X006983Y006731D01*
X006983Y006654D02*
X007318Y006654D01*
X007318Y006576D02*
X006983Y006576D01*
X006983Y006499D02*
X007318Y006499D01*
X007295Y006422D02*
X006958Y006422D01*
X006934Y006345D02*
X007218Y006345D01*
X007141Y006267D02*
X006983Y006267D01*
X006403Y006345D02*
X006304Y006345D01*
X006353Y006295D02*
X006353Y006213D01*
X006353Y006213D01*
X006353Y006295D01*
X006353Y006267D02*
X006353Y006267D01*
X006328Y006422D02*
X006378Y006422D01*
X006353Y006499D02*
X006353Y006499D01*
X006353Y006576D02*
X006353Y006576D01*
X006353Y006654D02*
X006353Y006654D01*
X006353Y006731D02*
X006353Y006731D01*
X006353Y006808D02*
X006353Y006808D01*
X006353Y006885D02*
X006353Y006885D01*
X006353Y006963D02*
X006353Y006963D01*
X006353Y006964D02*
X006422Y007034D01*
X006519Y007034D01*
X006519Y007064D01*
X006475Y007108D01*
X006415Y007048D01*
X006342Y006975D01*
X006353Y006964D01*
X006407Y007040D02*
X006519Y007040D01*
X009975Y010284D02*
X010012Y010284D01*
D23*
X010093Y008339D03*
X010054Y007985D03*
X009621Y007395D03*
X008794Y006332D03*
X008400Y006332D03*
X007101Y006647D03*
X006668Y007276D03*
X006904Y007828D03*
X006353Y008458D03*
X007495Y008536D03*
X007849Y008536D03*
X007731Y007946D03*
X006196Y010072D03*
X005802Y010072D03*
X004109Y008418D03*
X003637Y007434D03*
X002770Y007080D03*
X002101Y005820D03*
X001274Y006332D03*
X001471Y007631D03*
X001786Y008418D03*
X001156Y008812D03*
X002928Y010426D03*
X003007Y009993D03*
X005566Y006804D03*
X004936Y006332D03*
X005251Y006135D03*
X005526Y005072D03*
X004621Y004993D03*
X004267Y005190D03*
X003912Y005072D03*
X004621Y004580D03*
X004625Y003832D03*
X004345Y003497D03*
X005054Y002237D03*
X005330Y002001D03*
X006668Y002552D03*
X007574Y002985D03*
X007574Y003339D03*
X007770Y002552D03*
X007731Y002119D03*
X008715Y002985D03*
X009660Y003772D03*
X009660Y004127D03*
X009857Y004914D03*
X010015Y002946D03*
X010054Y001528D03*
X006471Y004875D03*
X005999Y004048D03*
X003164Y003654D03*
X003125Y004363D03*
X002770Y004993D03*
X003085Y005072D03*
X002219Y003851D03*
X001589Y004481D03*
X002967Y002473D03*
X002416Y002316D03*
D24*
X002967Y002473D02*
X002967Y003064D01*
X004070Y004166D01*
X004070Y004796D01*
X004267Y004993D01*
X004267Y005190D01*
X003912Y005072D02*
X003912Y004245D01*
X003322Y003654D01*
X003164Y003654D01*
X001786Y005072D02*
X001786Y005544D01*
X000999Y005544D01*
X000999Y005072D01*
X001786Y005072D01*
X001786Y005119D02*
X000999Y005119D01*
X000999Y005181D02*
X001786Y005181D01*
X001786Y005242D02*
X000999Y005242D01*
X000999Y005304D02*
X001786Y005304D01*
X001786Y005365D02*
X000999Y005365D01*
X000999Y005427D02*
X001786Y005427D01*
X001786Y005488D02*
X000999Y005488D01*
X003597Y006607D02*
X004896Y005308D01*
X004896Y004816D01*
X004621Y004580D01*
X004621Y004560D01*
X004625Y003832D02*
X004660Y003828D01*
X004660Y003024D01*
X005054Y002631D01*
X005054Y002237D01*
X005605Y001676D02*
X005339Y001410D01*
X001304Y001410D01*
X005339Y001410D02*
X005438Y001312D01*
X006078Y001312D01*
X006707Y001312D01*
X006727Y001332D01*
X006904Y001332D01*
X007101Y001135D01*
X007928Y001135D01*
X008095Y001302D01*
X008095Y001600D01*
X007839Y001600D02*
X007839Y001322D01*
X007810Y001292D01*
X007180Y001292D01*
X007101Y001371D01*
X007101Y001883D01*
X007022Y001961D01*
X006727Y001961D01*
X006707Y001981D01*
X006688Y002001D01*
X006432Y002001D01*
X006294Y002139D01*
X006078Y002139D01*
X006078Y002769D01*
X005723Y003182D02*
X006648Y003182D01*
X006826Y003280D01*
X006078Y003595D02*
X005438Y003595D01*
X005339Y003694D01*
X005723Y003182D02*
X005605Y003064D01*
X005605Y001676D01*
X007574Y002985D02*
X007613Y002985D01*
X007849Y003221D01*
X007849Y003888D01*
X007839Y003898D01*
X008095Y003898D02*
X008351Y003898D01*
X008351Y004668D02*
X008223Y004796D01*
X008164Y004776D01*
X008715Y004776D02*
X008735Y004796D01*
X008735Y005111D02*
X008735Y005131D01*
X008755Y005150D01*
X009778Y005150D01*
X009857Y005072D01*
X009857Y004914D01*
X009542Y004245D02*
X009267Y004245D01*
X009119Y004097D01*
X009119Y003898D01*
X009375Y003898D02*
X009407Y003930D01*
X009463Y003930D01*
X009621Y003772D01*
X009660Y003772D01*
X009660Y004127D02*
X009660Y004166D01*
X009542Y004245D01*
X009700Y005977D02*
X008755Y005977D01*
X008400Y006332D01*
X008794Y006332D02*
X009306Y006332D01*
X009700Y006725D01*
X009030Y007532D02*
X009050Y007552D01*
X008794Y007552D01*
X008715Y007631D01*
X008715Y008694D01*
X008853Y008832D01*
X008853Y009284D01*
X008578Y009284D02*
X008578Y008792D01*
X008558Y008772D01*
X008558Y007631D01*
X008440Y007513D01*
X008302Y007513D01*
X008243Y007532D01*
X008243Y008202D02*
X008243Y008733D01*
X008302Y008792D01*
X008302Y009284D01*
X008026Y009284D02*
X008026Y008713D01*
X007849Y008536D01*
X006924Y007847D02*
X006904Y007828D01*
X006924Y007847D02*
X006924Y009284D01*
X006648Y009284D02*
X006648Y008084D01*
X006629Y008064D01*
X006629Y007316D01*
X006668Y007276D01*
X006668Y006706D01*
X006353Y007198D02*
X006353Y008458D01*
X006353Y009265D01*
X006373Y009284D01*
X006097Y009284D02*
X006097Y008832D01*
X005920Y008654D01*
X005920Y008359D01*
X005546Y008832D02*
X005330Y008615D01*
X005330Y008359D01*
X005546Y008832D02*
X005546Y009284D01*
X005822Y009284D02*
X005822Y009737D01*
X005763Y009796D01*
X005408Y009796D01*
X005330Y009717D01*
X005330Y008930D01*
X004818Y008418D01*
X004818Y007572D01*
X004188Y007572D01*
X004227Y008103D02*
X004070Y008103D01*
X003637Y007670D01*
X003637Y007434D01*
X003597Y006883D02*
X003597Y006607D01*
X004227Y008103D02*
X004700Y008576D01*
X004700Y009186D01*
X004700Y009855D02*
X004030Y009855D01*
X003440Y009855D01*
X003144Y009855D01*
X003007Y009993D01*
X006038Y006883D02*
X006038Y006706D01*
X006038Y006883D02*
X006353Y007198D01*
X009030Y008202D02*
X009030Y008615D01*
X009129Y008713D01*
X009129Y009284D01*
X009739Y009461D02*
X009936Y009265D01*
X009936Y009206D01*
X010330Y008812D01*
X010330Y008792D01*
X010093Y008339D02*
X010526Y007906D01*
X010526Y002513D01*
X009896Y001883D01*
X009424Y001883D01*
X009375Y001834D01*
X009375Y001600D01*
X009119Y001600D02*
X009119Y001932D01*
X009306Y002119D01*
X009896Y002119D01*
X010369Y002591D01*
X010369Y007670D01*
X010054Y007985D01*
X010330Y009461D02*
X010330Y009796D01*
X010133Y009993D01*
X009660Y010269D02*
X009621Y010229D01*
D25*
X009660Y010269D03*
X010133Y009993D03*
X010330Y010426D03*
D26*
X009739Y010190D02*
X009660Y010269D01*
X009621Y010229D02*
X007416Y010229D01*
X007200Y010013D01*
X007200Y009284D01*
X007200Y008044D01*
X007495Y007749D01*
X007495Y006371D01*
X007160Y006036D01*
X006668Y006036D01*
X006038Y006036D01*
X006019Y006056D01*
X005330Y006056D01*
X005251Y006135D01*
X005093Y004363D02*
X006452Y004363D01*
X006826Y003950D01*
X006845Y003950D01*
X007337Y004402D01*
X008085Y004402D01*
X008164Y004481D01*
X008164Y004776D01*
X008351Y004668D02*
X008351Y003898D01*
X008607Y003898D02*
X008607Y004294D01*
X008715Y004402D01*
X008715Y004776D01*
X008735Y004796D02*
X008735Y005111D01*
X008715Y005111D01*
X007495Y006371D01*
X005093Y004363D02*
X004743Y004013D01*
X004625Y003832D01*
X003597Y006883D02*
X002967Y006883D01*
X002770Y007080D01*
X002534Y008103D02*
X003007Y008103D01*
X003282Y008379D01*
X003597Y008379D01*
X004070Y008379D01*
X004109Y008418D01*
X009739Y009461D02*
X009739Y010190D01*
D27*
X007940Y005662D02*
X008362Y005227D01*
X008363Y005107D01*
X007966Y005107D01*
X007899Y005040D01*
X007899Y005012D01*
X007890Y005045D01*
X007872Y005076D01*
X007847Y005101D01*
X007816Y005119D01*
X007782Y005128D01*
X007589Y005128D01*
X007589Y004832D01*
X007519Y004832D01*
X007519Y005128D01*
X007326Y005128D01*
X007292Y005119D01*
X007261Y005101D01*
X007236Y005076D01*
X007218Y005045D01*
X007209Y005011D01*
X007209Y004832D01*
X007518Y004832D01*
X007518Y004761D01*
X007209Y004761D01*
X007209Y004581D01*
X007218Y004547D01*
X007225Y004535D01*
X007217Y004527D01*
X006942Y004274D01*
X006766Y004274D01*
X006625Y004430D01*
X006625Y004435D01*
X006577Y004482D01*
X006532Y004532D01*
X006527Y004533D01*
X006523Y004536D01*
X006456Y004536D01*
X006389Y004540D01*
X006385Y004536D01*
X005022Y004536D01*
X004920Y004435D01*
X004657Y004172D01*
X004637Y004167D01*
X004608Y004122D01*
X004570Y004084D01*
X004570Y004081D01*
X004482Y004045D01*
X004411Y003974D01*
X004373Y003882D01*
X004373Y003781D01*
X004411Y003689D01*
X004482Y003618D01*
X004515Y003604D01*
X004515Y002964D01*
X004600Y002879D01*
X004908Y002570D01*
X004908Y002448D01*
X004840Y002380D01*
X004802Y002287D01*
X004802Y002187D01*
X004840Y002094D01*
X004911Y002023D01*
X005004Y001985D01*
X005104Y001985D01*
X005197Y002023D01*
X005268Y002094D01*
X005306Y002187D01*
X005306Y002287D01*
X005268Y002380D01*
X005200Y002448D01*
X005200Y002691D01*
X004806Y003085D01*
X004806Y003656D01*
X004838Y003689D01*
X004877Y003781D01*
X004877Y003882D01*
X004872Y003893D01*
X004878Y003903D01*
X005165Y004190D01*
X006375Y004190D01*
X006515Y004035D01*
X006515Y003692D01*
X006581Y003625D01*
X007070Y003625D01*
X007137Y003692D01*
X007137Y003982D01*
X007405Y004229D01*
X008157Y004229D01*
X008178Y004250D01*
X008178Y004207D01*
X007988Y004207D01*
X007967Y004186D01*
X007947Y004207D01*
X007732Y004207D01*
X007711Y004186D01*
X007691Y004207D01*
X007476Y004207D01*
X007409Y004140D01*
X007409Y003655D01*
X007476Y003588D01*
X007691Y003588D01*
X007704Y003601D01*
X007704Y003282D01*
X007649Y003227D01*
X007648Y003227D01*
X007649Y003227D02*
X007624Y003237D01*
X007524Y003237D01*
X007431Y003199D01*
X007360Y003128D01*
X007322Y003035D01*
X007322Y002935D01*
X007360Y002842D01*
X007431Y002771D01*
X007524Y002733D01*
X007624Y002733D01*
X007716Y002771D01*
X007787Y002842D01*
X007826Y002935D01*
X007826Y002992D01*
X007910Y003076D01*
X007995Y003161D01*
X007995Y003336D01*
X008020Y003275D01*
X008100Y003195D01*
X008204Y003152D01*
X008316Y003152D01*
X008380Y003179D01*
X008392Y001931D01*
X008351Y001931D01*
X008273Y001931D01*
X008239Y001921D01*
X008208Y001904D01*
X008203Y001909D01*
X008218Y001909D01*
X008203Y001909D02*
X007988Y001909D01*
X007967Y001889D01*
X007947Y001909D01*
X007988Y001909D01*
X007947Y001909D02*
X007732Y001909D01*
X007691Y001909D01*
X007476Y001909D01*
X007247Y001909D01*
X007247Y001943D02*
X007168Y002022D01*
X007155Y002035D01*
X007270Y002035D01*
X007396Y002087D01*
X007492Y002184D01*
X007544Y002309D01*
X007544Y002445D01*
X007492Y002571D01*
X007396Y002667D01*
X007270Y002720D01*
X007134Y002720D01*
X007008Y002667D01*
X006912Y002571D01*
X006860Y002445D01*
X006860Y002309D01*
X006862Y002305D01*
X006487Y002305D01*
X006487Y002402D01*
X006436Y002454D01*
X006487Y002505D01*
X006487Y003032D01*
X006483Y003036D01*
X006515Y003036D01*
X006515Y003023D01*
X006581Y002956D01*
X007070Y002956D01*
X007137Y003023D01*
X007137Y003538D01*
X007070Y003605D01*
X006581Y003605D01*
X006515Y003538D01*
X006515Y003328D01*
X006483Y003328D01*
X006487Y003331D01*
X006487Y003859D01*
X006420Y003926D01*
X005735Y003926D01*
X005731Y003922D01*
X005720Y003948D01*
X005594Y004074D01*
X005429Y004143D01*
X005250Y004143D01*
X005085Y004074D01*
X004959Y003948D01*
X004891Y003783D01*
X004891Y003604D01*
X004959Y003440D01*
X005085Y003313D01*
X005250Y003245D01*
X005429Y003245D01*
X005594Y003313D01*
X005668Y003388D01*
X005668Y003331D01*
X005672Y003328D01*
X005663Y003328D01*
X005578Y003242D01*
X005459Y003124D01*
X005459Y001846D01*
X005429Y001859D01*
X005250Y001859D01*
X005085Y001791D01*
X004959Y001665D01*
X004914Y001556D01*
X001729Y001556D01*
X001684Y001665D01*
X001558Y001791D01*
X001393Y001859D01*
X001215Y001859D01*
X001050Y001791D01*
X000977Y001718D01*
X000977Y003386D01*
X001050Y003313D01*
X001215Y003245D01*
X001393Y003245D01*
X001558Y003313D01*
X001684Y003440D01*
X001753Y003604D01*
X001753Y003783D01*
X001684Y003948D01*
X001558Y004074D01*
X001393Y004143D01*
X001215Y004143D01*
X001050Y004074D01*
X000977Y004001D01*
X000977Y004678D01*
X003085Y004678D01*
X004070Y005662D01*
X004336Y005662D01*
X004751Y005248D01*
X004751Y004883D01*
X004684Y004826D01*
X004671Y004832D01*
X004571Y004832D01*
X004478Y004793D01*
X004407Y004722D01*
X004369Y004630D01*
X004369Y004529D01*
X004407Y004437D01*
X004478Y004366D01*
X004571Y004328D01*
X004671Y004328D01*
X004764Y004366D01*
X004834Y004437D01*
X004873Y004529D01*
X004873Y004604D01*
X004950Y004670D01*
X004957Y004670D01*
X004995Y004709D01*
X005037Y004744D01*
X005038Y004751D01*
X005042Y004755D01*
X005042Y004810D01*
X005046Y004865D01*
X005042Y004870D01*
X005042Y005368D01*
X004957Y005454D01*
X004748Y005662D01*
X007940Y005662D01*
X007947Y005655D02*
X004756Y005655D01*
X004825Y005585D02*
X008015Y005585D01*
X008082Y005516D02*
X004894Y005516D01*
X004964Y005447D02*
X008149Y005447D01*
X008216Y005377D02*
X005033Y005377D01*
X005042Y005308D02*
X008283Y005308D01*
X008351Y005239D02*
X005042Y005239D01*
X005042Y005169D02*
X008363Y005169D01*
X007959Y005100D02*
X007849Y005100D01*
X007894Y005030D02*
X007899Y005030D01*
X007589Y005030D02*
X007519Y005030D01*
X007519Y004961D02*
X007589Y004961D01*
X007589Y004892D02*
X007519Y004892D01*
X007518Y004822D02*
X005043Y004822D01*
X005040Y004753D02*
X007209Y004753D01*
X007209Y004684D02*
X004970Y004684D01*
X004885Y004614D02*
X007209Y004614D01*
X007219Y004545D02*
X004873Y004545D01*
X004850Y004476D02*
X004961Y004476D01*
X004891Y004406D02*
X004804Y004406D01*
X004822Y004337D02*
X004693Y004337D01*
X004753Y004267D02*
X004215Y004267D01*
X004215Y004198D02*
X004683Y004198D01*
X004612Y004129D02*
X004215Y004129D01*
X004215Y004106D02*
X004130Y004021D01*
X004130Y004021D01*
X003113Y003003D01*
X003113Y002684D01*
X003181Y002616D01*
X003219Y002523D01*
X003219Y002423D01*
X003181Y002331D01*
X003110Y002260D01*
X003017Y002221D01*
X002917Y002221D01*
X002825Y002260D01*
X002754Y002331D01*
X002715Y002423D01*
X002715Y002523D01*
X002754Y002616D01*
X002822Y002684D01*
X002822Y003124D01*
X003104Y003407D01*
X003021Y003441D01*
X002951Y003512D01*
X002912Y003604D01*
X002912Y003704D01*
X002951Y003797D01*
X003021Y003868D01*
X003114Y003906D01*
X003214Y003906D01*
X003307Y003868D01*
X003318Y003857D01*
X003767Y004305D01*
X003767Y004861D01*
X003699Y004929D01*
X003660Y005022D01*
X003660Y005122D01*
X003699Y005214D01*
X003769Y005285D01*
X003862Y005324D01*
X003962Y005324D01*
X004037Y005293D01*
X004053Y005333D01*
X004124Y005403D01*
X004216Y005442D01*
X004317Y005442D01*
X004409Y005403D01*
X004480Y005333D01*
X004519Y005240D01*
X004519Y005140D01*
X004480Y005047D01*
X004412Y004979D01*
X004412Y004933D01*
X004327Y004847D01*
X004215Y004736D01*
X004215Y004106D01*
X004169Y004059D02*
X004516Y004059D01*
X004427Y003990D02*
X004099Y003990D01*
X004030Y003921D02*
X004389Y003921D01*
X004373Y003851D02*
X003961Y003851D01*
X003891Y003782D02*
X004373Y003782D01*
X004401Y003712D02*
X003822Y003712D01*
X003753Y003643D02*
X004457Y003643D01*
X004515Y003574D02*
X003683Y003574D01*
X003614Y003504D02*
X004515Y003504D01*
X004515Y003435D02*
X003545Y003435D01*
X003475Y003366D02*
X004515Y003366D01*
X004515Y003296D02*
X003406Y003296D01*
X003336Y003227D02*
X004515Y003227D01*
X004515Y003158D02*
X003267Y003158D01*
X003198Y003088D02*
X004515Y003088D01*
X004515Y003019D02*
X003128Y003019D01*
X003113Y002949D02*
X004529Y002949D01*
X004599Y002880D02*
X003113Y002880D01*
X003113Y002811D02*
X004668Y002811D01*
X004737Y002741D02*
X003113Y002741D01*
X003125Y002672D02*
X004807Y002672D01*
X004876Y002603D02*
X003186Y002603D01*
X003215Y002533D02*
X004908Y002533D01*
X004908Y002464D02*
X003219Y002464D01*
X003207Y002395D02*
X004855Y002395D01*
X004818Y002325D02*
X003176Y002325D01*
X003101Y002256D02*
X004802Y002256D01*
X004802Y002186D02*
X000977Y002186D01*
X000977Y002117D02*
X004831Y002117D01*
X004887Y002048D02*
X000977Y002048D01*
X000977Y001978D02*
X005459Y001978D01*
X005459Y001909D02*
X000977Y001909D01*
X000977Y001840D02*
X001168Y001840D01*
X001029Y001770D02*
X000977Y001770D01*
X001440Y001840D02*
X005203Y001840D01*
X005065Y001770D02*
X001579Y001770D01*
X001648Y001701D02*
X004995Y001701D01*
X004945Y001632D02*
X001698Y001632D01*
X001727Y001562D02*
X004916Y001562D01*
X005221Y002048D02*
X005459Y002048D01*
X005459Y002117D02*
X005277Y002117D01*
X005306Y002186D02*
X005459Y002186D01*
X005459Y002256D02*
X005306Y002256D01*
X005290Y002325D02*
X005459Y002325D01*
X005459Y002395D02*
X005253Y002395D01*
X005200Y002464D02*
X005459Y002464D01*
X005459Y002533D02*
X005200Y002533D01*
X005200Y002603D02*
X005459Y002603D01*
X005459Y002672D02*
X005200Y002672D01*
X005149Y002741D02*
X005459Y002741D01*
X005459Y002811D02*
X005080Y002811D01*
X005011Y002880D02*
X005459Y002880D01*
X005459Y002949D02*
X004941Y002949D01*
X004872Y003019D02*
X005459Y003019D01*
X005459Y003088D02*
X004806Y003088D01*
X004806Y003158D02*
X005493Y003158D01*
X005562Y003227D02*
X004806Y003227D01*
X004806Y003296D02*
X005126Y003296D01*
X005033Y003366D02*
X004806Y003366D01*
X004806Y003435D02*
X004963Y003435D01*
X004932Y003504D02*
X004806Y003504D01*
X004806Y003574D02*
X004903Y003574D01*
X004891Y003643D02*
X004806Y003643D01*
X004848Y003712D02*
X004891Y003712D01*
X004891Y003782D02*
X004877Y003782D01*
X004877Y003851D02*
X004919Y003851D01*
X004896Y003921D02*
X004948Y003921D01*
X004965Y003990D02*
X005001Y003990D01*
X005035Y004059D02*
X005070Y004059D01*
X005104Y004129D02*
X005217Y004129D01*
X005462Y004129D02*
X006430Y004129D01*
X006493Y004059D02*
X005609Y004059D01*
X005678Y003990D02*
X006515Y003990D01*
X006515Y003921D02*
X006426Y003921D01*
X006487Y003851D02*
X006515Y003851D01*
X006515Y003782D02*
X006487Y003782D01*
X006487Y003712D02*
X006515Y003712D01*
X006487Y003643D02*
X006564Y003643D01*
X006551Y003574D02*
X006487Y003574D01*
X006487Y003504D02*
X006515Y003504D01*
X006515Y003435D02*
X006487Y003435D01*
X006487Y003366D02*
X006515Y003366D01*
X006519Y003019D02*
X006487Y003019D01*
X006487Y002949D02*
X007322Y002949D01*
X007322Y003019D02*
X007132Y003019D01*
X007137Y003088D02*
X007344Y003088D01*
X007390Y003158D02*
X007137Y003158D01*
X007137Y003227D02*
X007499Y003227D01*
X007704Y003296D02*
X007137Y003296D01*
X007137Y003366D02*
X007704Y003366D01*
X007704Y003435D02*
X007137Y003435D01*
X007137Y003504D02*
X007704Y003504D01*
X007704Y003574D02*
X007101Y003574D01*
X007087Y003643D02*
X007421Y003643D01*
X007409Y003712D02*
X007137Y003712D01*
X007137Y003782D02*
X007409Y003782D01*
X007409Y003851D02*
X007137Y003851D01*
X007137Y003921D02*
X007409Y003921D01*
X007409Y003990D02*
X007145Y003990D01*
X007220Y004059D02*
X007409Y004059D01*
X007409Y004129D02*
X007296Y004129D01*
X007371Y004198D02*
X007467Y004198D01*
X007699Y004198D02*
X007723Y004198D01*
X007955Y004198D02*
X007979Y004198D01*
X007995Y003296D02*
X008011Y003296D01*
X007995Y003227D02*
X008068Y003227D01*
X007991Y003158D02*
X008191Y003158D01*
X008329Y003158D02*
X008381Y003158D01*
X008381Y003088D02*
X007922Y003088D01*
X007853Y003019D02*
X008382Y003019D01*
X008382Y002949D02*
X007826Y002949D01*
X007803Y002880D02*
X008383Y002880D01*
X008384Y002811D02*
X007756Y002811D01*
X007644Y002741D02*
X008384Y002741D01*
X008385Y002672D02*
X007385Y002672D01*
X007461Y002603D02*
X008386Y002603D01*
X008386Y002533D02*
X007508Y002533D01*
X007537Y002464D02*
X008387Y002464D01*
X008387Y002395D02*
X007544Y002395D01*
X007544Y002325D02*
X008388Y002325D01*
X008389Y002256D02*
X007522Y002256D01*
X007493Y002186D02*
X008389Y002186D01*
X008390Y002117D02*
X007426Y002117D01*
X007300Y002048D02*
X008390Y002048D01*
X008391Y001978D02*
X007212Y001978D01*
X007247Y001943D02*
X007247Y001438D01*
X007409Y001438D01*
X007409Y001842D01*
X007476Y001909D01*
X007409Y001840D02*
X007247Y001840D01*
X007247Y001770D02*
X007409Y001770D01*
X007409Y001701D02*
X007247Y001701D01*
X007247Y001632D02*
X007409Y001632D01*
X007409Y001562D02*
X007247Y001562D01*
X007247Y001493D02*
X007409Y001493D01*
X007711Y001889D02*
X007691Y001909D01*
X007711Y001889D02*
X007732Y001909D01*
X008241Y001278D02*
X008273Y001270D01*
X008351Y001270D01*
X008351Y001600D01*
X008351Y001600D01*
X008351Y001270D01*
X008397Y001270D01*
X008399Y001073D01*
X008073Y001073D01*
X008074Y001074D01*
X008241Y001242D01*
X008241Y001278D01*
X008215Y001215D02*
X008398Y001215D01*
X008399Y001146D02*
X008145Y001146D01*
X008076Y001077D02*
X008399Y001077D01*
X008351Y001285D02*
X008351Y001285D01*
X008351Y001354D02*
X008351Y001354D01*
X008351Y001423D02*
X008351Y001423D01*
X008351Y001493D02*
X008351Y001493D01*
X008351Y001562D02*
X008351Y001562D01*
X008351Y001600D02*
X008351Y001931D01*
X008351Y001600D01*
X008351Y001600D01*
X008351Y001632D02*
X008351Y001632D01*
X008351Y001701D02*
X008351Y001701D01*
X008351Y001770D02*
X008351Y001770D01*
X008351Y001840D02*
X008351Y001840D01*
X008351Y001909D02*
X008351Y001909D01*
X007504Y002741D02*
X006487Y002741D01*
X006487Y002672D02*
X007019Y002672D01*
X006944Y002603D02*
X006487Y002603D01*
X006487Y002533D02*
X006896Y002533D01*
X006868Y002464D02*
X006446Y002464D01*
X006487Y002395D02*
X006860Y002395D01*
X006860Y002325D02*
X006487Y002325D01*
X006487Y002811D02*
X007392Y002811D01*
X007344Y002880D02*
X006487Y002880D01*
X005632Y003296D02*
X005553Y003296D01*
X005646Y003366D02*
X005668Y003366D01*
X006584Y004476D02*
X007161Y004476D01*
X007086Y004406D02*
X006646Y004406D01*
X006709Y004337D02*
X007010Y004337D01*
X007209Y004892D02*
X005042Y004892D01*
X005042Y004961D02*
X007209Y004961D01*
X007214Y005030D02*
X005042Y005030D01*
X005042Y005100D02*
X007259Y005100D01*
X007519Y005100D02*
X007589Y005100D01*
X004751Y005100D02*
X004502Y005100D01*
X004519Y005169D02*
X004751Y005169D01*
X004751Y005239D02*
X004519Y005239D01*
X004490Y005308D02*
X004690Y005308D01*
X004621Y005377D02*
X004435Y005377D01*
X004552Y005447D02*
X003854Y005447D01*
X003923Y005516D02*
X004482Y005516D01*
X004413Y005585D02*
X003993Y005585D01*
X004062Y005655D02*
X004344Y005655D01*
X004098Y005377D02*
X003785Y005377D01*
X003824Y005308D02*
X003715Y005308D01*
X003723Y005239D02*
X003646Y005239D01*
X003680Y005169D02*
X003577Y005169D01*
X003507Y005100D02*
X003660Y005100D01*
X003660Y005030D02*
X003438Y005030D01*
X003369Y004961D02*
X003685Y004961D01*
X003736Y004892D02*
X003299Y004892D01*
X003230Y004822D02*
X003767Y004822D01*
X003767Y004753D02*
X003160Y004753D01*
X003091Y004684D02*
X003767Y004684D01*
X003767Y004614D02*
X000977Y004614D01*
X000977Y004545D02*
X003767Y004545D01*
X003767Y004476D02*
X000977Y004476D01*
X000977Y004406D02*
X003767Y004406D01*
X003767Y004337D02*
X000977Y004337D01*
X000977Y004267D02*
X003729Y004267D01*
X003659Y004198D02*
X000977Y004198D01*
X000977Y004129D02*
X001181Y004129D01*
X001035Y004059D02*
X000977Y004059D01*
X001427Y004129D02*
X003590Y004129D01*
X003521Y004059D02*
X001573Y004059D01*
X001642Y003990D02*
X003451Y003990D01*
X003382Y003921D02*
X001696Y003921D01*
X001725Y003851D02*
X003005Y003851D01*
X002944Y003782D02*
X001753Y003782D01*
X001753Y003712D02*
X002916Y003712D01*
X002912Y003643D02*
X001753Y003643D01*
X001740Y003574D02*
X002925Y003574D01*
X002958Y003504D02*
X001711Y003504D01*
X001680Y003435D02*
X003035Y003435D01*
X003063Y003366D02*
X001611Y003366D01*
X001517Y003296D02*
X002994Y003296D01*
X002924Y003227D02*
X000977Y003227D01*
X000977Y003296D02*
X001091Y003296D01*
X000997Y003366D02*
X000977Y003366D01*
X000977Y003158D02*
X002855Y003158D01*
X002822Y003088D02*
X000977Y003088D01*
X000977Y003019D02*
X002822Y003019D01*
X002822Y002949D02*
X000977Y002949D01*
X000977Y002880D02*
X002822Y002880D01*
X002822Y002811D02*
X000977Y002811D01*
X000977Y002741D02*
X002822Y002741D01*
X002810Y002672D02*
X000977Y002672D01*
X000977Y002603D02*
X002748Y002603D01*
X002719Y002533D02*
X000977Y002533D01*
X000977Y002464D02*
X002715Y002464D01*
X002727Y002395D02*
X000977Y002395D01*
X000977Y002325D02*
X002759Y002325D01*
X002834Y002256D02*
X000977Y002256D01*
X004000Y005308D02*
X004043Y005308D01*
X004412Y004961D02*
X004751Y004961D01*
X004751Y004892D02*
X004371Y004892D01*
X004302Y004822D02*
X004549Y004822D01*
X004438Y004753D02*
X004233Y004753D01*
X004215Y004684D02*
X004391Y004684D01*
X004369Y004614D02*
X004215Y004614D01*
X004215Y004545D02*
X004369Y004545D01*
X004391Y004476D02*
X004215Y004476D01*
X004215Y004406D02*
X004438Y004406D01*
X004549Y004337D02*
X004215Y004337D01*
X004464Y005030D02*
X004751Y005030D01*
M02*
