G75*
G70*
%OFA0B0*%
%FSLAX24Y24*%
%IPPOS*%
%LPD*%
%AMOC8*
5,1,8,0,0,1.08239X$1,22.5*
%
%ADD10C,0.0000*%
%ADD11R,0.0138X0.0787*%
%ADD12R,0.0787X0.0157*%
%ADD13R,0.0748X0.0709*%
%ADD14R,0.0551X0.0551*%
%ADD15R,0.0591X0.0433*%
%ADD16R,0.0394X0.0420*%
%ADD17R,0.0420X0.0394*%
%ADD18R,0.0120X0.0390*%
D10*
X000841Y000938D02*
X000841Y010780D01*
X010684Y010780D01*
X010684Y000938D01*
X000841Y000938D01*
X006995Y002377D02*
X006997Y002405D01*
X007003Y002433D01*
X007012Y002459D01*
X007025Y002485D01*
X007041Y002508D01*
X007061Y002528D01*
X007083Y002546D01*
X007107Y002561D01*
X007133Y002572D01*
X007160Y002580D01*
X007188Y002584D01*
X007216Y002584D01*
X007244Y002580D01*
X007271Y002572D01*
X007297Y002561D01*
X007321Y002546D01*
X007343Y002528D01*
X007363Y002508D01*
X007379Y002485D01*
X007392Y002459D01*
X007401Y002433D01*
X007407Y002405D01*
X007409Y002377D01*
X007407Y002349D01*
X007401Y002321D01*
X007392Y002295D01*
X007379Y002269D01*
X007363Y002246D01*
X007343Y002226D01*
X007321Y002208D01*
X007297Y002193D01*
X007271Y002182D01*
X007244Y002174D01*
X007216Y002170D01*
X007188Y002170D01*
X007160Y002174D01*
X007133Y002182D01*
X007107Y002193D01*
X007083Y002208D01*
X007061Y002226D01*
X007041Y002246D01*
X007025Y002269D01*
X007012Y002295D01*
X007003Y002321D01*
X006997Y002349D01*
X006995Y002377D01*
X008112Y003435D02*
X008114Y003459D01*
X008120Y003482D01*
X008129Y003504D01*
X008142Y003524D01*
X008157Y003542D01*
X008176Y003557D01*
X008197Y003569D01*
X008219Y003577D01*
X008242Y003582D01*
X008266Y003583D01*
X008290Y003580D01*
X008312Y003573D01*
X008334Y003563D01*
X008354Y003550D01*
X008371Y003533D01*
X008385Y003514D01*
X008396Y003493D01*
X008404Y003470D01*
X008408Y003447D01*
X008408Y003423D01*
X008404Y003400D01*
X008396Y003377D01*
X008385Y003356D01*
X008371Y003337D01*
X008354Y003320D01*
X008334Y003307D01*
X008312Y003297D01*
X008290Y003290D01*
X008266Y003287D01*
X008242Y003288D01*
X008219Y003293D01*
X008197Y003301D01*
X008176Y003313D01*
X008157Y003328D01*
X008142Y003346D01*
X008129Y003366D01*
X008120Y003388D01*
X008114Y003411D01*
X008112Y003435D01*
D11*
X008026Y009284D03*
X007751Y009284D03*
X007475Y009284D03*
X007200Y009284D03*
X006924Y009284D03*
X006648Y009284D03*
X006373Y009284D03*
X006097Y009284D03*
X005822Y009284D03*
X005546Y009284D03*
X008302Y009284D03*
X008578Y009284D03*
X008853Y009284D03*
X009129Y009284D03*
D12*
X002534Y009127D03*
X002534Y008871D03*
X002534Y008615D03*
X002534Y008359D03*
X002534Y008103D03*
D13*
X001373Y007040D03*
X001373Y010190D03*
D14*
X003597Y008379D03*
X003597Y006883D03*
D15*
X006078Y003595D03*
X006078Y002769D03*
X006078Y002139D03*
X006078Y001312D03*
D16*
X006707Y001312D03*
X006707Y001981D03*
X006826Y003280D03*
X006826Y003950D03*
X006668Y006036D03*
X006038Y006036D03*
X006038Y006706D03*
X006668Y006706D03*
X005920Y007690D03*
X005330Y007690D03*
X004818Y007572D03*
X004818Y006902D03*
X004188Y006902D03*
X004188Y007572D03*
X005330Y008359D03*
X005920Y008359D03*
X004700Y009186D03*
X004700Y009855D03*
X004030Y009855D03*
X003440Y009855D03*
X003440Y009186D03*
X004030Y009186D03*
X008243Y008202D03*
X008243Y007532D03*
X009030Y007532D03*
X009030Y008202D03*
X009739Y008792D03*
X010330Y008792D03*
X010330Y009461D03*
X009739Y009461D03*
D17*
X009404Y004796D03*
X008735Y004796D03*
X008223Y004796D03*
X007554Y004796D03*
D18*
X007583Y003898D03*
X007839Y003898D03*
X008095Y003898D03*
X008351Y003898D03*
X008607Y003898D03*
X008863Y003898D03*
X009119Y003898D03*
X009375Y003898D03*
X009375Y001600D03*
X009119Y001600D03*
X008863Y001600D03*
X008607Y001600D03*
X008351Y001600D03*
X008095Y001600D03*
X007839Y001600D03*
X007583Y001600D03*
M02*
