%
M48
M72
T01C0.0157
T02C0.0197
T03C0.0276
T04C0.0295
T05C0.0413
T06C0.0551
%
T01
X3085Y5072
X1471Y7631
X5566Y6804
X1156Y8812
X1274Y6332
X2101Y5820
X2770Y4993
X1786Y8418
X7495Y8536
X6196Y10072
X7731Y7946
X10015Y2946
X10054Y1528
X2928Y10426
X9621Y7395
X8715Y2985
X7101Y6647
X5802Y10072
X4936Y6332
X9857Y4914
X5251Y6135
X4109Y8418
X3637Y7434
X4621Y4580
X2770Y7080
X7574Y2985
X1589Y4481
X3125Y4363
X4621Y4993
X2416Y2316
X5330Y2001
X2219Y3851
X7731Y2119
X5526Y5072
X6471Y4875
X4345Y3497
X7770Y2552
X6668Y2552
X7574Y3339
X5999Y4048
X4625Y3832
X5054Y2237
X4267Y5190
X2967Y2473
X3912Y5072
X3164Y3654
X6904Y7828
X7849Y8536
X8794Y6332
X8400Y6332
X6668Y7276
X6353Y8458
X3007Y9993
X9660Y4127
X9660Y3772
X10093Y8339
X10054Y7985
T02
X1333Y5830
X1333Y5337
T03
X10330Y10426
X9660Y10269
X10133Y9993
T04
X8260Y3435
T05
X7202Y2377
T06
X1304Y3694
X5339Y3694
X5339Y1410
X1304Y1410
M30
